Giphurs-Italic.ufo
<glyph name="percent" format="2">
  <advance width="1634"/>
  <unicode hex="0025"/>
  <outline>
    <contour>
      <point x="526" y="1340" type="curve" smooth="yes"/>
      <point x="413" y="1340"/>
      <point x="355" y="1232"/>
      <point x="355" y="1141" type="curve" smooth="yes"/>
      <point x="355" y="1070"/>
      <point x="393" y="1020"/>
      <point x="470" y="1020" type="curve" smooth="yes"/>
      <point x="583" y="1020"/>
      <point x="642" y="1128"/>
      <point x="642" y="1219" type="curve" smooth="yes"/>
      <point x="642" y="1290"/>
      <point x="603" y="1340"/>
    </contour>
    <contour>
      <point x="173" y="1123" type="curve" smooth="yes"/>
      <point x="173" y="1320"/>
      <point x="352" y="1500"/>
      <point x="554" y="1500" type="curve" smooth="yes"/>
      <point x="713" y="1500"/>
      <point x="823" y="1387"/>
      <point x="823" y="1237" type="curve" smooth="yes"/>
      <point x="823" y="1040"/>
      <point x="644" y="860"/>
      <point x="442" y="860" type="curve" smooth="yes"/>
      <point x="283" y="860"/>
      <point x="173" y="973"/>
    </contour>
    <contour>
      <point x="1165" y="460" type="curve" smooth="yes"/>
      <point x="1052" y="460"/>
      <point x="993" y="352"/>
      <point x="993" y="261" type="curve" smooth="yes"/>
      <point x="993" y="190"/>
      <point x="1032" y="140"/>
      <point x="1109" y="140" type="curve" smooth="yes"/>
      <point x="1222" y="140"/>
      <point x="1280" y="248"/>
      <point x="1280" y="339" type="curve" smooth="yes"/>
      <point x="1280" y="410"/>
      <point x="1242" y="460"/>
    </contour>
    <contour>
      <point x="812" y="243" type="curve" smooth="yes"/>
      <point x="812" y="440"/>
      <point x="991" y="620"/>
      <point x="1193" y="620" type="curve" smooth="yes"/>
      <point x="1352" y="620"/>
      <point x="1462" y="507"/>
      <point x="1462" y="357" type="curve" smooth="yes"/>
      <point x="1462" y="160"/>
      <point x="1282" y="-20"/>
      <point x="1080" y="-20" type="curve" smooth="yes"/>
      <point x="921" y="-20"/>
      <point x="812" y="93"/>
    </contour>
    <contour>
      <point x="1451" y="1395" type="line"/>
      <point x="308" y="0" type="line"/>
      <point x="176" y="85" type="line"/>
      <point x="1319" y="1480" type="line"/>
    </contour>
  </outline>
</glyph>
<glyph name="quotesingle" format="2">
  <advance width="464"/>
  <unicode hex="0027"/>
  <outline>
    <contour>
      <point x="193" y="968" type="line"/>
      <point x="271" y="1480" type="line"/>
      <point x="455" y="1480" type="line"/>
      <point x="353" y="968" type="line"/>
    </contour>
  </outline>
</glyph>
<glyph name="asterisk" format="2">
  <advance width="1036"/>
  <unicode hex="002A"/>
  <outline>
    <contour>
      <point x="166" y="1109" type="line"/>
      <point x="252" y="1284" type="line"/>
      <point x="615" y="1146" type="line"/>
      <point x="577" y="1070" type="line"/>
      <point x="538" y="994" type="line"/>
    </contour>
    <contour>
      <point x="342" y="684" type="line"/>
      <point x="213" y="792" type="line"/>
      <point x="520" y="1117" type="line"/>
      <point x="577" y="1070" type="line"/>
      <point x="633" y="1023" type="line"/>
    </contour>
    <contour>
      <point x="843" y="792" type="line"/>
      <point x="676" y="684" type="line"/>
      <point x="503" y="1023" type="line"/>
      <point x="577" y="1070" type="line"/>
      <point x="650" y="1117" type="line"/>
    </contour>
    <contour>
      <point x="976" y="1284" type="line"/>
      <point x="1002" y="1109" type="line"/>
      <point x="588" y="994" type="line"/>
      <point x="577" y="1070" type="line"/>
      <point x="565" y="1146" type="line"/>
    </contour>
    <contour>
      <point x="557" y="1480" type="line"/>
      <point x="741" y="1480" type="line"/>
      <point x="657" y="1070" type="line"/>
      <point x="577" y="1070" type="line"/>
      <point x="497" y="1070" type="line"/>
    </contour>
  </outline>
</glyph>
<glyph name="four" format="2">
  <advance width="1232"/>
  <unicode hex="0034"/>
  <outline>
    <contour>
      <point x="81" y="488" type="line"/>
      <point x="740" y="1480" type="line"/>
      <point x="940" y="1480" type="line"/>
      <point x="277" y="488" type="line"/>
      <point x="663" y="488" type="line"/>
      <point x="719" y="808" type="line"/>
      <point x="909" y="808" type="line"/>
      <point x="853" y="488" type="line"/>
      <point x="1063" y="488" type="line"/>
      <point x="1033" y="320" type="line"/>
      <point x="823" y="320" type="line"/>
      <point x="767" y="0" type="line"/>
      <point x="577" y="0" type="line"/>
      <point x="633" y="320" type="line"/>
      <point x="51" y="320" type="line"/>
    </contour>
  </outline>
</glyph>
<glyph name="six" format="2">
  <advance width="1232"/>
  <unicode hex="0036"/>
  <outline>
    <contour>
      <point x="79" y="489" type="curve" smooth="yes"/>
      <point x="79" y="977"/>
      <point x="384" y="1500"/>
      <point x="890" y="1500" type="curve" smooth="yes"/>
      <point x="1100" y="1500"/>
      <point x="1200" y="1380"/>
      <point x="1200" y="1380" type="curve"/>
      <point x="1086" y="1227" type="line"/>
      <point x="1086" y="1227"/>
      <point x="1017" y="1332"/>
      <point x="822" y="1332" type="curve" smooth="yes"/>
      <point x="598" y="1332"/>
      <point x="351" y="1096"/>
      <point x="280" y="696" type="curve" smooth="yes"/>
      <point x="262" y="591"/>
      <point x="255" y="512"/>
      <point x="255" y="453" type="curve" smooth="yes"/>
      <point x="255" y="309"/>
      <point x="294" y="282"/>
      <point x="294" y="282" type="curve"/>
      <point x="131" y="200" type="line"/>
      <point x="131" y="200"/>
      <point x="79" y="297"/>
    </contour>
    <contour>
      <point x="644" y="824" type="curve" smooth="yes"/>
      <point x="419" y="824"/>
      <point x="270" y="618"/>
      <point x="270" y="410" type="curve" smooth="yes"/>
      <point x="270" y="249"/>
      <point x="370" y="148"/>
      <point x="525" y="148" type="curve" smooth="yes"/>
      <point x="750" y="148"/>
      <point x="900" y="354"/>
      <point x="900" y="562" type="curve" smooth="yes"/>
      <point x="900" y="723"/>
      <point x="799" y="824"/>
    </contour>
    <contour>
      <point x="1092" y="587" type="curve" smooth="yes"/>
      <point x="1092" y="277"/>
      <point x="841" y="-20"/>
      <point x="495" y="-20" type="curve" smooth="yes"/>
      <point x="242" y="-20"/>
      <point x="99" y="142"/>
      <point x="99" y="375" type="curve" smooth="yes"/>
      <point x="99" y="410"/>
      <point x="102" y="448"/>
      <point x="109" y="486" type="curve"/>
      <point x="181" y="486" type="line"/>
      <point x="231" y="769"/>
      <point x="383" y="992"/>
      <point x="674" y="992" type="curve" smooth="yes"/>
      <point x="930" y="992"/>
      <point x="1092" y="825"/>
    </contour>
  </outline>
</glyph>
<glyph name="less" format="2">
  <advance width="1232"/>
  <unicode hex="003C"/>
  <outline>
    <contour>
      <point x="112" y="576" type="line"/>
      <point x="141" y="744" type="line"/>
      <point x="1160" y="1122" type="line"/>
      <point x="1130" y="950" type="line"/>
      <point x="336" y="660" type="line"/>
      <point x="1027" y="370" type="line"/>
      <point x="997" y="198" type="line"/>
    </contour>
  </outline>
</glyph>
<glyph name="greater" format="2">
  <advance width="1232"/>
  <unicode hex="003E"/>
  <outline>
    <contour>
      <point x="1064" y="576" type="line"/>
      <point x="45" y="198" type="line"/>
      <point x="75" y="370" type="line"/>
      <point x="868" y="660" type="line"/>
      <point x="178" y="950" type="line"/>
      <point x="208" y="1122" type="line"/>
      <point x="1093" y="744" type="line"/>
    </contour>
  </outline>
</glyph>
<glyph name="C" format="2">
  <advance width="1514"/>
  <unicode hex="0043"/>
  <anchor x="914" y="1380" name="top_center"/>
  <anchor x="671" y="0" name="bottom_center"/>
  <anchor x="667" y="-20" name="bottom_cedilla"/>
  <outline>
    <contour>
      <point x="86" y="584" type="curve" smooth="yes"/>
      <point x="86" y="1058"/>
      <point x="466" y="1500"/>
      <point x="935" y="1500" type="curve" smooth="yes"/>
      <point x="1203" y="1500"/>
      <point x="1404" y="1352"/>
      <point x="1481" y="1120" type="curve"/>
      <point x="1304" y="1028" type="line"/>
      <point x="1254" y="1215"/>
      <point x="1107" y="1332"/>
      <point x="906" y="1332" type="curve" smooth="yes"/>
      <point x="547" y="1332"/>
      <point x="278" y="975"/>
      <point x="278" y="606" type="curve" smooth="yes"/>
      <point x="278" y="330"/>
      <point x="446" y="148"/>
      <point x="697" y="148" type="curve" smooth="yes"/>
      <point x="898" y="148"/>
      <point x="1087" y="265"/>
      <point x="1203" y="452" type="curve"/>
      <point x="1347" y="360" type="line"/>
      <point x="1188" y="128"/>
      <point x="935" y="-20"/>
      <point x="667" y="-20" type="curve" smooth="yes"/>
      <point x="320" y="-20"/>
      <point x="86" y="227"/>
    </contour>
  </outline>
</glyph>
<glyph name="K" format="2">
  <advance width="1356"/>
  <unicode hex="004B"/>
  <anchor x="812" y="1380" name="top_center"/>
  <anchor x="569" y="0" name="bottom_center"/>
  <outline>
    <contour>
      <point x="559" y="794" type="line"/>
      <point x="711" y="917" type="line"/>
      <point x="1166" y="0" type="line"/>
      <point x="952" y="0" type="line"/>
    </contour>
    <contour>
      <point x="286" y="490" type="line"/>
      <point x="200" y="0" type="line"/>
      <point x="10" y="0" type="line"/>
      <point x="271" y="1480" type="line"/>
      <point x="461" y="1480" type="line"/>
      <point x="329" y="730" type="line"/>
      <point x="1187" y="1480" type="line"/>
      <point x="1427" y="1480" type="line"/>
    </contour>
  </outline>
</glyph>
<glyph name="O" format="2">
  <advance width="1602"/>
  <unicode hex="004F"/>
  <anchor x="667" y="-20" name="bottom_cedilla"/>
  <anchor x="-12" y="1040" name="greek_t"/>
  <anchor x="114" y="1040" name="greek_k"/>
  <anchor x="-52" y="1040" name="greek_kt"/>
  <anchor x="192" y="1040" name="greek_v"/>
  <anchor x="838" y="0" name="bottom_right"/>
  <anchor x="671" y="0" name="bottom_center"/>
  <anchor x="1511" y="1480" name="top_right"/>
  <anchor x="914" y="1380" name="top_center"/>
  <outline>
    <contour>
      <point x="906" y="1332" type="curve" smooth="yes"/>
      <point x="547" y="1332"/>
      <point x="278" y="975"/>
      <point x="278" y="606" type="curve" smooth="yes"/>
      <point x="278" y="330"/>
      <point x="446" y="148"/>
      <point x="697" y="148" type="curve" smooth="yes"/>
      <point x="1056" y="148"/>
      <point x="1325" y="505"/>
      <point x="1325" y="874" type="curve" smooth="yes"/>
      <point x="1325" y="1150"/>
      <point x="1157" y="1332"/>
    </contour>
    <contour>
      <point x="86" y="584" type="curve" smooth="yes"/>
      <point x="86" y="1058"/>
      <point x="466" y="1500"/>
      <point x="935" y="1500" type="curve" smooth="yes"/>
      <point x="1282" y="1500"/>
      <point x="1517" y="1253"/>
      <point x="1517" y="896" type="curve" smooth="yes"/>
      <point x="1517" y="422"/>
      <point x="1136" y="-20"/>
      <point x="667" y="-20" type="curve" smooth="yes"/>
      <point x="320" y="-20"/>
      <point x="86" y="227"/>
    </contour>
  </outline>
</glyph>
<glyph name="Q" format="2">
  <advance width="1602"/>
  <unicode hex="0051"/>
  <anchor x="671" y="0" name="bottom_center"/>
  <anchor x="914" y="1380" name="top_center"/>
  <outline>
    <contour>
      <point x="906" y="1332" type="curve" smooth="yes"/>
      <point x="547" y="1332"/>
      <point x="278" y="975"/>
      <point x="278" y="606" type="curve" smooth="yes"/>
      <point x="278" y="330"/>
      <point x="446" y="148"/>
      <point x="697" y="148" type="curve" smooth="yes"/>
      <point x="1056" y="148"/>
      <point x="1325" y="505"/>
      <point x="1325" y="874" type="curve" smooth="yes"/>
      <point x="1325" y="1150"/>
      <point x="1157" y="1332"/>
    </contour>
    <contour>
      <point x="86" y="584" type="curve" smooth="yes"/>
      <point x="86" y="1058"/>
      <point x="466" y="1500"/>
      <point x="935" y="1500" type="curve" smooth="yes"/>
      <point x="1282" y="1500"/>
      <point x="1517" y="1253"/>
      <point x="1517" y="896" type="curve" smooth="yes"/>
      <point x="1517" y="422"/>
      <point x="1136" y="-20"/>
      <point x="667" y="-20" type="curve" smooth="yes"/>
      <point x="320" y="-20"/>
      <point x="86" y="227"/>
    </contour>
    <contour>
      <point x="1383" y="64" type="line"/>
      <point x="1233" y="-64" type="line"/>
      <point x="808" y="452" type="line"/>
      <point x="958" y="580" type="line"/>
    </contour>
  </outline>
</glyph>
<glyph name="bracketright" format="2">
  <advance width="858"/>
  <unicode hex="005D"/>
  <outline>
    <contour>
      <point x="201" y="1480" type="line"/>
      <point x="229" y="1640" type="line"/>
      <point x="877" y="1640" type="line"/>
      <point x="532" y="-320" type="line"/>
      <point x="-116" y="-320" type="line"/>
      <point x="-88" y="-160" type="line"/>
      <point x="380" y="-160" type="line"/>
      <point x="669" y="1480" type="line"/>
    </contour>
  </outline>
</glyph>
<glyph name="asciicircum" format="2">
  <advance width="1232"/>
  <unicode hex="005E"/>
  <outline>
    <contour>
      <point x="932" y="656" type="line"/>
      <point x="718" y="1310" type="line"/>
      <point x="272" y="656" type="line"/>
      <point x="86" y="656" type="line"/>
      <point x="659" y="1480" type="line"/>
      <point x="835" y="1480" type="line"/>
      <point x="1118" y="656" type="line"/>
    </contour>
  </outline>
</glyph>
<glyph name="b" format="2">
  <advance width="1184"/>
  <unicode hex="0062"/>
  <anchor x="343" y="1380" name="top_center"/>
  <anchor x="476" y="0" name="bottom_center"/>
  <outline>
    <contour>
      <point x="635" y="900" type="curve" smooth="yes"/>
      <point x="391" y="900"/>
      <point x="260" y="636"/>
      <point x="260" y="417" type="curve" smooth="yes"/>
      <point x="260" y="246"/>
      <point x="349" y="140"/>
      <point x="501" y="140" type="curve" smooth="yes"/>
      <point x="745" y="140"/>
      <point x="875" y="404"/>
      <point x="875" y="623" type="curve" smooth="yes"/>
      <point x="875" y="794"/>
      <point x="787" y="900"/>
    </contour>
    <contour>
      <point x="271" y="1480" type="line"/>
      <point x="451" y="1480" type="line"/>
      <point x="352" y="920" type="line"/>
      <point x="452" y="1005"/>
      <point x="538" y="1060"/>
      <point x="663" y="1060" type="curve" smooth="yes"/>
      <point x="906" y="1060"/>
      <point x="1057" y="889"/>
      <point x="1057" y="640" type="curve" smooth="yes"/>
      <point x="1057" y="310"/>
      <point x="815" y="-20"/>
      <point x="472" y="-20" type="curve" smooth="yes"/>
      <point x="347" y="-20"/>
      <point x="273" y="35"/>
      <point x="203" y="120" type="curve"/>
      <point x="182" y="0" type="line"/>
      <point x="10" y="0" type="line"/>
    </contour>
  </outline>
</glyph>
<glyph name="k" format="2">
  <advance width="1094"/>
  <unicode hex="006B"/>
  <anchor x="343" y="1380" name="top_center"/>
  <anchor x="438" y="0" name="bottom_center"/>
  <outline>
    <contour>
      <point x="386" y="562" type="line"/>
      <point x="520" y="702" type="line"/>
      <point x="894" y="0" type="line"/>
      <point x="686" y="0" type="line"/>
    </contour>
    <contour>
      <point x="250" y="340" type="line"/>
      <point x="190" y="0" type="line"/>
      <point x="10" y="0" type="line"/>
      <point x="271" y="1480" type="line"/>
      <point x="451" y="1480" type="line"/>
      <point x="291" y="572" type="line"/>
      <point x="841" y="1040" type="line"/>
      <point x="1073" y="1040" type="line"/>
    </contour>
  </outline>
</glyph>
<glyph name="l" format="2">
  <advance width="509"/>
  <unicode hex="006C"/>
  <anchor x="343" y="1380" name="top_center"/>
  <anchor x="160" y="0" name="bottom_center"/>
  <outline>
    <contour>
      <point x="231" y="230" type="line" smooth="yes"/>
      <point x="229" y="221"/>
      <point x="228" y="213"/>
      <point x="228" y="205" type="curve" smooth="yes"/>
      <point x="228" y="162"/>
      <point x="254" y="140"/>
      <point x="305" y="140" type="curve" smooth="yes"/>
      <point x="321" y="140"/>
      <point x="347" y="149"/>
      <point x="360" y="156" type="curve"/>
      <point x="375" y="4" type="line"/>
      <point x="351" y="-9"/>
      <point x="308" y="-20"/>
      <point x="276" y="-20" type="curve" smooth="yes"/>
      <point x="128" y="-20"/>
      <point x="45" y="40"/>
      <point x="45" y="167" type="curve" smooth="yes"/>
      <point x="45" y="186"/>
      <point x="47" y="208"/>
      <point x="51" y="230" type="curve" smooth="yes"/>
      <point x="271" y="1480" type="line"/>
      <point x="451" y="1480" type="line"/>
    </contour>
  </outline>
</glyph>
<glyph name="r" format="2">
  <advance width="842"/>
  <unicode hex="0072"/>
  <anchor x="541" y="1040" name="top_center"/>
  <anchor x="100" y="0" name="bottom_center"/>
  <outline>
    <contour>
      <point x="764" y="849" type="line"/>
      <point x="727" y="883"/>
      <point x="678" y="900"/>
      <point x="607" y="900" type="curve" smooth="yes"/>
      <point x="427" y="900"/>
      <point x="330" y="791"/>
      <point x="291" y="572" type="curve" smooth="yes"/>
      <point x="190" y="0" type="line"/>
      <point x="10" y="0" type="line"/>
      <point x="193" y="1040" type="line"/>
      <point x="361" y="1040" type="line"/>
      <point x="340" y="920" type="line"/>
      <point x="440" y="1005"/>
      <point x="550" y="1060"/>
      <point x="675" y="1060" type="curve" smooth="yes"/>
      <point x="743" y="1060"/>
      <point x="796" y="1049"/>
      <point x="843" y="1028" type="curve"/>
    </contour>
  </outline>
</glyph>
<glyph name="u" format="2">
  <advance width="1156"/>
  <unicode hex="0075"/>
  <anchor x="404" y="-20" name="bottom_cedilla"/>
  <anchor x="906" y="0" name="bottom_right"/>
  <anchor x="1069" y="1040" name="top_right"/>
  <anchor x="448" y="0" name="bottom_center"/>
  <anchor x="631" y="1040" name="top_center"/>
  <outline>
    <contour>
      <point x="373" y="1040" type="line"/>
      <point x="273" y="468" type="line" smooth="yes"/>
      <point x="266" y="426"/>
      <point x="261" y="387"/>
      <point x="261" y="353" type="curve" smooth="yes"/>
      <point x="261" y="211"/>
      <point x="328" y="140"/>
      <point x="473" y="140" type="curve" smooth="yes"/>
      <point x="653" y="140"/>
      <point x="750" y="249"/>
      <point x="789" y="468" type="curve" smooth="yes"/>
      <point x="889" y="1040" type="line"/>
      <point x="1069" y="1040" type="line"/>
      <point x="916" y="168" type="line" smooth="yes"/>
      <point x="907" y="115"/>
      <point x="904" y="72"/>
      <point x="904" y="43" type="curve" smooth="yes"/>
      <point x="904" y="16"/>
      <point x="906" y="0"/>
      <point x="906" y="0" type="curve"/>
      <point x="734" y="0" type="line"/>
      <point x="734" y="0"/>
      <point x="733" y="15"/>
      <point x="733" y="38" type="curve" smooth="yes"/>
      <point x="733" y="60"/>
      <point x="734" y="90"/>
      <point x="739" y="120" type="curve"/>
      <point x="639" y="35"/>
      <point x="529" y="-20"/>
      <point x="404" y="-20" type="curve" smooth="yes"/>
      <point x="183" y="-20"/>
      <point x="77" y="93"/>
      <point x="77" y="310" type="curve" smooth="yes"/>
      <point x="77" y="358"/>
      <point x="83" y="410"/>
      <point x="93" y="468" type="curve" smooth="yes"/>
      <point x="193" y="1040" type="line"/>
    </contour>
  </outline>
</glyph>
<glyph name="y" format="2">
  <advance width="1077"/>
  <unicode hex="0079"/>
  <anchor x="583" y="1040" name="top_center"/>
  <anchor x="101" y="-360" name="bottom_center"/>
  <outline>
    <contour>
      <point x="377" y="-255" type="line" smooth="yes"/>
      <point x="309" y="-385"/>
      <point x="182" y="-460"/>
      <point x="24" y="-460" type="curve" smooth="yes"/>
      <point x="-32" y="-460"/>
      <point x="-93" y="-446"/>
      <point x="-135" y="-428" type="curve"/>
      <point x="-62" y="-265" type="line"/>
      <point x="-39" y="-284"/>
      <point x="9" y="-300"/>
      <point x="52" y="-300" type="curve" smooth="yes"/>
      <point x="129" y="-300"/>
      <point x="187" y="-267"/>
      <point x="219" y="-206" type="curve" smooth="yes"/>
      <point x="328" y="0" type="line"/>
      <point x="146" y="1040" type="line"/>
      <point x="335" y="1040" type="line"/>
      <point x="459" y="224" type="line"/>
      <point x="871" y="1040" type="line"/>
      <point x="1060" y="1040" type="line"/>
    </contour>
  </outline>
</glyph>
<glyph name="bar" format="2">
  <advance width="460"/>
  <unicode hex="007C"/>
  <outline>
    <contour>
      <point x="479" y="1640" type="line"/>
      <point x="112" y="-440" type="line"/>
      <point x="-68" y="-440" type="line"/>
      <point x="299" y="1640" type="line"/>
    </contour>
  </outline>
</glyph>
<glyph name="exclamdown" format="2">
  <advance width="532"/>
  <unicode hex="00A1"/>
  <outline>
    <contour>
      <point x="426" y="933" type="curve" smooth="yes"/>
      <point x="426" y="861"/>
      <point x="373" y="804"/>
      <point x="301" y="804" type="curve" smooth="yes"/>
      <point x="229" y="804"/>
      <point x="174" y="861"/>
      <point x="174" y="933" type="curve" smooth="yes"/>
      <point x="174" y="1005"/>
      <point x="229" y="1060"/>
      <point x="301" y="1060" type="curve" smooth="yes"/>
      <point x="373" y="1060"/>
      <point x="426" y="1005"/>
    </contour>
    <contour>
      <point x="165" y="-440" type="line"/>
      <point x="-47" y="-440" type="line"/>
      <point x="151" y="588" type="line"/>
      <point x="331" y="588" type="line"/>
    </contour>
  </outline>
</glyph>
<glyph name="brokenbar" format="2">
  <advance width="460"/>
  <unicode hex="00A6"/>
  <outline>
    <contour>
      <point x="111" y="570" type="line"/>
      <point x="291" y="570" type="line"/>
      <point x="134" y="-320" type="line"/>
      <point x="-46" y="-320" type="line"/>
    </contour>
    <contour>
      <point x="322" y="750" type="line"/>
      <point x="142" y="750" type="line"/>
      <point x="299" y="1640" type="line"/>
      <point x="479" y="1640" type="line"/>
    </contour>
  </outline>
</glyph>
<glyph name="section" format="2">
  <advance width="1122"/>
  <unicode hex="00A7"/>
  <outline>
    <contour>
      <point x="372" y="-300" type="curve" smooth="yes"/>
      <point x="577" y="-300"/>
      <point x="701" y="-174"/>
      <point x="701" y="-65" type="curve" smooth="yes"/>
      <point x="701" y="29"/>
      <point x="604" y="91"/>
      <point x="450" y="129" type="curve" smooth="yes"/>
      <point x="228" y="185"/>
      <point x="58" y="288"/>
      <point x="58" y="467" type="curve" smooth="yes"/>
      <point x="58" y="681"/>
      <point x="280" y="908"/>
      <point x="589" y="908" type="curve"/>
      <point x="566" y="778" type="line"/>
      <point x="366" y="778"/>
      <point x="239" y="602"/>
      <point x="239" y="495" type="curve" smooth="yes"/>
      <point x="239" y="402"/>
      <point x="329" y="340"/>
      <point x="480" y="303" type="curve" smooth="yes"/>
      <point x="704" y="246"/>
      <point x="879" y="143"/>
      <point x="879" y="-36" type="curve" smooth="yes"/>
      <point x="879" y="-251"/>
      <point x="656" y="-460"/>
      <point x="344" y="-460" type="curve" smooth="yes"/>
      <point x="108" y="-460"/>
      <point x="-49" y="-318"/>
      <point x="-49" y="-125" type="curve" smooth="yes"/>
      <point x="-49" y="-118"/>
      <point x="-48" y="-111"/>
      <point x="-48" y="-104" type="curve"/>
      <point x="138" y="-44" type="line"/>
      <point x="135" y="-60"/>
      <point x="134" y="-75"/>
      <point x="134" y="-90" type="curve" smooth="yes"/>
      <point x="134" y="-211"/>
      <point x="223" y="-300"/>
    </contour>
    <contour>
      <point x="665" y="1340" type="curve" smooth="yes"/>
      <point x="469" y="1340"/>
      <point x="390" y="1187"/>
      <point x="390" y="1091" type="curve" smooth="yes"/>
      <point x="390" y="1009"/>
      <point x="447" y="943"/>
      <point x="589" y="908" type="curve" smooth="yes"/>
      <point x="812" y="851"/>
      <point x="985" y="735"/>
      <point x="985" y="554" type="curve" smooth="yes"/>
      <point x="985" y="337"/>
      <point x="761" y="129"/>
      <point x="450" y="129" type="curve"/>
      <point x="473" y="259" type="line"/>
      <point x="672" y="259"/>
      <point x="808" y="420"/>
      <point x="808" y="529" type="curve" smooth="yes"/>
      <point x="808" y="624"/>
      <point x="710" y="695"/>
      <point x="558" y="734" type="curve" smooth="yes"/>
      <point x="339" y="791"/>
      <point x="208" y="906"/>
      <point x="208" y="1068" type="curve" smooth="yes"/>
      <point x="208" y="1273"/>
      <point x="410" y="1500"/>
      <point x="692" y="1500" type="curve" smooth="yes"/>
      <point x="924" y="1500"/>
      <point x="1055" y="1344"/>
      <point x="1055" y="1152" type="curve" smooth="yes"/>
      <point x="1055" y="1143"/>
      <point x="1055" y="1134"/>
      <point x="1054" y="1125" type="curve"/>
      <point x="869" y="1075" type="line"/>
      <point x="872" y="1093"/>
      <point x="874" y="1110"/>
      <point x="874" y="1128" type="curve" smooth="yes"/>
      <point x="874" y="1241"/>
      <point x="806" y="1340"/>
    </contour>
  </outline>
</glyph>
<glyph name="copyright" format="2">
  <advance width="1720"/>
  <unicode hex="00A9"/>
  <outline>
    <contour>
      <point x="220" y="740" type="curve" smooth="yes"/>
      <point x="220" y="380"/>
      <point x="500" y="100"/>
      <point x="860" y="100" type="curve" smooth="yes"/>
      <point x="1220" y="100"/>
      <point x="1500" y="380"/>
      <point x="1500" y="740" type="curve" smooth="yes"/>
      <point x="1500" y="1100"/>
      <point x="1220" y="1380"/>
      <point x="860" y="1380" type="curve" smooth="yes"/>
      <point x="500" y="1380"/>
      <point x="220" y="1100"/>
    </contour>
    <contour>
      <point x="100" y="740" type="curve" smooth="yes"/>
      <point x="100" y="1160"/>
      <point x="440" y="1500"/>
      <point x="860" y="1500" type="curve" smooth="yes"/>
      <point x="1280" y="1500"/>
      <point x="1620" y="1160"/>
      <point x="1620" y="740" type="curve" smooth="yes"/>
      <point x="1620" y="320"/>
      <point x="1280" y="-20"/>
      <point x="860" y="-20" type="curve" smooth="yes"/>
      <point x="440" y="-20"/>
      <point x="100" y="320"/>
    </contour>
    <contour>
      <point x="570" y="672" type="curve" smooth="yes"/>
      <point x="570" y="871"/>
      <point x="723" y="1061"/>
      <point x="931" y="1061" type="curve" smooth="yes"/>
      <point x="1048" y="1061"/>
      <point x="1130" y="999"/>
      <point x="1160" y="899" type="curve"/>
      <point x="1288" y="948" type="line"/>
      <point x="1240" y="1090"/>
      <point x="1117" y="1181"/>
      <point x="952" y="1181" type="curve" smooth="yes"/>
      <point x="665" y="1181"/>
      <point x="433" y="930"/>
      <point x="433" y="655" type="curve" smooth="yes"/>
      <point x="433" y="445"/>
      <point x="581" y="299"/>
      <point x="797" y="299" type="curve" smooth="yes"/>
      <point x="962" y="299"/>
      <point x="1117" y="390"/>
      <point x="1215" y="532" type="curve"/>
      <point x="1103" y="581" type="line"/>
      <point x="1037" y="481"/>
      <point x="935" y="419"/>
      <point x="818" y="419" type="curve" smooth="yes"/>
      <point x="670" y="419"/>
      <point x="570" y="520"/>
    </contour>
  </outline>
</glyph>
<glyph name="logicalnot" format="2">
  <advance width="1232"/>
  <unicode hex="00AC"/>
  <outline>
    <contour>
      <point x="897" y="650" type="line"/>
      <point x="842" y="340" type="line"/>
      <point x="1022" y="340" type="line"/>
      <point x="1092" y="740" type="line"/>
    </contour>
    <contour>
      <point x="112" y="580" type="line"/>
      <point x="974" y="580" type="line"/>
      <point x="1092" y="740" type="line"/>
      <point x="140" y="740" type="line"/>
    </contour>
  </outline>
</glyph>
<glyph name="macron" format="2">
  <advance width="790"/>
  <unicode hex="00AF"/>
  <outline>
    <contour>
      <point x="196" y="1340" type="line"/>
      <point x="221" y="1480" type="line"/>
      <point x="831" y="1480" type="line"/>
      <point x="806" y="1340" type="line"/>
    </contour>
  </outline>
</glyph>
<glyph name="degree" format="2">
  <advance width="840"/>
  <unicode hex="00B0"/>
  <outline>
    <contour>
      <point x="358" y="1180" type="curve" smooth="yes"/>
      <point x="358" y="1090"/>
      <point x="408" y="1020"/>
      <point x="498" y="1020" type="curve" smooth="yes"/>
      <point x="588" y="1020"/>
      <point x="638" y="1090"/>
      <point x="638" y="1180" type="curve" smooth="yes"/>
      <point x="638" y="1270"/>
      <point x="588" y="1340"/>
      <point x="498" y="1340" type="curve" smooth="yes"/>
      <point x="408" y="1340"/>
      <point x="358" y="1270"/>
    </contour>
    <contour>
      <point x="178" y="1180" type="curve" smooth="yes"/>
      <point x="178" y="1358"/>
      <point x="320" y="1500"/>
      <point x="498" y="1500" type="curve" smooth="yes"/>
      <point x="676" y="1500"/>
      <point x="818" y="1358"/>
      <point x="818" y="1180" type="curve" smooth="yes"/>
      <point x="818" y="1002"/>
      <point x="676" y="860"/>
      <point x="498" y="860" type="curve" smooth="yes"/>
      <point x="320" y="860"/>
      <point x="178" y="1002"/>
    </contour>
  </outline>
</glyph>
<glyph name="plusminus" format="2">
  <advance width="1232"/>
  <unicode hex="00B1"/>
  <outline>
    <contour>
      <point x="10" y="0" type="line"/>
      <point x="962" y="0" type="line"/>
      <point x="934" y="-160" type="line"/>
      <point x="-18" y="-160" type="line"/>
    </contour>
    <contour>
      <point x="596" y="1136" type="line"/>
      <point x="428" y="184" type="line"/>
      <point x="608" y="184" type="line"/>
      <point x="776" y="1136" type="line"/>
    </contour>
    <contour>
      <point x="112" y="580" type="line"/>
      <point x="1064" y="580" type="line"/>
      <point x="1092" y="740" type="line"/>
      <point x="140" y="740" type="line"/>
    </contour>
  </outline>
</glyph>
<glyph name="three.superior" format="2">
  <advance width="796"/>
  <unicode hex="00B3"/>
  <outline>
    <contour>
      <point x="692" y="1460" type="curve" smooth="yes"/>
      <point x="692" y="1389"/>
      <point x="630" y="1317"/>
      <point x="500" y="1317" type="curve" smooth="yes"/>
      <point x="442" y="1317" type="line"/>
      <point x="422" y="1202" type="line"/>
      <point x="481" y="1202" type="line" smooth="yes"/>
      <point x="593" y="1202"/>
      <point x="657" y="1154"/>
      <point x="657" y="1083" type="curve" smooth="yes"/>
      <point x="657" y="998"/>
      <point x="577" y="919"/>
      <point x="430" y="919" type="curve" smooth="yes"/>
      <point x="318" y="919"/>
      <point x="256" y="984"/>
      <point x="256" y="1059" type="curve" smooth="yes"/>
      <point x="256" y="1067"/>
      <point x="257" y="1075"/>
      <point x="258" y="1083" type="curve"/>
      <point x="118" y="1047" type="line"/>
      <point x="118" y="1042"/>
      <point x="117" y="1038"/>
      <point x="117" y="1033" type="curve" smooth="yes"/>
      <point x="117" y="894"/>
      <point x="231" y="798"/>
      <point x="409" y="798" type="curve" smooth="yes"/>
      <point x="635" y="798"/>
      <point x="792" y="941"/>
      <point x="792" y="1088" type="curve" smooth="yes"/>
      <point x="792" y="1162"/>
      <point x="748" y="1222"/>
      <point x="672" y="1263" type="curve"/>
      <point x="724" y="1289"/>
      <point x="829" y="1358"/>
      <point x="829" y="1482" type="curve" smooth="yes"/>
      <point x="829" y="1596"/>
      <point x="727" y="1680"/>
      <point x="564" y="1680" type="curve" smooth="yes"/>
      <point x="385" y="1680"/>
      <point x="259" y="1576"/>
      <point x="220" y="1452" type="curve"/>
      <point x="348" y="1416" type="line"/>
      <point x="361" y="1489"/>
      <point x="437" y="1559"/>
      <point x="543" y="1559" type="curve" smooth="yes"/>
      <point x="639" y="1559"/>
      <point x="692" y="1521"/>
    </contour>
  </outline>
</glyph>
<glyph name="one.superior" format="2">
  <advance width="796"/>
  <unicode hex="00B9"/>
  <outline>
    <contour>
      <point x="478" y="1389" type="line"/>
      <point x="376" y="810" type="line"/>
      <point x="511" y="810" type="line"/>
      <point x="662" y="1668" type="line"/>
      <point x="535" y="1668" type="line"/>
      <point x="528" y="1628" type="line" smooth="yes"/>
      <point x="515" y="1557"/>
      <point x="436" y="1503"/>
      <point x="361" y="1503" type="curve" smooth="yes"/>
      <point x="315" y="1503" type="line"/>
      <point x="295" y="1389" type="line"/>
    </contour>
  </outline>
</glyph>
<glyph name="ordmasculine" format="2">
  <advance width="868"/>
  <unicode hex="00BA"/>
  <outline>
    <contour>
      <point x="482" y="980" type="curve" smooth="yes"/>
      <point x="683" y="980"/>
      <point x="851" y="1157"/>
      <point x="851" y="1352" type="curve" smooth="yes"/>
      <point x="851" y="1501"/>
      <point x="744" y="1607"/>
      <point x="592" y="1607" type="curve" smooth="yes"/>
      <point x="391" y="1607"/>
      <point x="223" y="1428"/>
      <point x="223" y="1234" type="curve" smooth="yes"/>
      <point x="223" y="1085"/>
      <point x="330" y="980"/>
    </contour>
    <contour>
      <point x="715" y="1339" type="curve" smooth="yes"/>
      <point x="715" y="1228"/>
      <point x="644" y="1101"/>
      <point x="503" y="1101" type="curve" smooth="yes"/>
      <point x="410" y="1101"/>
      <point x="359" y="1158"/>
      <point x="359" y="1247" type="curve" smooth="yes"/>
      <point x="359" y="1359"/>
      <point x="430" y="1486"/>
      <point x="571" y="1486" type="curve" smooth="yes"/>
      <point x="664" y="1486"/>
      <point x="715" y="1428"/>
    </contour>
    <contour>
      <point x="109" y="741" type="line"/>
      <point x="130" y="861" type="line"/>
      <point x="782" y="861" type="line"/>
      <point x="761" y="741" type="line"/>
    </contour>
  </outline>
</glyph>
<glyph name="AE" format="2">
  <advance width="2184"/>
  <unicode hex="00C6"/>
  <anchor x="987" y="0" name="bottom_center"/>
  <anchor x="1590" y="1380" name="top_center"/>
  <outline>
    <contour>
      <point x="1011" y="1312" type="line"/>
      <point x="1041" y="1480" type="line"/>
      <point x="1247" y="1480" type="line"/>
      <point x="1297" y="1312" type="line"/>
    </contour>
    <contour>
      <point x="451" y="604" type="line"/>
      <point x="1193" y="604" type="line"/>
      <point x="1163" y="436" type="line"/>
      <point x="421" y="436" type="line"/>
    </contour>
    <contour>
      <point x="-60" y="0" type="line"/>
      <point x="1041" y="1480" type="line"/>
      <point x="1191" y="1404" type="line"/>
      <point x="160" y="0" type="line"/>
    </contour>
    <contour>
      <point x="1964" y="824" type="line"/>
      <point x="1935" y="656" type="line"/>
      <point x="1292" y="656" type="line"/>
      <point x="1206" y="168" type="line"/>
      <point x="1944" y="168" type="line"/>
      <point x="1914" y="0" type="line"/>
      <point x="986" y="0" type="line"/>
      <point x="1247" y="1480" type="line"/>
      <point x="2175" y="1480" type="line"/>
      <point x="2145" y="1312" type="line"/>
      <point x="1407" y="1312" type="line"/>
      <point x="1321" y="824" type="line"/>
    </contour>
  </outline>
</glyph>
<glyph name="Thorn" format="2">
  <advance width="1188"/>
  <unicode hex="00DE"/>
  <outline>
    <contour>
      <point x="562" y="453" type="line" smooth="yes"/>
      <point x="757" y="453"/>
      <point x="903" y="618"/>
      <point x="903" y="795" type="curve" smooth="yes"/>
      <point x="903" y="931"/>
      <point x="809" y="1025"/>
      <point x="663" y="1025" type="curve" smooth="yes"/>
      <point x="381" y="1025" type="line"/>
      <point x="280" y="453" type="line"/>
    </contour>
    <contour>
      <point x="1095" y="814" type="curve" smooth="yes"/>
      <point x="1095" y="533"/>
      <point x="819" y="285"/>
      <point x="532" y="285" type="curve" smooth="yes"/>
      <point x="250" y="285" type="line"/>
      <point x="200" y="0" type="line"/>
      <point x="10" y="0" type="line"/>
      <point x="271" y="1480" type="line"/>
      <point x="461" y="1480" type="line"/>
      <point x="410" y="1193" type="line"/>
      <point x="692" y="1193" type="line" smooth="yes"/>
      <point x="921" y="1193"/>
      <point x="1095" y="1032"/>
    </contour>
  </outline>
</glyph>
<glyph name="eth" format="2">
  <advance width="1196"/>
  <unicode hex="00F0"/>
  <outline>
    <contour>
      <point x="510" y="1084" type="line"/>
      <point x="680" y="1173"/>
      <point x="851" y="1262"/>
      <point x="1021" y="1352" type="curve"/>
      <point x="970" y="1480" type="line"/>
      <point x="800" y="1391"/>
      <point x="629" y="1301"/>
      <point x="459" y="1212" type="curve"/>
    </contour>
    <contour>
      <point x="484" y="1355" type="line"/>
      <point x="655" y="1245"/>
      <point x="898" y="1120"/>
      <point x="898" y="728" type="curve" smooth="yes"/>
      <point x="898" y="666"/>
      <point x="892" y="597"/>
      <point x="878" y="520" type="curve"/>
      <point x="1058" y="520" type="line"/>
      <point x="1070" y="589"/>
      <point x="1076" y="654"/>
      <point x="1076" y="716" type="curve" smooth="yes"/>
      <point x="1076" y="1087"/>
      <point x="870" y="1339"/>
      <point x="604" y="1510" type="curve"/>
    </contour>
    <contour>
      <point x="234" y="429" type="curve" smooth="yes"/>
      <point x="234" y="656"/>
      <point x="387" y="900"/>
      <point x="627" y="900" type="curve" smooth="yes"/>
      <point x="790" y="900"/>
      <point x="886" y="782"/>
      <point x="886" y="611" type="curve" smooth="yes"/>
      <point x="886" y="384"/>
      <point x="733" y="140"/>
      <point x="493" y="140" type="curve" smooth="yes"/>
      <point x="330" y="140"/>
      <point x="234" y="258"/>
    </contour>
    <contour>
      <point x="655" y="1060" type="curve" smooth="yes"/>
      <point x="321" y="1060"/>
      <point x="52" y="746"/>
      <point x="52" y="409" type="curve" smooth="yes"/>
      <point x="52" y="155"/>
      <point x="218" y="-20"/>
      <point x="464" y="-20" type="curve" smooth="yes"/>
      <point x="745" y="-20"/>
      <point x="1003" y="208"/>
      <point x="1058" y="520" type="curve"/>
      <point x="975" y="520" type="line"/>
      <point x="984" y="569"/>
      <point x="988" y="616"/>
      <point x="988" y="660" type="curve" smooth="yes"/>
      <point x="988" y="898"/>
      <point x="866" y="1060"/>
    </contour>
  </outline>
</glyph>
<glyph name="divide" format="2">
  <advance width="1232"/>
  <unicode hex="00F7"/>
  <outline>
    <contour>
      <point x="412" y="291" type="curve" smooth="yes"/>
      <point x="412" y="363"/>
      <point x="465" y="420"/>
      <point x="537" y="420" type="curve" smooth="yes"/>
      <point x="609" y="420"/>
      <point x="664" y="363"/>
      <point x="664" y="291" type="curve" smooth="yes"/>
      <point x="664" y="219"/>
      <point x="610" y="164"/>
      <point x="538" y="164" type="curve" smooth="yes"/>
      <point x="466" y="164"/>
      <point x="412" y="219"/>
    </contour>
    <contour>
      <point x="542" y="1027" type="curve" smooth="yes"/>
      <point x="542" y="1099"/>
      <point x="595" y="1156"/>
      <point x="667" y="1156" type="curve" smooth="yes"/>
      <point x="739" y="1156"/>
      <point x="794" y="1099"/>
      <point x="794" y="1027" type="curve" smooth="yes"/>
      <point x="794" y="955"/>
      <point x="740" y="900"/>
      <point x="668" y="900" type="curve" smooth="yes"/>
      <point x="596" y="900"/>
      <point x="542" y="955"/>
    </contour>
    <contour>
      <point x="112" y="580" type="line"/>
      <point x="140" y="740" type="line"/>
      <point x="1092" y="740" type="line"/>
      <point x="1064" y="580" type="line"/>
    </contour>
  </outline>
</glyph>
<glyph name="Lcaron" format="2">
  <advance width="1208"/>
  <unicode hex="013D"/>
  <outline>
    <contour>
      <point x="715" y="1120" type="line"/>
      <point x="557" y="1120" type="line"/>
      <point x="685" y="1480" type="line"/>
      <point x="875" y="1480" type="line"/>
    </contour>
    <contour>
      <point x="461" y="1480" type="line"/>
      <point x="230" y="168" type="line"/>
      <point x="968" y="168" type="line"/>
      <point x="938" y="0" type="line"/>
      <point x="10" y="0" type="line"/>
      <point x="271" y="1480" type="line"/>
    </contour>
  </outline>
</glyph>
<glyph name="lcaron" format="2">
  <advance width="815"/>
  <unicode hex="013E"/>
  <outline>
    <contour>
      <point x="715" y="1120" type="line"/>
      <point x="557" y="1120" type="line"/>
      <point x="685" y="1480" type="line"/>
      <point x="875" y="1480" type="line"/>
    </contour>
    <contour>
      <point x="360" y="156" type="curve"/>
      <point x="375" y="4" type="line"/>
      <point x="351" y="-9"/>
      <point x="308" y="-20"/>
      <point x="276" y="-20" type="curve" smooth="yes"/>
      <point x="129" y="-20"/>
      <point x="45" y="40"/>
      <point x="45" y="167" type="curve" smooth="yes"/>
      <point x="45" y="186"/>
      <point x="47" y="207"/>
      <point x="51" y="230" type="curve" smooth="yes"/>
      <point x="271" y="1480" type="line"/>
      <point x="451" y="1480" type="line"/>
      <point x="231" y="230" type="line" smooth="yes"/>
      <point x="229" y="221"/>
      <point x="229" y="213"/>
      <point x="229" y="205" type="curve" smooth="yes"/>
      <point x="229" y="162"/>
      <point x="254" y="140"/>
      <point x="305" y="140" type="curve" smooth="yes"/>
      <point x="321" y="140"/>
      <point x="347" y="149"/>
    </contour>
  </outline>
</glyph>
<glyph name="Lslash" format="2">
  <advance width="1208"/>
  <unicode hex="0141"/>
  <outline>
    <contour>
      <point x="664" y="1100" type="line"/>
      <point x="630" y="907" type="line"/>
      <point x="-108" y="520" type="line"/>
      <point x="-74" y="713" type="line"/>
    </contour>
    <contour>
      <point x="461" y="1480" type="line"/>
      <point x="230" y="168" type="line"/>
      <point x="968" y="168" type="line"/>
      <point x="938" y="0" type="line"/>
      <point x="10" y="0" type="line"/>
      <point x="271" y="1480" type="line"/>
    </contour>
  </outline>
</glyph>
<glyph name="lslash" format="2">
  <advance width="509"/>
  <unicode hex="0142"/>
  <outline>
    <contour>
      <point x="587" y="1060" type="line"/>
      <point x="553" y="867" type="line"/>
      <point x="-108" y="520" type="line"/>
      <point x="-74" y="713" type="line"/>
    </contour>
    <contour>
      <point x="231" y="230" type="line" smooth="yes"/>
      <point x="229" y="221"/>
      <point x="228" y="213"/>
      <point x="228" y="205" type="curve" smooth="yes"/>
      <point x="228" y="162"/>
      <point x="254" y="140"/>
      <point x="305" y="140" type="curve" smooth="yes"/>
      <point x="321" y="140"/>
      <point x="347" y="149"/>
      <point x="360" y="156" type="curve"/>
      <point x="375" y="4" type="line"/>
      <point x="351" y="-9"/>
      <point x="308" y="-20"/>
      <point x="276" y="-20" type="curve" smooth="yes"/>
      <point x="129" y="-20"/>
      <point x="45" y="40"/>
      <point x="45" y="167" type="curve" smooth="yes"/>
      <point x="45" y="186"/>
      <point x="47" y="207"/>
      <point x="51" y="230" type="curve" smooth="yes"/>
      <point x="271" y="1480" type="line"/>
      <point x="451" y="1480" type="line"/>
    </contour>
  </outline>
</glyph>
<glyph name="Eng" format="2">
  <advance width="1398"/>
  <unicode hex="014A"/>
  <anchor x="812" y="1380" name="top_center"/>
  <outline>
    <contour>
      <point x="1092" y="-202" type="line" smooth="yes"/>
      <point x="1062" y="-372"/>
      <point x="937" y="-460"/>
      <point x="767" y="-460" type="curve" smooth="yes"/>
      <point x="735" y="-460"/>
      <point x="687" y="-449"/>
      <point x="667" y="-436" type="curve"/>
      <point x="736" y="-284" type="line"/>
      <point x="747" y="-291"/>
      <point x="781" y="-292"/>
      <point x="797" y="-292" type="curve" smooth="yes"/>
      <point x="857" y="-292"/>
      <point x="891" y="-262"/>
      <point x="902" y="-202" type="curve" smooth="yes"/>
      <point x="938" y="0" type="line"/>
      <point x="1128" y="0" type="line"/>
    </contour>
    <contour>
      <point x="461" y="1480" type="line"/>
      <point x="994" y="320" type="line"/>
      <point x="1199" y="1480" type="line"/>
      <point x="1389" y="1480" type="line"/>
      <point x="1128" y="0" type="line"/>
      <point x="938" y="0" type="line"/>
      <point x="405" y="1160" type="line"/>
      <point x="200" y="0" type="line"/>
      <point x="10" y="0" type="line"/>
      <point x="271" y="1480" type="line"/>
    </contour>
  </outline>
</glyph>
<glyph name="eng" format="2">
  <advance width="1156"/>
  <unicode hex="014B"/>
  <anchor x="631" y="1040" name="top_center"/>
  <outline>
    <contour>
      <point x="849" y="-210" type="line" smooth="yes"/>
      <point x="819" y="-380"/>
      <point x="705" y="-460"/>
      <point x="535" y="-460" type="curve" smooth="yes"/>
      <point x="503" y="-460"/>
      <point x="465" y="-449"/>
      <point x="445" y="-436" type="curve"/>
      <point x="514" y="-284" type="line"/>
      <point x="525" y="-291"/>
      <point x="547" y="-300"/>
      <point x="563" y="-300" type="curve" smooth="yes"/>
      <point x="623" y="-300"/>
      <point x="658" y="-270"/>
      <point x="669" y="-210" type="curve" smooth="yes"/>
      <point x="706" y="0" type="line"/>
      <point x="886" y="0" type="line"/>
    </contour>
    <contour>
      <point x="807" y="572" type="line" smooth="yes"/>
      <point x="815" y="615"/>
      <point x="818" y="653"/>
      <point x="818" y="687" type="curve" smooth="yes"/>
      <point x="818" y="829"/>
      <point x="752" y="900"/>
      <point x="607" y="900" type="curve" smooth="yes"/>
      <point x="427" y="900"/>
      <point x="330" y="791"/>
      <point x="291" y="572" type="curve" smooth="yes"/>
      <point x="190" y="0" type="line"/>
      <point x="10" y="0" type="line"/>
      <point x="193" y="1040" type="line"/>
      <point x="361" y="1040" type="line"/>
      <point x="340" y="920" type="line"/>
      <point x="440" y="1005"/>
      <point x="550" y="1060"/>
      <point x="675" y="1060" type="curve" smooth="yes"/>
      <point x="896" y="1060"/>
      <point x="1002" y="947"/>
      <point x="1002" y="730" type="curve" smooth="yes"/>
      <point x="1002" y="682"/>
      <point x="997" y="630"/>
      <point x="987" y="572" type="curve" smooth="yes"/>
      <point x="886" y="0" type="line"/>
      <point x="706" y="0" type="line"/>
    </contour>
  </outline>
</glyph>
<glyph name="OE" format="2">
  <advance width="2380"/>
  <unicode hex="0152"/>
  <anchor x="1425" y="1380" name="top_center"/>
  <anchor x="1182" y="0" name="bottom_center"/>
  <outline>
    <contour>
      <point x="906" y="1332" type="curve" smooth="yes"/>
      <point x="547" y="1332"/>
      <point x="278" y="975"/>
      <point x="278" y="606" type="curve" smooth="yes"/>
      <point x="278" y="330"/>
      <point x="446" y="148"/>
      <point x="697" y="148" type="curve" smooth="yes"/>
      <point x="1057" y="148"/>
      <point x="1324" y="507"/>
      <point x="1324" y="875" type="curve" smooth="yes"/>
      <point x="1324" y="1151"/>
      <point x="1157" y="1332"/>
    </contour>
    <contour>
      <point x="86" y="585" type="curve" smooth="yes"/>
      <point x="86" y="1061"/>
      <point x="467" y="1500"/>
      <point x="935" y="1500" type="curve" smooth="yes"/>
      <point x="1282" y="1500"/>
      <point x="1516" y="1252"/>
      <point x="1516" y="895" type="curve" smooth="yes"/>
      <point x="1516" y="419"/>
      <point x="1135" y="-20"/>
      <point x="667" y="-20" type="curve" smooth="yes"/>
      <point x="320" y="-20"/>
      <point x="86" y="228"/>
    </contour>
    <contour>
      <point x="2160" y="824" type="line"/>
      <point x="2131" y="656" type="line"/>
      <point x="1488" y="656" type="line"/>
      <point x="1402" y="168" type="line"/>
      <point x="2140" y="168" type="line"/>
      <point x="2110" y="0" type="line"/>
      <point x="1182" y="0" type="line"/>
      <point x="1443" y="1480" type="line"/>
      <point x="2371" y="1480" type="line"/>
      <point x="2341" y="1312" type="line"/>
      <point x="1603" y="1312" type="line"/>
      <point x="1517" y="824" type="line"/>
    </contour>
  </outline>
</glyph>
<glyph name="oe" format="2">
  <advance width="2012"/>
  <unicode hex="0153"/>
  <anchor x="876" y="0" name="bottom_center"/>
  <anchor x="1088" y="1200" name="top_center"/>
  <outline>
    <contour>
      <point x="966" y="600" type="line"/>
      <point x="1772" y="600" type="line"/>
      <point x="1674" y="440" type="line"/>
      <point x="938" y="440" type="line"/>
    </contour>
    <contour>
      <point x="1443" y="900" type="curve" smooth="yes"/>
      <point x="1203" y="900"/>
      <point x="1050" y="656"/>
      <point x="1050" y="429" type="curve" smooth="yes"/>
      <point x="1050" y="258"/>
      <point x="1146" y="140"/>
      <point x="1309" y="140" type="curve" smooth="yes"/>
      <point x="1450" y="140"/>
      <point x="1584" y="207"/>
      <point x="1656" y="340" type="curve"/>
      <point x="1793" y="252" type="line"/>
      <point x="1679" y="74"/>
      <point x="1479" y="-20"/>
      <point x="1280" y="-20" type="curve" smooth="yes"/>
      <point x="1034" y="-20"/>
      <point x="868" y="155"/>
      <point x="868" y="409" type="curve" smooth="yes"/>
      <point x="868" y="746"/>
      <point x="1137" y="1060"/>
      <point x="1471" y="1060" type="curve" smooth="yes"/>
      <point x="1718" y="1060"/>
      <point x="1884" y="885"/>
      <point x="1884" y="631" type="curve" smooth="yes"/>
      <point x="1884" y="602"/>
      <point x="1881" y="525"/>
      <point x="1855" y="440" type="curve"/>
      <point x="1674" y="440" type="line"/>
      <point x="1679" y="453"/>
      <point x="1702" y="526"/>
      <point x="1702" y="611" type="curve" smooth="yes"/>
      <point x="1702" y="782"/>
      <point x="1606" y="900"/>
    </contour>
    <contour>
      <point x="627" y="900" type="curve" smooth="yes"/>
      <point x="387" y="900"/>
      <point x="234" y="656"/>
      <point x="234" y="429" type="curve" smooth="yes"/>
      <point x="234" y="258"/>
      <point x="330" y="140"/>
      <point x="493" y="140" type="curve" smooth="yes"/>
      <point x="733" y="140"/>
      <point x="886" y="384"/>
      <point x="886" y="611" type="curve" smooth="yes"/>
      <point x="886" y="782"/>
      <point x="790" y="900"/>
    </contour>
    <contour>
      <point x="52" y="409" type="curve" smooth="yes"/>
      <point x="52" y="746"/>
      <point x="321" y="1060"/>
      <point x="655" y="1060" type="curve" smooth="yes"/>
      <point x="902" y="1060"/>
      <point x="1068" y="885"/>
      <point x="1068" y="631" type="curve" smooth="yes"/>
      <point x="1068" y="293"/>
      <point x="798" y="-20"/>
      <point x="464" y="-20" type="curve" smooth="yes"/>
      <point x="218" y="-20"/>
      <point x="52" y="155"/>
    </contour>
  </outline>
</glyph>
<glyph name="longs" format="2">
  <advance width="695"/>
  <unicode hex="017F"/>
  <anchor x="507" y="1400" name="top_center"/>
  <anchor x="100" y="0" name="bottom_center"/>
  <outline>
    <contour>
      <point x="190" y="0" type="line"/>
      <point x="398" y="1180" type="line" smooth="yes"/>
      <point x="416" y="1282"/>
      <point x="484" y="1340"/>
      <point x="586" y="1340" type="curve" smooth="yes"/>
      <point x="629" y="1340"/>
      <point x="677" y="1324"/>
      <point x="700" y="1305" type="curve"/>
      <point x="774" y="1468" type="line"/>
      <point x="732" y="1486"/>
      <point x="670" y="1500"/>
      <point x="614" y="1500" type="curve" smooth="yes"/>
      <point x="414" y="1500"/>
      <point x="253" y="1380"/>
      <point x="218" y="1180" type="curve" smooth="yes"/>
      <point x="10" y="0" type="line"/>
    </contour>
  </outline>
</glyph>
<glyph name="uni0182" format="2">
  <advance width="1328"/>
  <unicode hex="0182"/>
  <outline>
    <contour>
      <point x="1180" y="505" type="curve" smooth="yes"/>
      <point x="1180" y="231"/>
      <point x="924" y="0"/>
      <point x="588" y="0" type="curve" smooth="yes"/>
      <point x="10" y="0" type="line"/>
      <point x="271" y="1480" type="line"/>
      <point x="1239" y="1480" type="line"/>
      <point x="1209" y="1312" type="line"/>
      <point x="431" y="1312" type="line"/>
      <point x="351" y="856" type="line"/>
      <point x="739" y="856" type="line" smooth="yes"/>
      <point x="1024" y="856"/>
      <point x="1180" y="709"/>
    </contour>
    <contour>
      <point x="711" y="696" type="curve" smooth="yes"/>
      <point x="323" y="696" type="line"/>
      <point x="230" y="168" type="line"/>
      <point x="618" y="168" type="line" smooth="yes"/>
      <point x="858" y="168"/>
      <point x="988" y="325"/>
      <point x="988" y="480" type="curve" smooth="yes"/>
      <point x="988" y="608"/>
      <point x="889" y="696"/>
    </contour>
  </outline>
</glyph>
<glyph name="uni0186" format="2">
  <advance width="1514"/>
  <unicode hex="0186"/>
  <anchor x="750" y="0" name="bottom_right"/>
  <anchor x="826" y="1380" name="top_center"/>
  <anchor x="583" y="0" name="bottom_center"/>
  <anchor x="579" y="-20" name="bottom_cedilla"/>
  <outline>
    <contour>
      <point x="579" y="-20" type="curve" smooth="yes"/>
      <point x="1047" y="-20"/>
      <point x="1428" y="419"/>
      <point x="1428" y="895" type="curve" smooth="yes"/>
      <point x="1428" y="1252"/>
      <point x="1194" y="1500"/>
      <point x="847" y="1500" type="curve" smooth="yes"/>
      <point x="579" y="1500"/>
      <point x="326" y="1352"/>
      <point x="167" y="1120" type="curve"/>
      <point x="312" y="1028" type="line"/>
      <point x="428" y="1215"/>
      <point x="617" y="1332"/>
      <point x="818" y="1332" type="curve" smooth="yes"/>
      <point x="1069" y="1332"/>
      <point x="1236" y="1151"/>
      <point x="1236" y="875" type="curve" smooth="yes"/>
      <point x="1236" y="507"/>
      <point x="969" y="148"/>
      <point x="609" y="148" type="curve" smooth="yes"/>
      <point x="408" y="148"/>
      <point x="261" y="265"/>
      <point x="211" y="452" type="curve"/>
      <point x="33" y="360" type="line"/>
      <point x="110" y="128"/>
      <point x="311" y="-20"/>
    </contour>
  </outline>
</glyph>
<glyph name="uni0187" format="2">
  <advance width="1586"/>
  <unicode hex="0187"/>
  <outline>
    <contour>
      <point x="1676" y="1500" type="curve" smooth="yes"/>
      <point x="1691" y="1500"/>
      <point x="1706" y="1499"/>
      <point x="1720" y="1497" type="curve"/>
      <point x="1690" y="1326" type="line"/>
      <point x="1678" y="1330"/>
      <point x="1663" y="1332"/>
      <point x="1647" y="1332" type="curve" smooth="yes"/>
      <point x="1557" y="1332"/>
      <point x="1496" y="1270"/>
      <point x="1480" y="1180" type="curve" smooth="yes"/>
      <point x="1477" y="1162"/>
      <point x="1475" y="1145"/>
      <point x="1477" y="1130" type="curve"/>
      <point x="1285" y="1130" type="line"/>
      <point x="1285" y="1146"/>
      <point x="1287" y="1163"/>
      <point x="1290" y="1180" type="curve" smooth="yes"/>
      <point x="1321" y="1358"/>
      <point x="1498" y="1500"/>
    </contour>
    <contour>
      <point x="86" y="585" type="curve" smooth="yes"/>
      <point x="86" y="1061"/>
      <point x="467" y="1500"/>
      <point x="935" y="1500" type="curve" smooth="yes"/>
      <point x="1203" y="1500"/>
      <point x="1404" y="1352"/>
      <point x="1481" y="1120" type="curve"/>
      <point x="1304" y="1028" type="line"/>
      <point x="1254" y="1215"/>
      <point x="1107" y="1332"/>
      <point x="906" y="1332" type="curve" smooth="yes"/>
      <point x="547" y="1332"/>
      <point x="278" y="975"/>
      <point x="278" y="606" type="curve" smooth="yes"/>
      <point x="278" y="330"/>
      <point x="446" y="148"/>
      <point x="697" y="148" type="curve" smooth="yes"/>
      <point x="898" y="148"/>
      <point x="1087" y="265"/>
      <point x="1203" y="452" type="curve"/>
      <point x="1347" y="360" type="line"/>
      <point x="1188" y="128"/>
      <point x="935" y="-20"/>
      <point x="667" y="-20" type="curve" smooth="yes"/>
      <point x="320" y="-20"/>
      <point x="86" y="228"/>
    </contour>
  </outline>
</glyph>
<glyph name="uni0188" format="2">
  <advance width="1228"/>
  <unicode hex="0188"/>
  <outline>
    <contour>
      <point x="1259" y="1160" type="curve" smooth="yes"/>
      <point x="1274" y="1160"/>
      <point x="1288" y="1159"/>
      <point x="1302" y="1157" type="curve"/>
      <point x="1273" y="994" type="line"/>
      <point x="1261" y="998"/>
      <point x="1246" y="1000"/>
      <point x="1230" y="1000" type="curve" smooth="yes"/>
      <point x="1140" y="1000"/>
      <point x="1068" y="930"/>
      <point x="1052" y="840" type="curve" smooth="yes"/>
      <point x="1049" y="822"/>
      <point x="1047" y="805"/>
      <point x="1049" y="790" type="curve"/>
      <point x="867" y="790" type="line"/>
      <point x="867" y="806"/>
      <point x="869" y="823"/>
      <point x="872" y="840" type="curve" smooth="yes"/>
      <point x="903" y="1018"/>
      <point x="1081" y="1160"/>
    </contour>
    <contour>
      <point x="627" y="900" type="curve" smooth="yes"/>
      <point x="387" y="900"/>
      <point x="234" y="656"/>
      <point x="234" y="429" type="curve" smooth="yes"/>
      <point x="234" y="258"/>
      <point x="330" y="140"/>
      <point x="493" y="140" type="curve" smooth="yes"/>
      <point x="634" y="140"/>
      <point x="747" y="207"/>
      <point x="819" y="340" type="curve"/>
      <point x="956" y="252" type="line"/>
      <point x="842" y="74"/>
      <point x="663" y="-20"/>
      <point x="464" y="-20" type="curve" smooth="yes"/>
      <point x="218" y="-20"/>
      <point x="52" y="155"/>
      <point x="52" y="409" type="curve" smooth="yes"/>
      <point x="52" y="746"/>
      <point x="321" y="1060"/>
      <point x="655" y="1060" type="curve" smooth="yes"/>
      <point x="854" y="1060"/>
      <point x="999" y="966"/>
      <point x="1051" y="788" type="curve"/>
      <point x="882" y="700" type="line"/>
      <point x="856" y="833"/>
      <point x="768" y="900"/>
    </contour>
  </outline>
</glyph>
<glyph name="uni018A" format="2">
  <advance width="1568"/>
  <unicode hex="018A"/>
  <outline>
    <contour>
      <point x="262" y="1110" type="curve"/>
      <point x="70" y="1110" type="line"/>
      <point x="70" y="1126"/>
      <point x="72" y="1143"/>
      <point x="75" y="1160" type="curve" smooth="yes"/>
      <point x="106" y="1338"/>
      <point x="283" y="1480"/>
      <point x="461" y="1480" type="curve" smooth="yes"/>
      <point x="476" y="1480"/>
      <point x="490" y="1479"/>
      <point x="504" y="1477" type="curve"/>
      <point x="474" y="1306" type="line"/>
      <point x="462" y="1310"/>
      <point x="447" y="1312"/>
      <point x="431" y="1312" type="curve" smooth="yes"/>
      <point x="341" y="1312"/>
      <point x="281" y="1250"/>
      <point x="265" y="1160" type="curve" smooth="yes"/>
      <point x="262" y="1142"/>
      <point x="260" y="1125"/>
    </contour>
    <contour>
      <point x="702" y="168" type="line" smooth="yes"/>
      <point x="1034" y="168"/>
      <point x="1290" y="516"/>
      <point x="1290" y="871" type="curve" smooth="yes"/>
      <point x="1290" y="1134"/>
      <point x="1136" y="1312"/>
      <point x="903" y="1312" type="curve" smooth="yes"/>
      <point x="621" y="1312" type="line"/>
      <point x="420" y="168" type="line"/>
    </contour>
    <contour>
      <point x="1483" y="908" type="curve" smooth="yes"/>
      <point x="1483" y="448"/>
      <point x="1155" y="0"/>
      <point x="672" y="0" type="curve" smooth="yes"/>
      <point x="200" y="0" type="line"/>
      <point x="461" y="1480" type="line"/>
      <point x="933" y="1480" type="line" smooth="yes"/>
      <point x="1263" y="1480"/>
      <point x="1483" y="1261"/>
    </contour>
  </outline>
</glyph>
<glyph name="uni018B" format="2">
  <advance width="1328"/>
  <unicode hex="018B"/>
  <outline>
    <contour>
      <point x="631" y="856" type="line" smooth="yes"/>
      <point x="246" y="856"/>
      <point x="39" y="594"/>
      <point x="39" y="357" type="curve" smooth="yes"/>
      <point x="39" y="150"/>
      <point x="210" y="0"/>
      <point x="480" y="0" type="curve" smooth="yes"/>
      <point x="1058" y="0" type="line"/>
      <point x="1319" y="1480" type="line"/>
      <point x="351" y="1480" type="line"/>
      <point x="321" y="1312" type="line"/>
      <point x="1099" y="1312" type="line"/>
      <point x="1019" y="856" type="line"/>
    </contour>
    <contour>
      <point x="232" y="385" type="curve" smooth="yes"/>
      <point x="232" y="541"/>
      <point x="364" y="696"/>
      <point x="603" y="696" type="curve" smooth="yes"/>
      <point x="991" y="696" type="line"/>
      <point x="898" y="168" type="line"/>
      <point x="510" y="168" type="line" smooth="yes"/>
      <point x="331" y="168"/>
      <point x="232" y="257"/>
    </contour>
  </outline>
</glyph>
<glyph name="uni018D" format="2">
  <advance width="1196"/>
  <unicode hex="018D"/>
  <outline>
    <contour>
      <point x="52" y="409" type="curve" smooth="yes"/>
      <point x="52" y="746"/>
      <point x="321" y="1060"/>
      <point x="655" y="1060" type="curve" smooth="yes"/>
      <point x="902" y="1060"/>
      <point x="1068" y="885"/>
      <point x="1068" y="631" type="curve" smooth="yes"/>
      <point x="1068" y="305"/>
      <point x="825" y="20"/>
      <point x="472" y="20" type="curve"/>
      <point x="493" y="140" type="line"/>
      <point x="733" y="140"/>
      <point x="886" y="384"/>
      <point x="886" y="611" type="curve" smooth="yes"/>
      <point x="886" y="782"/>
      <point x="790" y="900"/>
      <point x="627" y="900" type="curve" smooth="yes"/>
      <point x="387" y="900"/>
      <point x="234" y="656"/>
      <point x="234" y="429" type="curve" smooth="yes"/>
      <point x="234" y="258"/>
      <point x="330" y="140"/>
      <point x="493" y="140" type="curve"/>
      <point x="464" y="-20" type="line"/>
      <point x="218" y="-20"/>
      <point x="52" y="155"/>
    </contour>
    <contour>
      <point x="874" y="-113" type="curve" smooth="yes"/>
      <point x="874" y="-264"/>
      <point x="738" y="-460"/>
      <point x="308" y="-460" type="curve" smooth="yes"/>
      <point x="138" y="-460"/>
      <point x="8" y="-346"/>
      <point x="8" y="-346" type="curve"/>
      <point x="115" y="-205" type="line"/>
      <point x="115" y="-205"/>
      <point x="223" y="-311"/>
      <point x="373" y="-311" type="curve" smooth="yes"/>
      <point x="467" y="-311"/>
      <point x="692" y="-294"/>
      <point x="692" y="-132" type="curve" smooth="yes"/>
      <point x="692" y="-78"/>
      <point x="654" y="-20"/>
      <point x="464" y="-20" type="curve"/>
      <point x="493" y="140" type="line"/>
      <point x="764" y="140"/>
      <point x="874" y="20"/>
    </contour>
  </outline>
</glyph>
<glyph name="uni018E" format="2">
  <advance width="1208"/>
  <unicode hex="018E"/>
  <anchor x="470" y="-20" name="bottom_cedilla"/>
  <anchor x="474" y="0" name="bottom_center"/>
  <anchor x="717" y="1380" name="top_center"/>
  <outline>
    <contour>
      <point x="221" y="656" type="line"/>
      <point x="250" y="824" type="line"/>
      <point x="893" y="824" type="line"/>
      <point x="979" y="1312" type="line"/>
      <point x="241" y="1312" type="line"/>
      <point x="271" y="1480" type="line"/>
      <point x="1199" y="1480" type="line"/>
      <point x="938" y="0" type="line"/>
      <point x="10" y="0" type="line"/>
      <point x="40" y="168" type="line"/>
      <point x="778" y="168" type="line"/>
      <point x="864" y="656" type="line"/>
    </contour>
  </outline>
</glyph>
<glyph name="uni018F" format="2">
  <advance width="1538"/>
  <unicode hex="018F"/>
  <anchor x="774" y="0" name="bottom_right"/>
  <anchor x="603" y="-20" name="bottom_cedilla"/>
  <anchor x="607" y="0" name="bottom_center"/>
  <anchor x="850" y="1380" name="top_center"/>
  <outline>
    <contour>
      <point x="827" y="740" type="line" smooth="yes"/>
      <point x="612" y="740"/>
      <point x="266" y="694"/>
      <point x="266" y="398" type="curve" smooth="yes"/>
      <point x="266" y="251"/>
      <point x="405" y="148"/>
      <point x="633" y="148" type="curve" smooth="yes"/>
      <point x="993" y="148"/>
      <point x="1260" y="507"/>
      <point x="1260" y="875" type="curve" smooth="yes"/>
      <point x="1260" y="1151"/>
      <point x="1093" y="1332"/>
      <point x="842" y="1332" type="curve" smooth="yes"/>
      <point x="641" y="1332"/>
      <point x="428" y="1214"/>
      <point x="312" y="1027" type="curve"/>
      <point x="167" y="1119" type="line"/>
      <point x="326" y="1351"/>
      <point x="603" y="1500"/>
      <point x="871" y="1500" type="curve" smooth="yes"/>
      <point x="1218" y="1500"/>
      <point x="1451" y="1245"/>
      <point x="1451" y="886" type="curve" smooth="yes"/>
      <point x="1451" y="409"/>
      <point x="1073" y="-20"/>
      <point x="603" y="-20" type="curve" smooth="yes"/>
      <point x="280" y="-20"/>
      <point x="74" y="148"/>
      <point x="74" y="373" type="curve" smooth="yes"/>
      <point x="74" y="494"/>
      <point x="127" y="908"/>
      <point x="857" y="908" type="curve" smooth="yes"/>
      <point x="1372" y="908" type="line"/>
      <point x="1342" y="740" type="line"/>
    </contour>
  </outline>
</glyph>
<glyph name="uni0194" format="2">
  <advance width="1356"/>
  <unicode hex="0194"/>
  <outline>
    <contour>
      <point x="858" y="-83" type="curve" smooth="yes"/>
      <point x="858" y="-288"/>
      <point x="663" y="-460"/>
      <point x="467" y="-460" type="curve" smooth="yes"/>
      <point x="307" y="-460"/>
      <point x="188" y="-345"/>
      <point x="188" y="-193" type="curve" smooth="yes"/>
      <point x="188" y="-146"/>
      <point x="198" y="-77"/>
      <point x="250" y="0" type="curve" smooth="yes"/>
      <point x="521" y="402" type="line"/>
      <point x="201" y="1480" type="line"/>
      <point x="397" y="1480" type="line"/>
      <point x="654" y="599" type="line"/>
      <point x="1221" y="1480" type="line"/>
      <point x="1417" y="1480" type="line"/>
      <point x="717" y="402" type="line"/>
      <point x="846" y="0" type="line" smooth="yes"/>
      <point x="854" y="-26"/>
      <point x="858" y="-54"/>
    </contour>
    <contour>
      <point x="497" y="-292" type="curve" smooth="yes"/>
      <point x="610" y="-292"/>
      <point x="675" y="-198"/>
      <point x="675" y="-113" type="curve" smooth="yes"/>
      <point x="675" y="-77"/>
      <point x="667" y="-35"/>
      <point x="654" y="0" type="curve" smooth="yes"/>
      <point x="582" y="195" type="line"/>
      <point x="452" y="0" type="line" smooth="yes"/>
      <point x="428" y="-35"/>
      <point x="380" y="-105"/>
      <point x="380" y="-177" type="curve" smooth="yes"/>
      <point x="380" y="-247"/>
      <point x="420" y="-292"/>
    </contour>
  </outline>
</glyph>
<glyph name="uni0195" format="2">
  <advance width="1812"/>
  <unicode hex="0195"/>
  <outline>
    <contour>
      <point x="1686" y="689" type="curve" smooth="yes"/>
      <point x="1686" y="178"/>
      <point x="1390" y="-20"/>
      <point x="1140" y="-20" type="curve" smooth="yes"/>
      <point x="912" y="-20"/>
      <point x="775" y="79"/>
      <point x="775" y="320" type="curve" smooth="yes"/>
      <point x="775" y="365"/>
      <point x="780" y="413"/>
      <point x="789" y="468" type="curve" smooth="yes"/>
      <point x="807" y="572"/>
      <point x="807" y="572"/>
      <point x="807" y="572" type="curve" smooth="yes"/>
      <point x="815" y="615"/>
      <point x="818" y="653"/>
      <point x="818" y="687" type="curve" smooth="yes"/>
      <point x="818" y="829"/>
      <point x="752" y="900"/>
      <point x="607" y="900" type="curve" smooth="yes"/>
      <point x="427" y="900"/>
      <point x="330" y="791"/>
      <point x="291" y="572" type="curve" smooth="yes"/>
      <point x="190" y="0" type="line"/>
      <point x="10" y="0" type="line"/>
      <point x="271" y="1480" type="line"/>
      <point x="443" y="1480" type="line"/>
      <point x="344" y="920" type="line"/>
      <point x="444" y="1005"/>
      <point x="550" y="1060"/>
      <point x="675" y="1060" type="curve" smooth="yes"/>
      <point x="896" y="1060"/>
      <point x="1002" y="947"/>
      <point x="1002" y="730" type="curve" smooth="yes"/>
      <point x="1002" y="682"/>
      <point x="997" y="630"/>
      <point x="987" y="572" type="curve" smooth="yes"/>
      <point x="969" y="468"/>
      <point x="969" y="468"/>
      <point x="969" y="468" type="curve" smooth="yes"/>
      <point x="961" y="425"/>
      <point x="958" y="387"/>
      <point x="958" y="353" type="curve" smooth="yes"/>
      <point x="958" y="211"/>
      <point x="1024" y="140"/>
      <point x="1169" y="140" type="curve" smooth="yes"/>
      <point x="1417" y="140"/>
      <point x="1503" y="410"/>
      <point x="1503" y="652" type="curve" smooth="yes"/>
      <point x="1503" y="802"/>
      <point x="1460" y="891"/>
      <point x="1413" y="972" type="curve"/>
      <point x="1582" y="1060" type="line"/>
      <point x="1625" y="991"/>
      <point x="1686" y="887"/>
    </contour>
  </outline>
</glyph>
<glyph name="uni0196" format="2">
  <advance width="695"/>
  <unicode hex="0196"/>
  <anchor x="343" y="1380" name="top_center"/>
  <anchor x="350" y="0" name="bottom_center"/>
  <outline>
    <contour>
      <point x="243" y="300" type="line" smooth="yes"/>
      <point x="241" y="286"/>
      <point x="239" y="272"/>
      <point x="239" y="260" type="curve" smooth="yes"/>
      <point x="239" y="183"/>
      <point x="287" y="140"/>
      <point x="375" y="140" type="curve" smooth="yes"/>
      <point x="418" y="140"/>
      <point x="472" y="156"/>
      <point x="501" y="175" type="curve"/>
      <point x="517" y="12" type="line"/>
      <point x="469" y="-6"/>
      <point x="402" y="-20"/>
      <point x="346" y="-20" type="curve" smooth="yes"/>
      <point x="170" y="-20"/>
      <point x="57" y="74"/>
      <point x="57" y="233" type="curve" smooth="yes"/>
      <point x="57" y="254"/>
      <point x="59" y="276"/>
      <point x="63" y="300" type="curve" smooth="yes"/>
      <point x="271" y="1480" type="line"/>
      <point x="451" y="1480" type="line"/>
    </contour>
  </outline>
</glyph>
<glyph name="uni0197" format="2">
  <advance width="770"/>
  <unicode hex="0197"/>
  <anchor x="498" y="1380" name="top_center"/>
  <anchor x="255" y="0" name="bottom_center"/>
  <anchor x="350" y="0" name="bottom_right"/>
  <anchor x="251" y="-20" name="bottom_cedilla"/>
  <outline>
    <contour>
      <point x="706" y="656" type="line"/>
      <point x="36" y="656" type="line"/>
      <point x="65" y="824" type="line"/>
      <point x="735" y="824" type="line"/>
    </contour>
    <contour>
      <point x="253" y="1480" type="line"/>
      <point x="779" y="1480" type="line"/>
      <point x="749" y="1312" type="line"/>
      <point x="581" y="1312" type="line"/>
      <point x="380" y="168" type="line"/>
      <point x="548" y="168" type="line"/>
      <point x="518" y="0" type="line"/>
      <point x="-8" y="0" type="line"/>
      <point x="22" y="168" type="line"/>
      <point x="190" y="168" type="line"/>
      <point x="391" y="1312" type="line"/>
      <point x="223" y="1312" type="line"/>
    </contour>
  </outline>
</glyph>
<glyph name="uni0198" format="2">
  <advance width="1366"/>
  <unicode hex="0198"/>
  <outline>
    <contour>
      <point x="559" y="794" type="line"/>
      <point x="711" y="917" type="line"/>
      <point x="1166" y="0" type="line"/>
      <point x="952" y="0" type="line"/>
    </contour>
    <contour>
      <point x="218" y="1180" type="line"/>
      <point x="249" y="1358"/>
      <point x="426" y="1500"/>
      <point x="604" y="1500" type="curve" smooth="yes"/>
      <point x="619" y="1500"/>
      <point x="634" y="1499"/>
      <point x="648" y="1497" type="curve"/>
      <point x="618" y="1326" type="line"/>
      <point x="606" y="1330"/>
      <point x="591" y="1332"/>
      <point x="575" y="1332" type="curve" smooth="yes"/>
      <point x="485" y="1332"/>
      <point x="424" y="1270"/>
      <point x="408" y="1180" type="curve"/>
      <point x="329" y="730" type="line"/>
      <point x="1187" y="1480" type="line"/>
      <point x="1247" y="1480"/>
      <point x="1367" y="1480"/>
      <point x="1427" y="1480" type="curve"/>
      <point x="286" y="490" type="line"/>
      <point x="200" y="0" type="line"/>
      <point x="10" y="0" type="line"/>
    </contour>
  </outline>
</glyph>
<glyph name="uni019A" format="2">
  <advance width="670"/>
  <unicode hex="019A"/>
  <outline>
    <contour>
      <point x="656" y="660" type="line"/>
      <point x="-14" y="660" type="line"/>
      <point x="15" y="820" type="line"/>
      <point x="685" y="820" type="line"/>
    </contour>
    <contour>
      <point x="331" y="230" type="line" smooth="yes"/>
      <point x="329" y="221"/>
      <point x="328" y="213"/>
      <point x="328" y="205" type="curve" smooth="yes"/>
      <point x="328" y="162"/>
      <point x="354" y="140"/>
      <point x="405" y="140" type="curve" smooth="yes"/>
      <point x="421" y="140"/>
      <point x="447" y="149"/>
      <point x="460" y="156" type="curve"/>
      <point x="475" y="4" type="line"/>
      <point x="451" y="-9"/>
      <point x="408" y="-20"/>
      <point x="376" y="-20" type="curve" smooth="yes"/>
      <point x="229" y="-20"/>
      <point x="145" y="40"/>
      <point x="145" y="167" type="curve" smooth="yes"/>
      <point x="145" y="186"/>
      <point x="147" y="207"/>
      <point x="151" y="230" type="curve" smooth="yes"/>
      <point x="371" y="1480" type="line"/>
      <point x="551" y="1480" type="line"/>
    </contour>
  </outline>
</glyph>
<glyph name="uni019B" format="2">
  <advance width="1172"/>
  <unicode hex="019B"/>
  <outline>
    <contour>
      <point x="683" y="1279" type="line"/>
      <point x="821" y="1352" type="line"/>
      <point x="770" y="1480" type="line"/>
      <point x="631" y="1407" type="line"/>
      <point x="259" y="1212" type="line"/>
      <point x="310" y="1084" type="line"/>
    </contour>
    <contour>
      <point x="634" y="1357" type="line" smooth="yes"/>
      <point x="615" y="1461"/>
      <point x="538" y="1502"/>
      <point x="408" y="1502" type="curve" smooth="yes"/>
      <point x="376" y="1502"/>
      <point x="334" y="1493"/>
      <point x="310" y="1480" type="curve"/>
      <point x="325" y="1328" type="line"/>
      <point x="338" y="1335"/>
      <point x="364" y="1342"/>
      <point x="380" y="1342" type="curve" smooth="yes"/>
      <point x="424" y="1342"/>
      <point x="449" y="1325"/>
      <point x="455" y="1292" type="curve" smooth="yes"/>
      <point x="500" y="1016" type="line"/>
      <point x="-60" y="0" type="line"/>
      <point x="132" y="0" type="line"/>
      <point x="548" y="773" type="line"/>
      <point x="648" y="125" type="line" smooth="yes"/>
      <point x="667" y="21"/>
      <point x="744" y="-20"/>
      <point x="874" y="-20" type="curve" smooth="yes"/>
      <point x="906" y="-20"/>
      <point x="948" y="-13"/>
      <point x="972" y="0" type="curve"/>
      <point x="957" y="152" type="line"/>
      <point x="944" y="145"/>
      <point x="919" y="140"/>
      <point x="903" y="140" type="curve" smooth="yes"/>
      <point x="859" y="140"/>
      <point x="834" y="157"/>
      <point x="828" y="190" type="curve" smooth="yes"/>
    </contour>
  </outline>
</glyph>
<glyph name="uni01A3" format="2">
  <advance width="1496"/>
  <unicode hex="01A3"/>
  <outline>
    <contour>
      <point x="1376" y="969" type="curve"/>
      <point x="1229" y="1040" type="line"/>
      <point x="1160" y="966"/>
      <point x="1070" y="922"/>
      <point x="970" y="922" type="curve"/>
      <point x="941" y="762" type="line"/>
      <point x="1106" y="762"/>
      <point x="1262" y="841"/>
    </contour>
    <contour>
      <point x="968" y="-440" type="line"/>
      <point x="1148" y="-440" type="line"/>
      <point x="1409" y="1040" type="line"/>
      <point x="1229" y="1040" type="line"/>
    </contour>
    <contour>
      <point x="719" y="187" type="line"/>
      <point x="899" y="187" type="line"/>
      <point x="1016" y="853" type="line"/>
      <point x="836" y="853" type="line"/>
    </contour>
    <contour>
      <point x="655" y="1060" type="curve" smooth="yes"/>
      <point x="321" y="1060"/>
      <point x="52" y="746"/>
      <point x="52" y="409" type="curve" smooth="yes"/>
      <point x="52" y="155"/>
      <point x="218" y="-20"/>
      <point x="464" y="-20" type="curve" smooth="yes"/>
      <point x="629" y="-20"/>
      <point x="786" y="59"/>
      <point x="899" y="187" type="curve"/>
      <point x="788" y="302" type="line"/>
      <point x="716" y="202"/>
      <point x="612" y="140"/>
      <point x="493" y="140" type="curve" smooth="yes"/>
      <point x="330" y="140"/>
      <point x="234" y="258"/>
      <point x="234" y="429" type="curve" smooth="yes"/>
      <point x="234" y="656"/>
      <point x="387" y="900"/>
      <point x="627" y="900" type="curve" smooth="yes"/>
      <point x="760" y="900"/>
      <point x="848" y="822"/>
      <point x="876" y="700" type="curve"/>
      <point x="1016" y="853" type="line"/>
      <point x="948" y="981"/>
      <point x="820" y="1060"/>
    </contour>
  </outline>
</glyph>
<glyph name="uni01A4" format="2">
  <advance width="1378"/>
  <unicode hex="01A4"/>
  <outline>
    <contour>
      <point x="262" y="1110" type="curve"/>
      <point x="70" y="1110" type="line"/>
      <point x="70" y="1126"/>
      <point x="72" y="1143"/>
      <point x="75" y="1160" type="curve" smooth="yes"/>
      <point x="106" y="1338"/>
      <point x="283" y="1480"/>
      <point x="461" y="1480" type="curve" smooth="yes"/>
      <point x="476" y="1480"/>
      <point x="490" y="1479"/>
      <point x="504" y="1477" type="curve"/>
      <point x="474" y="1306" type="line"/>
      <point x="462" y="1310"/>
      <point x="447" y="1312"/>
      <point x="431" y="1312" type="curve" smooth="yes"/>
      <point x="341" y="1312"/>
      <point x="281" y="1250"/>
      <point x="265" y="1160" type="curve" smooth="yes"/>
      <point x="262" y="1142"/>
      <point x="260" y="1125"/>
    </contour>
    <contour>
      <point x="802" y="740" type="line" smooth="yes"/>
      <point x="997" y="740"/>
      <point x="1144" y="904"/>
      <point x="1144" y="1081" type="curve" smooth="yes"/>
      <point x="1144" y="1217"/>
      <point x="1049" y="1312"/>
      <point x="903" y="1312" type="curve" smooth="yes"/>
      <point x="621" y="1312" type="line"/>
      <point x="520" y="740" type="line"/>
    </contour>
    <contour>
      <point x="1336" y="1101" type="curve" smooth="yes"/>
      <point x="1336" y="820"/>
      <point x="1060" y="572"/>
      <point x="773" y="572" type="curve" smooth="yes"/>
      <point x="491" y="572" type="line"/>
      <point x="390" y="0" type="line"/>
      <point x="200" y="0" type="line"/>
      <point x="461" y="1480" type="line"/>
      <point x="933" y="1480" type="line" smooth="yes"/>
      <point x="1162" y="1480"/>
      <point x="1336" y="1319"/>
    </contour>
  </outline>
</glyph>
<glyph name="uni01A6" format="2">
  <advance width="1188"/>
  <unicode hex="01A6"/>
  <outline>
    <contour>
      <point x="449" y="449" type="line"/>
      <point x="601" y="572" type="line"/>
      <point x="968" y="-168" type="line"/>
      <point x="754" y="-168" type="line"/>
    </contour>
    <contour>
      <point x="583" y="572" type="line" smooth="yes"/>
      <point x="778" y="572"/>
      <point x="924" y="737"/>
      <point x="924" y="914" type="curve" smooth="yes"/>
      <point x="924" y="1050"/>
      <point x="830" y="1144"/>
      <point x="684" y="1144" type="curve" smooth="yes"/>
      <point x="402" y="1144" type="line"/>
      <point x="301" y="572" type="line"/>
    </contour>
    <contour>
      <point x="1116" y="933" type="curve" smooth="yes"/>
      <point x="1116" y="652"/>
      <point x="840" y="404"/>
      <point x="553" y="404" type="curve" smooth="yes"/>
      <point x="271" y="404" type="line"/>
      <point x="200" y="0" type="line"/>
      <point x="10" y="0" type="line"/>
      <point x="271" y="1480" type="line"/>
      <point x="461" y="1480" type="line"/>
      <point x="431" y="1312" type="line"/>
      <point x="713" y="1312" type="line" smooth="yes"/>
      <point x="942" y="1312"/>
      <point x="1116" y="1151"/>
    </contour>
  </outline>
</glyph>
<glyph name="uni01A7" format="2">
  <advance width="1220"/>
  <unicode hex="01A7"/>
  <anchor x="480" y="0" name="bottom_center"/>
  <anchor x="723" y="1380" name="top_center"/>
  <outline>
    <contour>
      <point x="715" y="1332" type="curve" smooth="yes"/>
      <point x="893" y="1332"/>
      <point x="951" y="1246"/>
      <point x="951" y="1142" type="curve" smooth="yes"/>
      <point x="951" y="1123"/>
      <point x="950" y="1104"/>
      <point x="946" y="1084" type="curve" smooth="yes"/>
      <point x="923" y="956"/>
      <point x="780" y="876"/>
      <point x="628" y="837" type="curve" smooth="yes"/>
      <point x="324" y="759"/>
      <point x="86" y="656"/>
      <point x="40" y="396" type="curve" smooth="yes"/>
      <point x="35" y="368"/>
      <point x="33" y="342"/>
      <point x="33" y="317" type="curve" smooth="yes"/>
      <point x="33" y="105"/>
      <point x="202" y="-20"/>
      <point x="476" y="-20" type="curve" smooth="yes"/>
      <point x="757" y="-20"/>
      <point x="991" y="158"/>
      <point x="1060" y="396" type="curve"/>
      <point x="883" y="446" type="line"/>
      <point x="855" y="289"/>
      <point x="707" y="148"/>
      <point x="506" y="148" type="curve" smooth="yes"/>
      <point x="311" y="148"/>
      <point x="226" y="231"/>
      <point x="226" y="348" type="curve" smooth="yes"/>
      <point x="226" y="363"/>
      <point x="227" y="380"/>
      <point x="230" y="396" type="curve" smooth="yes"/>
      <point x="255" y="537"/>
      <point x="393" y="601"/>
      <point x="595" y="653" type="curve" smooth="yes"/>
      <point x="899" y="731"/>
      <point x="1095" y="854"/>
      <point x="1136" y="1084" type="curve" smooth="yes"/>
      <point x="1141" y="1110"/>
      <point x="1143" y="1135"/>
      <point x="1143" y="1160" type="curve" smooth="yes"/>
      <point x="1143" y="1354"/>
      <point x="1002" y="1500"/>
      <point x="744" y="1500" type="curve" smooth="yes"/>
      <point x="463" y="1500"/>
      <point x="252" y="1332"/>
      <point x="183" y="1094" type="curve"/>
      <point x="361" y="1044" type="line"/>
      <point x="389" y="1201"/>
      <point x="514" y="1332"/>
    </contour>
  </outline>
</glyph>
<glyph name="uni01AA" format="2">
  <advance width="919"/>
  <unicode hex="01AA"/>
  <outline>
    <contour>
      <point x="193" y="1266" type="curve" smooth="yes"/>
      <point x="193" y="1408"/>
      <point x="313" y="1500"/>
      <point x="443" y="1500" type="curve" smooth="yes"/>
      <point x="573" y="1500"/>
      <point x="692" y="1408"/>
      <point x="692" y="1266" type="curve" smooth="yes"/>
      <point x="692" y="1124"/>
      <point x="573" y="1032"/>
      <point x="443" y="1032" type="curve" smooth="yes"/>
      <point x="313" y="1032"/>
      <point x="193" y="1124"/>
    </contour>
    <contour>
      <point x="384" y="1266" type="curve" smooth="yes"/>
      <point x="384" y="1230"/>
      <point x="407" y="1201"/>
      <point x="443" y="1201" type="curve" smooth="yes"/>
      <point x="479" y="1201"/>
      <point x="502" y="1230"/>
      <point x="502" y="1266" type="curve" smooth="yes"/>
      <point x="502" y="1302"/>
      <point x="480" y="1331"/>
      <point x="444" y="1331" type="curve" smooth="yes"/>
      <point x="408" y="1331"/>
      <point x="384" y="1302"/>
    </contour>
    <contour>
      <point x="523" y="308" type="line" smooth="yes"/>
      <point x="520" y="292"/>
      <point x="519" y="277"/>
      <point x="519" y="263" type="curve" smooth="yes"/>
      <point x="519" y="189"/>
      <point x="559" y="148"/>
      <point x="645" y="148" type="curve" smooth="yes"/>
      <point x="688" y="148"/>
      <point x="742" y="164"/>
      <point x="771" y="183" type="curve"/>
      <point x="786" y="12" type="line"/>
      <point x="738" y="-6"/>
      <point x="671" y="-20"/>
      <point x="615" y="-20" type="curve" smooth="yes"/>
      <point x="439" y="-20"/>
      <point x="327" y="80"/>
      <point x="327" y="240" type="curve" smooth="yes"/>
      <point x="327" y="261"/>
      <point x="329" y="284"/>
      <point x="333" y="308" type="curve" smooth="yes"/>
      <point x="476" y="1116" type="line"/>
      <point x="689" y="1228" type="line"/>
    </contour>
  </outline>
</glyph>
<glyph name="uni01AB" format="2">
  <advance width="770"/>
  <unicode hex="01AB"/>
  <outline>
    <contour>
      <point x="560" y="0" type="line"/>
      <point x="528" y="-181"/>
      <point x="351" y="-323"/>
      <point x="173" y="-323" type="curve" smooth="yes"/>
      <point x="158" y="-323"/>
      <point x="144" y="-322"/>
      <point x="130" y="-320" type="curve"/>
      <point x="158" y="-157" type="line"/>
      <point x="170" y="-161"/>
      <point x="185" y="-163"/>
      <point x="201" y="-163" type="curve" smooth="yes"/>
      <point x="291" y="-163"/>
      <point x="364" y="-93"/>
      <point x="380" y="0" type="curve"/>
    </contour>
    <contour>
      <point x="173" y="1028" type="line"/>
      <point x="263" y="1028"/>
      <point x="334" y="1092"/>
      <point x="350" y="1182" type="curve"/>
      <point x="375" y="1320" type="line"/>
      <point x="543" y="1320" type="line"/>
      <point x="493" y="1040" type="line"/>
      <point x="773" y="1040" type="line"/>
      <point x="745" y="880" type="line"/>
      <point x="465" y="880" type="line"/>
      <point x="363" y="300" type="line" smooth="yes"/>
      <point x="361" y="286"/>
      <point x="359" y="272"/>
      <point x="359" y="260" type="curve" smooth="yes"/>
      <point x="359" y="183"/>
      <point x="407" y="140"/>
      <point x="495" y="140" type="curve" smooth="yes"/>
      <point x="538" y="140"/>
      <point x="592" y="156"/>
      <point x="621" y="175" type="curve"/>
      <point x="637" y="12" type="line"/>
      <point x="589" y="-6"/>
      <point x="522" y="-20"/>
      <point x="466" y="-20" type="curve" smooth="yes"/>
      <point x="290" y="-20"/>
      <point x="177" y="74"/>
      <point x="177" y="233" type="curve" smooth="yes"/>
      <point x="177" y="254"/>
      <point x="179" y="277"/>
      <point x="183" y="300" type="curve" smooth="yes"/>
      <point x="285" y="880" type="line"/>
      <point x="75" y="880" type="line"/>
      <point x="101" y="1028" type="line"/>
    </contour>
  </outline>
</glyph>
<glyph name="uni01AC" format="2">
  <advance width="1398"/>
  <unicode hex="01AC"/>
  <outline>
    <contour>
      <point x="262" y="1110" type="curve"/>
      <point x="70" y="1110" type="line"/>
      <point x="70" y="1126"/>
      <point x="72" y="1143"/>
      <point x="75" y="1160" type="curve" smooth="yes"/>
      <point x="106" y="1338"/>
      <point x="283" y="1480"/>
      <point x="461" y="1480" type="curve"/>
      <point x="431" y="1312" type="line"/>
      <point x="341" y="1312"/>
      <point x="281" y="1250"/>
      <point x="265" y="1160" type="curve" smooth="yes"/>
      <point x="262" y="1142"/>
      <point x="260" y="1125"/>
    </contour>
    <contour>
      <point x="664" y="0" type="line"/>
      <point x="474" y="0" type="line"/>
      <point x="705" y="1312" type="line"/>
      <point x="431" y="1312" type="line"/>
      <point x="461" y="1480" type="line"/>
      <point x="1389" y="1480" type="line"/>
      <point x="1359" y="1312" type="line"/>
      <point x="895" y="1312" type="line"/>
    </contour>
  </outline>
</glyph>
<glyph name="uni01AD" format="2">
  <advance width="770"/>
  <unicode hex="01AD"/>
  <outline>
    <contour>
      <point x="375" y="1320" type="line"/>
      <point x="407" y="1501"/>
      <point x="574" y="1653"/>
      <point x="752" y="1653" type="curve" smooth="yes"/>
      <point x="767" y="1653"/>
      <point x="782" y="1652"/>
      <point x="796" y="1650" type="curve"/>
      <point x="767" y="1487" type="line"/>
      <point x="755" y="1491"/>
      <point x="740" y="1493"/>
      <point x="724" y="1493" type="curve" smooth="yes"/>
      <point x="634" y="1493"/>
      <point x="559" y="1413"/>
      <point x="543" y="1320" type="curve"/>
      <point x="493" y="1040" type="line"/>
      <point x="773" y="1040" type="line"/>
      <point x="745" y="880" type="line"/>
      <point x="465" y="880" type="line"/>
      <point x="363" y="300" type="line" smooth="yes"/>
      <point x="361" y="286"/>
      <point x="359" y="272"/>
      <point x="359" y="260" type="curve" smooth="yes"/>
      <point x="359" y="183"/>
      <point x="407" y="140"/>
      <point x="495" y="140" type="curve" smooth="yes"/>
      <point x="538" y="140"/>
      <point x="592" y="156"/>
      <point x="621" y="175" type="curve"/>
      <point x="637" y="12" type="line"/>
      <point x="589" y="-6"/>
      <point x="522" y="-20"/>
      <point x="466" y="-20" type="curve" smooth="yes"/>
      <point x="290" y="-20"/>
      <point x="177" y="74"/>
      <point x="177" y="233" type="curve" smooth="yes"/>
      <point x="177" y="254"/>
      <point x="179" y="277"/>
      <point x="183" y="300" type="curve" smooth="yes"/>
      <point x="285" y="880" type="line"/>
      <point x="75" y="880" type="line"/>
      <point x="101" y="1028" type="line"/>
      <point x="173" y="1028" type="line"/>
      <point x="263" y="1028"/>
      <point x="334" y="1092"/>
      <point x="350" y="1182" type="curve"/>
    </contour>
  </outline>
</glyph>
<glyph name="uni01B1" format="2">
  <advance width="1602"/>
  <unicode hex="01B1"/>
  <anchor x="671" y="0" name="bottom_center"/>
  <anchor x="914" y="1380" name="top_center"/>
  <outline>
    <contour>
      <point x="1633" y="1480" type="line"/>
      <point x="1603" y="1312" type="line"/>
      <point x="1042" y="1312" type="line"/>
      <point x="1072" y="1480" type="line"/>
    </contour>
    <contour>
      <point x="231" y="1480" type="line"/>
      <point x="792" y="1480" type="line"/>
      <point x="762" y="1312" type="line"/>
      <point x="201" y="1312" type="line"/>
    </contour>
    <contour>
      <point x="1324" y="874" type="curve" smooth="yes"/>
      <point x="1324" y="1097"/>
      <point x="1216" y="1257"/>
      <point x="1042" y="1312" type="curve"/>
      <point x="1364" y="1312" type="line"/>
      <point x="1457" y="1205"/>
      <point x="1515" y="1057"/>
      <point x="1515" y="884" type="curve" smooth="yes"/>
      <point x="1515" y="431"/>
      <point x="1143" y="-20"/>
      <point x="667" y="-20" type="curve"/>
      <point x="697" y="148" type="line"/>
      <point x="1056" y="148"/>
      <point x="1324" y="505"/>
    </contour>
    <contour>
      <point x="86" y="585" type="curve" smooth="yes"/>
      <point x="86" y="703"/>
      <point x="116" y="1046"/>
      <point x="440" y="1312" type="curve"/>
      <point x="762" y="1312" type="line"/>
      <point x="462" y="1227"/>
      <point x="278" y="907"/>
      <point x="278" y="606" type="curve" smooth="yes"/>
      <point x="278" y="330"/>
      <point x="446" y="148"/>
      <point x="697" y="148" type="curve"/>
      <point x="667" y="-20" type="line"/>
      <point x="320" y="-20"/>
      <point x="86" y="228"/>
    </contour>
  </outline>
</glyph>
<glyph name="uni01B3" format="2">
  <advance width="1486"/>
  <unicode hex="01B3"/>
  <outline>
    <contour>
      <point x="1497" y="1283" type="line"/>
      <point x="1489" y="1293"/>
      <point x="1479" y="1302"/>
      <point x="1466" y="1310" type="curve" smooth="yes"/>
      <point x="1444" y="1325"/>
      <point x="1421" y="1331"/>
      <point x="1397" y="1331" type="curve" smooth="yes"/>
      <point x="1348" y="1331"/>
      <point x="1297" y="1301"/>
      <point x="1258" y="1248" type="curve"/>
      <point x="1121" y="1343" type="line"/>
      <point x="1198" y="1445"/>
      <point x="1305" y="1500"/>
      <point x="1416" y="1500" type="curve" smooth="yes"/>
      <point x="1473" y="1500"/>
      <point x="1529" y="1485"/>
      <point x="1576" y="1455" type="curve" smooth="yes"/>
      <point x="1588" y="1448"/>
      <point x="1598" y="1440"/>
      <point x="1608" y="1431" type="curve"/>
    </contour>
    <contour>
      <point x="471" y="0" type="line"/>
      <point x="601" y="740" type="line"/>
      <point x="791" y="740" type="line"/>
      <point x="661" y="0" type="line"/>
    </contour>
    <contour>
      <point x="736" y="628" type="line"/>
      <point x="608" y="666" type="line"/>
      <point x="201" y="1480" type="line"/>
      <point x="415" y="1480" type="line"/>
      <point x="717" y="858" type="line"/>
      <point x="1121" y="1343" type="line"/>
      <point x="1258" y="1248" type="line"/>
    </contour>
  </outline>
</glyph>
<glyph name="uni01B4" format="2">
  <advance width="1184"/>
  <unicode hex="01B4"/>
  <outline>
    <contour>
      <point x="1167" y="877" type="line"/>
      <point x="1156" y="884"/>
      <point x="1143" y="890"/>
      <point x="1129" y="894" type="curve" smooth="yes"/>
      <point x="1116" y="898"/>
      <point x="1102" y="900"/>
      <point x="1089" y="900" type="curve" smooth="yes"/>
      <point x="1020" y="900"/>
      <point x="954" y="850"/>
      <point x="921" y="775" type="curve"/>
      <point x="762" y="822" type="line"/>
      <point x="827" y="968"/>
      <point x="970" y="1060"/>
      <point x="1113" y="1060" type="curve" smooth="yes"/>
      <point x="1142" y="1060"/>
      <point x="1169" y="1057"/>
      <point x="1197" y="1049" type="curve" smooth="yes"/>
      <point x="1210" y="1045"/>
      <point x="1224" y="1040"/>
      <point x="1236" y="1034" type="curve"/>
    </contour>
    <contour>
      <point x="377" y="-255" type="line"/>
      <point x="309" y="-385"/>
      <point x="182" y="-460"/>
      <point x="24" y="-460" type="curve" smooth="yes"/>
      <point x="-32" y="-460"/>
      <point x="-93" y="-446"/>
      <point x="-135" y="-428" type="curve"/>
      <point x="-62" y="-265" type="line"/>
      <point x="-39" y="-284"/>
      <point x="9" y="-300"/>
      <point x="52" y="-300" type="curve" smooth="yes"/>
      <point x="129" y="-300"/>
      <point x="187" y="-267"/>
      <point x="219" y="-206" type="curve"/>
      <point x="328" y="0" type="line"/>
      <point x="146" y="1040" type="line"/>
      <point x="335" y="1040" type="line"/>
      <point x="459" y="224" type="line"/>
      <point x="762" y="822" type="line"/>
      <point x="921" y="775" type="line"/>
      <point x="512" y="0" type="line"/>
    </contour>
  </outline>
</glyph>
<glyph name="uni01B7" format="2">
  <advance width="1222"/>
  <unicode hex="01B7"/>
  <anchor x="723" y="1380" name="top_center"/>
  <anchor x="480" y="0" name="bottom_center"/>
  <outline>
    <contour>
      <point x="640" y="740" type="line"/>
      <point x="533" y="840" type="line"/>
      <point x="964" y="1312" type="line"/>
      <point x="1181" y="1328" type="line"/>
    </contour>
    <contour>
      <point x="1072" y="487" type="curve" smooth="yes"/>
      <point x="1072" y="238"/>
      <point x="820" y="-20"/>
      <point x="476" y="-20" type="curve" smooth="yes"/>
      <point x="206" y="-20"/>
      <point x="39" y="144"/>
      <point x="39" y="367" type="curve" smooth="yes"/>
      <point x="39" y="377"/>
      <point x="39" y="386"/>
      <point x="40" y="396" type="curve"/>
      <point x="236" y="446" type="line"/>
      <point x="233" y="428"/>
      <point x="231" y="411"/>
      <point x="231" y="394" type="curve" smooth="yes"/>
      <point x="231" y="260"/>
      <point x="328" y="148"/>
      <point x="506" y="148" type="curve" smooth="yes"/>
      <point x="744" y="148"/>
      <point x="881" y="311"/>
      <point x="881" y="472" type="curve" smooth="yes"/>
      <point x="881" y="603"/>
      <point x="781" y="696"/>
      <point x="603" y="696" type="curve" smooth="yes"/>
      <point x="508" y="696" type="line"/>
      <point x="533" y="840" type="line"/>
      <point x="533" y="840"/>
      <point x="561" y="856"/>
      <point x="631" y="856" type="curve" smooth="yes"/>
      <point x="888" y="856"/>
      <point x="1072" y="696"/>
    </contour>
    <contour>
      <point x="303" y="1480" type="line"/>
      <point x="1208" y="1480" type="line"/>
      <point x="1181" y="1328" type="line"/>
      <point x="1004" y="1312" type="line"/>
      <point x="273" y="1312" type="line"/>
    </contour>
  </outline>
</glyph>
<glyph name="uni01B8" format="2">
  <advance width="1222"/>
  <unicode hex="01B8"/>
  <outline>
    <contour>
      <point x="582" y="740" type="line"/>
      <point x="725" y="840" type="line"/>
      <point x="460" y="1312" type="line"/>
      <point x="249" y="1328" type="line"/>
    </contour>
    <contour>
      <point x="633" y="856" type="curve" smooth="yes"/>
      <point x="329" y="856"/>
      <point x="38" y="631"/>
      <point x="38" y="351" type="curve" smooth="yes"/>
      <point x="38" y="142"/>
      <point x="208" y="-20"/>
      <point x="478" y="-20" type="curve" smooth="yes"/>
      <point x="759" y="-20"/>
      <point x="993" y="158"/>
      <point x="1062" y="396" type="curve"/>
      <point x="884" y="446" type="line"/>
      <point x="856" y="290"/>
      <point x="708" y="148"/>
      <point x="508" y="148" type="curve" smooth="yes"/>
      <point x="330" y="148"/>
      <point x="229" y="241"/>
      <point x="229" y="372" type="curve" smooth="yes"/>
      <point x="229" y="533"/>
      <point x="368" y="696"/>
      <point x="605" y="696" type="curve" smooth="yes"/>
      <point x="700" y="696" type="line"/>
      <point x="725" y="840" type="line"/>
      <point x="725" y="840"/>
      <point x="703" y="856"/>
    </contour>
    <contour>
      <point x="1181" y="1480" type="line"/>
      <point x="276" y="1480" type="line"/>
      <point x="249" y="1328" type="line"/>
      <point x="420" y="1312" type="line"/>
      <point x="1151" y="1312" type="line"/>
    </contour>
  </outline>
</glyph>
<glyph name="uni01BC" format="2">
  <advance width="1299"/>
  <unicode hex="01BC"/>
  <outline>
    <contour>
      <point x="571" y="148" type="curve" smooth="yes"/>
      <point x="793" y="148"/>
      <point x="959" y="341"/>
      <point x="959" y="553" type="curve" smooth="yes"/>
      <point x="959" y="717"/>
      <point x="847" y="818"/>
      <point x="690" y="818" type="curve" smooth="yes"/>
      <point x="534" y="818"/>
      <point x="440" y="763"/>
      <point x="367" y="668" type="curve"/>
      <point x="260" y="701" type="line"/>
      <point x="375" y="858"/>
      <point x="487" y="986"/>
      <point x="720" y="986" type="curve" smooth="yes"/>
      <point x="971" y="986"/>
      <point x="1151" y="818"/>
      <point x="1151" y="575" type="curve" smooth="yes"/>
      <point x="1151" y="257"/>
      <point x="865" y="-20"/>
      <point x="541" y="-20" type="curve" smooth="yes"/>
      <point x="271" y="-20"/>
      <point x="104" y="144"/>
      <point x="104" y="367" type="curve" smooth="yes"/>
      <point x="104" y="377"/>
      <point x="104" y="386"/>
      <point x="105" y="396" type="curve"/>
      <point x="301" y="446" type="line"/>
      <point x="298" y="428"/>
      <point x="296" y="411"/>
      <point x="296" y="394" type="curve" smooth="yes"/>
      <point x="296" y="260"/>
      <point x="393" y="148"/>
    </contour>
    <contour>
      <point x="421" y="1424" type="line"/>
      <point x="601" y="1424" type="line"/>
      <point x="381" y="751" type="line"/>
      <point x="260" y="701" type="line"/>
      <point x="197" y="720" type="line"/>
    </contour>
    <contour>
      <point x="171" y="1312" type="line"/>
      <point x="201" y="1480" type="line"/>
      <point x="1247" y="1480" type="line"/>
      <point x="1217" y="1312" type="line"/>
    </contour>
  </outline>
</glyph>
<glyph name="uni01BF" format="2">
  <advance width="1156"/>
  <unicode hex="01BF"/>
  <outline>
    <contour>
      <point x="55" y="0" type="line"/>
      <point x="534" y="0"/>
      <point x="821" y="362"/>
      <point x="821" y="704" type="curve" smooth="yes"/>
      <point x="821" y="835"/>
      <point x="763" y="900"/>
      <point x="607" y="900" type="curve" smooth="yes"/>
      <point x="427" y="900"/>
      <point x="330" y="791"/>
      <point x="291" y="572" type="curve" smooth="yes"/>
      <point x="112" y="-440" type="line"/>
      <point x="-68" y="-440" type="line"/>
      <point x="193" y="1040" type="line"/>
      <point x="361" y="1040" type="line"/>
      <point x="340" y="920" type="line"/>
      <point x="440" y="1005"/>
      <point x="550" y="1060"/>
      <point x="675" y="1060" type="curve" smooth="yes"/>
      <point x="896" y="1060"/>
      <point x="1002" y="947"/>
      <point x="1002" y="730" type="curve" smooth="yes"/>
      <point x="1002" y="255"/>
      <point x="575" y="-168"/>
      <point x="25" y="-168" type="curve"/>
    </contour>
  </outline>
</glyph>
<glyph name="uni01F7" format="2">
  <advance width="1352"/>
  <unicode hex="01F7"/>
  <outline>
    <contour>
      <point x="1087" y="880" type="curve" smooth="yes"/>
      <point x="1099" y="946"/>
      <point x="1104" y="1003"/>
      <point x="1104" y="1053" type="curve" smooth="yes"/>
      <point x="1104" y="1253"/>
      <point x="1009" y="1332"/>
      <point x="801" y="1332" type="curve" smooth="yes"/>
      <point x="541" y="1332"/>
      <point x="405" y="1164"/>
      <point x="354" y="874" type="curve" smooth="yes"/>
      <point x="122" y="-440" type="line"/>
      <point x="-68" y="-440" type="line"/>
      <point x="271" y="1480" type="line"/>
      <point x="449" y="1480" type="line"/>
      <point x="419" y="1310" type="line"/>
      <point x="551" y="1480"/>
      <point x="745" y="1500"/>
      <point x="870" y="1500" type="curve" smooth="yes"/>
      <point x="1145" y="1500"/>
      <point x="1295" y="1354"/>
      <point x="1295" y="1067" type="curve" smooth="yes"/>
      <point x="1295" y="1010"/>
      <point x="1289" y="948"/>
      <point x="1277" y="880" type="curve" smooth="yes"/>
      <point x="1205" y="470"/>
      <point x="725" y="2"/>
      <point x="55" y="2" type="curve"/>
      <point x="86" y="178" type="line"/>
      <point x="656" y="178"/>
      <point x="1029" y="550"/>
    </contour>
  </outline>
</glyph>
<glyph name="uni0222" format="2">
  <advance width="1312"/>
  <unicode hex="0222"/>
  <outline>
    <contour>
      <point x="719" y="1354" type="line"/>
      <point x="378" y="1354"/>
      <point x="191" y="1163"/>
      <point x="191" y="992" type="curve" smooth="yes"/>
      <point x="191" y="909"/>
      <point x="244" y="819"/>
      <point x="323" y="781" type="curve"/>
      <point x="273" y="754"/>
      <point x="37" y="614"/>
      <point x="37" y="343" type="curve" smooth="yes"/>
      <point x="37" y="136"/>
      <point x="199" y="-20"/>
      <point x="521" y="-20" type="curve" smooth="yes"/>
      <point x="944" y="-20"/>
      <point x="1162" y="246"/>
      <point x="1162" y="490" type="curve" smooth="yes"/>
      <point x="1162" y="611"/>
      <point x="1105" y="715"/>
      <point x="1003" y="781" type="curve"/>
      <point x="1121" y="852"/>
      <point x="1239" y="986"/>
      <point x="1239" y="1189" type="curve" smooth="yes"/>
      <point x="1239" y="1379"/>
      <point x="1116" y="1502"/>
      <point x="835" y="1502" type="curve"/>
      <point x="805" y="1334" type="line"/>
      <point x="989" y="1334"/>
      <point x="1047" y="1272"/>
      <point x="1047" y="1166" type="curve" smooth="yes"/>
      <point x="1047" y="965"/>
      <point x="908" y="856"/>
      <point x="676" y="856" type="curve" smooth="yes"/>
      <point x="472" y="856"/>
      <point x="383" y="923"/>
      <point x="383" y="1007" type="curve" smooth="yes"/>
      <point x="383" y="1095"/>
      <point x="467" y="1186"/>
      <point x="689" y="1186" type="curve"/>
    </contour>
    <contour>
      <point x="230" y="374" type="curve" smooth="yes"/>
      <point x="230" y="527"/>
      <point x="358" y="696"/>
      <point x="648" y="696" type="curve" smooth="yes"/>
      <point x="863" y="696"/>
      <point x="970" y="602"/>
      <point x="970" y="470" type="curve" smooth="yes"/>
      <point x="970" y="317"/>
      <point x="840" y="148"/>
      <point x="551" y="148" type="curve" smooth="yes"/>
      <point x="336" y="148"/>
      <point x="230" y="242"/>
    </contour>
  </outline>
</glyph>
<glyph name="uni0224" format="2">
  <advance width="1300"/>
  <unicode hex="0224"/>
  <outline>
    <contour>
      <point x="630" y="-146" type="line"/>
      <point x="642" y="-150"/>
      <point x="657" y="-152"/>
      <point x="673" y="-152" type="curve" smooth="yes"/>
      <point x="763" y="-152"/>
      <point x="824" y="-90"/>
      <point x="840" y="0" type="curve"/>
      <point x="1030" y="0" type="line"/>
      <point x="999" y="-178"/>
      <point x="822" y="-320"/>
      <point x="644" y="-320" type="curve" smooth="yes"/>
      <point x="629" y="-320"/>
      <point x="614" y="-319"/>
      <point x="600" y="-317" type="curve"/>
    </contour>
    <contour>
      <point x="112" y="0" type="line"/>
      <point x="37" y="152" type="line"/>
      <point x="1169" y="1480" type="line"/>
      <point x="1244" y="1328" type="line"/>
    </contour>
    <contour>
      <point x="225" y="168" type="line"/>
      <point x="1060" y="168" type="line"/>
      <point x="1030" y="0" type="line"/>
      <point x="10" y="0" type="line"/>
      <point x="37" y="152" type="line"/>
    </contour>
    <contour>
      <point x="1075" y="1312" type="line"/>
      <point x="261" y="1312" type="line"/>
      <point x="291" y="1480" type="line"/>
      <point x="1271" y="1480" type="line"/>
      <point x="1244" y="1328" type="line"/>
    </contour>
  </outline>
</glyph>
<glyph name="uni0225" format="2">
  <advance width="1020"/>
  <unicode hex="0225"/>
  <outline>
    <contour>
      <point x="348" y="-157" type="line"/>
      <point x="360" y="-161"/>
      <point x="375" y="-163"/>
      <point x="391" y="-163" type="curve" smooth="yes"/>
      <point x="481" y="-163"/>
      <point x="554" y="-93"/>
      <point x="570" y="0" type="curve"/>
      <point x="750" y="0" type="line"/>
      <point x="718" y="-181"/>
      <point x="541" y="-323"/>
      <point x="363" y="-323" type="curve" smooth="yes"/>
      <point x="348" y="-323"/>
      <point x="334" y="-322"/>
      <point x="320" y="-320" type="curve"/>
    </contour>
    <contour>
      <point x="193" y="1040" type="line"/>
      <point x="165" y="880" type="line"/>
      <point x="781" y="880" type="line"/>
      <point x="908" y="896" type="line"/>
      <point x="933" y="1040" type="line"/>
    </contour>
    <contour>
      <point x="778" y="160" type="line"/>
      <point x="162" y="160" type="line"/>
      <point x="35" y="144" type="line"/>
      <point x="10" y="0" type="line"/>
      <point x="750" y="0" type="line"/>
    </contour>
    <contour>
      <point x="242" y="160" type="line"/>
      <point x="908" y="896" type="line"/>
      <point x="701" y="880" type="line"/>
      <point x="35" y="144" type="line"/>
    </contour>
  </outline>
</glyph>
<glyph name="uni0236" format="2">
  <advance width="804"/>
  <unicode hex="0236"/>
  <outline>
    <contour>
      <point x="664" y="250" type="curve" smooth="yes"/>
      <point x="664" y="103"/>
      <point x="541" y="-20"/>
      <point x="380" y="-20" type="curve" smooth="yes"/>
      <point x="264" y="-20"/>
      <point x="176" y="47"/>
      <point x="176" y="162" type="curve" smooth="yes"/>
      <point x="176" y="171"/>
      <point x="176" y="176"/>
      <point x="185" y="230" type="curve"/>
      <point x="190" y="259" type="line"/>
      <point x="299" y="880" type="line"/>
      <point x="89" y="880" type="line"/>
      <point x="115" y="1028" type="line"/>
      <point x="187" y="1028" type="line" smooth="yes"/>
      <point x="277" y="1028"/>
      <point x="348" y="1092"/>
      <point x="364" y="1182" type="curve" smooth="yes"/>
      <point x="389" y="1320" type="line"/>
      <point x="557" y="1320" type="line"/>
      <point x="507" y="1040" type="line"/>
      <point x="787" y="1040" type="line"/>
      <point x="759" y="880" type="line"/>
      <point x="479" y="880" type="line"/>
      <point x="359" y="194"/>
      <point x="359" y="194"/>
      <point x="359" y="193" type="curve" smooth="yes"/>
      <point x="359" y="163"/>
      <point x="377" y="140"/>
      <point x="409" y="140" type="curve" smooth="yes"/>
      <point x="450" y="140"/>
      <point x="481" y="179"/>
      <point x="481" y="219" type="curve" smooth="yes"/>
      <point x="481" y="249"/>
      <point x="463" y="272"/>
      <point x="432" y="272" type="curve" smooth="yes"/>
      <point x="212" y="272"/>
      <point x="38" y="-197"/>
      <point x="38" y="-197" type="curve"/>
      <point x="-99" y="-109" type="line"/>
      <point x="-99" y="-109"/>
      <point x="100" y="432"/>
      <point x="460" y="432" type="curve" smooth="yes"/>
      <point x="576" y="432"/>
      <point x="664" y="365"/>
    </contour>
  </outline>
</glyph>
<glyph name="uni0237" format="2">
  <advance width="460"/>
  <unicode hex="0237"/>
  <anchor x="283" y="1040" name="top_center"/>
  <anchor x="-23" y="-360" name="bottom_center"/>
  <outline>
    <contour>
      <point x="153" y="-210" type="line" smooth="yes"/>
      <point x="123" y="-380"/>
      <point x="9" y="-460"/>
      <point x="-161" y="-460" type="curve" smooth="yes"/>
      <point x="-193" y="-460"/>
      <point x="-231" y="-449"/>
      <point x="-251" y="-436" type="curve"/>
      <point x="-182" y="-284" type="line"/>
      <point x="-171" y="-291"/>
      <point x="-149" y="-300"/>
      <point x="-133" y="-300" type="curve" smooth="yes"/>
      <point x="-73" y="-300"/>
      <point x="-38" y="-270"/>
      <point x="-27" y="-210" type="curve" smooth="yes"/>
      <point x="193" y="1040" type="line"/>
      <point x="373" y="1040" type="line"/>
    </contour>
  </outline>
</glyph>
<glyph name="uni023D" format="2">
  <advance width="1278"/>
  <unicode hex="023D"/>
  <outline>
    <contour>
      <point x="656" y="656" type="line"/>
      <point x="-14" y="656" type="line"/>
      <point x="15" y="824" type="line"/>
      <point x="685" y="824" type="line"/>
    </contour>
    <contour>
      <point x="531" y="1480" type="line"/>
      <point x="300" y="168" type="line"/>
      <point x="1038" y="168" type="line"/>
      <point x="1008" y="0" type="line"/>
      <point x="80" y="0" type="line"/>
      <point x="341" y="1480" type="line"/>
    </contour>
  </outline>
</glyph>
<glyph name="uni0241" format="2">
  <advance width="1192"/>
  <unicode hex="0241"/>
  <outline>
    <contour>
      <point x="374" y="0" type="line"/>
      <point x="554" y="0" type="line"/>
      <point x="656" y="580" type="line"/>
      <point x="476" y="580" type="line"/>
    </contour>
    <contour>
      <point x="960" y="1057" type="curve" smooth="yes"/>
      <point x="960" y="820"/>
      <point x="804" y="580"/>
      <point x="566" y="580" type="curve"/>
      <point x="538" y="420" type="line"/>
      <point x="867" y="420"/>
      <point x="1142" y="726"/>
      <point x="1142" y="1079" type="curve" smooth="yes"/>
      <point x="1142" y="1328"/>
      <point x="988" y="1500"/>
      <point x="728" y="1500" type="curve" smooth="yes"/>
      <point x="458" y="1500"/>
      <point x="231" y="1306"/>
      <point x="152" y="1032" type="curve"/>
      <point x="318" y="978" type="line"/>
      <point x="361" y="1189"/>
      <point x="502" y="1340"/>
      <point x="700" y="1340" type="curve" smooth="yes"/>
      <point x="871" y="1340"/>
      <point x="960" y="1225"/>
    </contour>
  </outline>
</glyph>
<glyph name="uni0244" format="2">
  <advance width="1538"/>
  <unicode hex="0244"/>
  <anchor x="882" y="1380" name="top_center"/>
  <anchor x="1459" y="1480" name="top_right"/>
  <anchor x="639" y="0" name="bottom_center"/>
  <anchor x="801" y="0" name="bottom_right"/>
  <anchor x="635" y="-20" name="bottom_cedilla"/>
  <outline>
    <contour>
      <point x="1553" y="824" type="line"/>
      <point x="1524" y="656" type="line"/>
      <point x="-14" y="656" type="line"/>
      <point x="15" y="824" type="line"/>
    </contour>
    <contour>
      <point x="531" y="1480" type="line"/>
      <point x="376" y="600" type="line"/>
      <point x="369" y="558"/>
      <point x="365" y="517"/>
      <point x="365" y="478" type="curve" smooth="yes"/>
      <point x="365" y="287"/>
      <point x="457" y="148"/>
      <point x="665" y="148" type="curve" smooth="yes"/>
      <point x="915" y="148"/>
      <point x="1070" y="350"/>
      <point x="1114" y="600" type="curve"/>
      <point x="1269" y="1480" type="line"/>
      <point x="1459" y="1480" type="line"/>
      <point x="1304" y="600" type="line"/>
      <point x="1241" y="240"/>
      <point x="995" y="-20"/>
      <point x="635" y="-20" type="curve" smooth="yes"/>
      <point x="328" y="-20"/>
      <point x="172" y="169"/>
      <point x="172" y="448" type="curve" smooth="yes"/>
      <point x="172" y="496"/>
      <point x="177" y="547"/>
      <point x="186" y="600" type="curve"/>
      <point x="341" y="1480" type="line"/>
    </contour>
  </outline>
</glyph>
<glyph name="uni0248" format="2">
  <advance width="1237"/>
  <unicode hex="0248"/>
  <outline>
    <contour>
      <point x="250" y="491" type="line"/>
      <point x="241" y="462"/>
      <point x="231" y="416"/>
      <point x="231" y="364" type="curve" smooth="yes"/>
      <point x="231" y="229"/>
      <point x="307" y="148"/>
      <point x="460" y="148" type="curve" smooth="yes"/>
      <point x="640" y="148"/>
      <point x="754" y="260"/>
      <point x="786" y="440" type="curve" smooth="yes"/>
      <point x="969" y="1480" type="line"/>
      <point x="1159" y="1480" type="line"/>
      <point x="976" y="440" type="line" smooth="yes"/>
      <point x="928" y="170"/>
      <point x="700" y="-20"/>
      <point x="430" y="-20" type="curve" smooth="yes"/>
      <point x="192" y="-20"/>
      <point x="40" y="129"/>
      <point x="40" y="349" type="curve" smooth="yes"/>
      <point x="40" y="378"/>
      <point x="42" y="408"/>
      <point x="48" y="440" type="curve"/>
    </contour>
    <contour>
      <point x="1223" y="656" type="line"/>
      <point x="553" y="656" type="line"/>
      <point x="582" y="824" type="line"/>
      <point x="1252" y="824" type="line"/>
    </contour>
  </outline>
</glyph>
<glyph name="uni024A" format="2">
  <advance width="1686"/>
  <unicode hex="024A"/>
  <outline>
    <contour>
      <point x="1506" y="-286" type="curve"/>
      <point x="1475" y="-457" type="line"/>
      <point x="1461" y="-459"/>
      <point x="1446" y="-460"/>
      <point x="1431" y="-460" type="curve" smooth="yes"/>
      <point x="1271" y="-460"/>
      <point x="1152" y="-345"/>
      <point x="1152" y="-193" type="curve" smooth="yes"/>
      <point x="1152" y="-176"/>
      <point x="1154" y="-158"/>
      <point x="1157" y="-140" type="curve"/>
      <point x="1347" y="-140" type="line"/>
      <point x="1345" y="-153"/>
      <point x="1344" y="-165"/>
      <point x="1344" y="-177" type="curve" smooth="yes"/>
      <point x="1344" y="-247"/>
      <point x="1384" y="-292"/>
      <point x="1461" y="-292" type="curve" smooth="yes"/>
      <point x="1477" y="-292"/>
      <point x="1492" y="-290"/>
    </contour>
    <contour>
      <point x="1633" y="1480" type="line"/>
      <point x="1347" y="-140" type="line"/>
      <point x="1157" y="-140" type="line"/>
      <point x="1242" y="338" type="line"/>
      <point x="1294" y="406" type="line"/>
      <point x="1413" y="1086" type="line"/>
      <point x="1387" y="1162" type="line"/>
      <point x="1443" y="1480" type="line"/>
    </contour>
    <contour>
      <point x="906" y="1332" type="curve" smooth="yes"/>
      <point x="547" y="1332"/>
      <point x="278" y="975"/>
      <point x="278" y="606" type="curve" smooth="yes"/>
      <point x="278" y="330"/>
      <point x="446" y="148"/>
      <point x="697" y="148" type="curve" smooth="yes"/>
      <point x="1057" y="148"/>
      <point x="1324" y="507"/>
      <point x="1324" y="875" type="curve" smooth="yes"/>
      <point x="1324" y="1151"/>
      <point x="1157" y="1332"/>
    </contour>
    <contour>
      <point x="86" y="585" type="curve" smooth="yes"/>
      <point x="86" y="1061"/>
      <point x="467" y="1500"/>
      <point x="935" y="1500" type="curve" smooth="yes"/>
      <point x="1277" y="1500"/>
      <point x="1487" y="1259"/>
      <point x="1487" y="909" type="curve" smooth="yes"/>
      <point x="1487" y="443"/>
      <point x="1149" y="-20"/>
      <point x="667" y="-20" type="curve" smooth="yes"/>
      <point x="320" y="-20"/>
      <point x="86" y="228"/>
    </contour>
  </outline>
</glyph>
<glyph name="uni024B" format="2">
  <advance width="1238"/>
  <unicode hex="024B"/>
  <outline>
    <contour>
      <point x="1056" y="-294" type="curve"/>
      <point x="1027" y="-457" type="line"/>
      <point x="1013" y="-459"/>
      <point x="998" y="-460"/>
      <point x="983" y="-460" type="curve" smooth="yes"/>
      <point x="824" y="-460"/>
      <point x="705" y="-346"/>
      <point x="705" y="-192" type="curve" smooth="yes"/>
      <point x="705" y="-174"/>
      <point x="707" y="-156"/>
      <point x="710" y="-137" type="curve"/>
      <point x="890" y="-137" type="line"/>
      <point x="888" y="-149"/>
      <point x="887" y="-161"/>
      <point x="887" y="-172" type="curve" smooth="yes"/>
      <point x="887" y="-247"/>
      <point x="933" y="-300"/>
      <point x="1011" y="-300" type="curve" smooth="yes"/>
      <point x="1027" y="-300"/>
      <point x="1042" y="-298"/>
    </contour>
    <contour>
      <point x="473" y="140" type="curve" smooth="yes"/>
      <point x="718" y="140"/>
      <point x="848" y="406"/>
      <point x="848" y="623" type="curve" smooth="yes"/>
      <point x="848" y="794"/>
      <point x="758" y="900"/>
      <point x="607" y="900" type="curve" smooth="yes"/>
      <point x="362" y="900"/>
      <point x="232" y="634"/>
      <point x="232" y="417" type="curve" smooth="yes"/>
      <point x="232" y="246"/>
      <point x="322" y="140"/>
    </contour>
    <contour>
      <point x="51" y="399" type="curve" smooth="yes"/>
      <point x="51" y="730"/>
      <point x="292" y="1060"/>
      <point x="635" y="1060" type="curve" smooth="yes"/>
      <point x="760" y="1060"/>
      <point x="834" y="1005"/>
      <point x="904" y="920" type="curve"/>
      <point x="925" y="1040" type="line"/>
      <point x="1097" y="1040" type="line"/>
      <point x="1097" y="1040"/>
      <point x="1086" y="974"/>
      <point x="1068" y="872" type="curve" smooth="yes"/>
      <point x="890" y="-137" type="line"/>
      <point x="710" y="-137" type="line"/>
      <point x="755" y="120" type="line"/>
      <point x="655" y="35"/>
      <point x="569" y="-20"/>
      <point x="444" y="-20" type="curve" smooth="yes"/>
      <point x="201" y="-20"/>
      <point x="51" y="151"/>
    </contour>
  </outline>
</glyph>
<glyph name="uni024F" format="2">
  <advance width="1104"/>
  <unicode hex="024F"/>
  <outline>
    <contour>
      <point x="-2" y="440" type="line"/>
      <point x="26" y="600" type="line"/>
      <point x="1030" y="600" type="line"/>
      <point x="1002" y="440" type="line"/>
    </contour>
    <contour>
      <point x="379" y="-255" type="line"/>
      <point x="311" y="-385"/>
      <point x="184" y="-460"/>
      <point x="26" y="-460" type="curve" smooth="yes"/>
      <point x="-30" y="-460"/>
      <point x="-91" y="-446"/>
      <point x="-133" y="-428" type="curve"/>
      <point x="-60" y="-265" type="line"/>
      <point x="-37" y="-284"/>
      <point x="11" y="-300"/>
      <point x="54" y="-300" type="curve" smooth="yes"/>
      <point x="131" y="-300"/>
      <point x="189" y="-267"/>
      <point x="221" y="-206" type="curve"/>
      <point x="330" y="0" type="line"/>
      <point x="148" y="1040" type="line"/>
      <point x="337" y="1040" type="line"/>
      <point x="461" y="224" type="line"/>
      <point x="873" y="1040" type="line"/>
      <point x="1062" y="1040" type="line"/>
      <point x="514" y="0" type="line"/>
    </contour>
  </outline>
</glyph>
<glyph name="uni0250" format="2">
  <advance width="1140"/>
  <unicode hex="0250"/>
  <anchor x="470" y="0" name="bottom_center"/>
  <anchor x="653" y="1040" name="top_center"/>
  <outline>
    <contour>
      <point x="236" y="627" type="curve" smooth="yes"/>
      <point x="236" y="874"/>
      <point x="456" y="1060"/>
      <point x="697" y="1060" type="curve" smooth="yes"/>
      <point x="922" y="1060"/>
      <point x="1039" y="935"/>
      <point x="1039" y="768" type="curve" smooth="yes"/>
      <point x="1039" y="518"/>
      <point x="796" y="340"/>
      <point x="530" y="340" type="curve" smooth="yes"/>
      <point x="342" y="340"/>
      <point x="236" y="462"/>
    </contour>
    <contour>
      <point x="629" y="900" type="curve" smooth="yes"/>
      <point x="470" y="900"/>
      <point x="329" y="809"/>
      <point x="329" y="659" type="curve" smooth="yes"/>
      <point x="329" y="562"/>
      <point x="399" y="500"/>
      <point x="558" y="500" type="curve" smooth="yes"/>
      <point x="618" y="500"/>
      <point x="857" y="514"/>
      <point x="857" y="741" type="curve" smooth="yes"/>
      <point x="857" y="838"/>
      <point x="787" y="900"/>
    </contour>
    <contour>
      <point x="173" y="813" type="line" smooth="yes"/>
      <point x="175" y="822"/>
      <point x="176" y="830"/>
      <point x="176" y="838" type="curve" smooth="yes"/>
      <point x="176" y="881"/>
      <point x="150" y="902"/>
      <point x="99" y="902" type="curve"/>
      <point x="169" y="1060" type="line"/>
      <point x="291" y="1049"/>
      <point x="359" y="989"/>
      <point x="359" y="875" type="curve" smooth="yes"/>
      <point x="359" y="856"/>
      <point x="357" y="835"/>
      <point x="353" y="813" type="curve"/>
      <point x="328" y="784" type="line"/>
      <point x="294" y="591" type="line"/>
      <point x="311" y="572" type="line"/>
      <point x="281" y="400" type="line" smooth="yes"/>
      <point x="276" y="374"/>
      <point x="274" y="349"/>
      <point x="274" y="327" type="curve" smooth="yes"/>
      <point x="274" y="198"/>
      <point x="353" y="139"/>
      <point x="496" y="139" type="curve" smooth="yes"/>
      <point x="676" y="139"/>
      <point x="831" y="245"/>
      <point x="831" y="245" type="curve"/>
      <point x="888" y="104" type="line"/>
      <point x="888" y="104"/>
      <point x="721" y="-20"/>
      <point x="466" y="-20" type="curve" smooth="yes"/>
      <point x="254" y="-20"/>
      <point x="93" y="56"/>
      <point x="93" y="302" type="curve" smooth="yes"/>
      <point x="93" y="341"/>
      <point x="98" y="384"/>
      <point x="106" y="432" type="curve" smooth="yes"/>
    </contour>
  </outline>
</glyph>
<glyph name="uni0253" format="2">
  <advance width="1184"/>
  <unicode hex="0253"/>
  <outline>
    <contour>
      <point x="635" y="900" type="curve" smooth="yes"/>
      <point x="390" y="900"/>
      <point x="260" y="634"/>
      <point x="260" y="417" type="curve" smooth="yes"/>
      <point x="260" y="246"/>
      <point x="350" y="140"/>
      <point x="501" y="140" type="curve" smooth="yes"/>
      <point x="746" y="140"/>
      <point x="876" y="406"/>
      <point x="876" y="623" type="curve" smooth="yes"/>
      <point x="876" y="794"/>
      <point x="786" y="900"/>
    </contour>
    <contour>
      <point x="1057" y="640" type="curve" smooth="yes"/>
      <point x="1057" y="309"/>
      <point x="815" y="-20"/>
      <point x="472" y="-20" type="curve" smooth="yes"/>
      <point x="347" y="-20"/>
      <point x="281" y="35"/>
      <point x="211" y="120" type="curve"/>
      <point x="190" y="0" type="line"/>
      <point x="10" y="0" type="line"/>
      <point x="218" y="1177" type="line" smooth="yes"/>
      <point x="250" y="1358"/>
      <point x="426" y="1500"/>
      <point x="604" y="1500" type="curve" smooth="yes"/>
      <point x="619" y="1500"/>
      <point x="634" y="1499"/>
      <point x="648" y="1497" type="curve"/>
      <point x="619" y="1334" type="line"/>
      <point x="607" y="1338"/>
      <point x="592" y="1340"/>
      <point x="576" y="1340" type="curve" smooth="yes"/>
      <point x="486" y="1340"/>
      <point x="414" y="1270"/>
      <point x="398" y="1177" type="curve" smooth="yes"/>
      <point x="352" y="920" type="line"/>
      <point x="452" y="1005"/>
      <point x="538" y="1060"/>
      <point x="663" y="1060" type="curve" smooth="yes"/>
      <point x="907" y="1060"/>
      <point x="1057" y="889"/>
    </contour>
  </outline>
</glyph>
<glyph name="uni0259" format="2">
  <advance width="1163"/>
  <unicode hex="0259"/>
  <anchor x="427" y="0" name="bottom_center"/>
  <anchor x="610" y="1040" name="top_center"/>
  <outline>
    <contour>
      <point x="234" y="285" type="curve" smooth="yes"/>
      <point x="234" y="218"/>
      <point x="282" y="140"/>
      <point x="451" y="140" type="curve" smooth="yes"/>
      <point x="690" y="140"/>
      <point x="845" y="383"/>
      <point x="845" y="611" type="curve" smooth="yes"/>
      <point x="845" y="783"/>
      <point x="748" y="900"/>
      <point x="585" y="900" type="curve" smooth="yes"/>
      <point x="444" y="900"/>
      <point x="310" y="833"/>
      <point x="238" y="700" type="curve"/>
      <point x="101" y="788" type="line"/>
      <point x="215" y="966"/>
      <point x="415" y="1060"/>
      <point x="614" y="1060" type="curve" smooth="yes"/>
      <point x="860" y="1060"/>
      <point x="1026" y="885"/>
      <point x="1026" y="631" type="curve" smooth="yes"/>
      <point x="1026" y="294"/>
      <point x="757" y="-20"/>
      <point x="423" y="-20" type="curve" smooth="yes"/>
      <point x="170" y="-20"/>
      <point x="52" y="119"/>
      <point x="52" y="263" type="curve" smooth="yes"/>
      <point x="52" y="279"/>
      <point x="53" y="294"/>
      <point x="56" y="310" type="curve" smooth="yes"/>
      <point x="84" y="470"/>
      <point x="248" y="640"/>
      <point x="699" y="640" type="curve" smooth="yes"/>
      <point x="915" y="640" type="line"/>
      <point x="887" y="480" type="line"/>
      <point x="671" y="480" type="line" smooth="yes"/>
      <point x="308" y="480"/>
      <point x="234" y="372"/>
    </contour>
  </outline>
</glyph>
<glyph name="uni025A" format="2">
  <advance width="1637"/>
  <unicode hex="025A"/>
  <outline>
    <contour>
      <point x="1246" y="792" type="curve"/>
      <point x="1391" y="875" type="line"/>
      <point x="1391" y="767"/>
      <point x="1451" y="652"/>
      <point x="1541" y="652" type="curve" smooth="yes"/>
      <point x="1557" y="652"/>
      <point x="1572" y="654"/>
      <point x="1585" y="658" type="curve"/>
      <point x="1585" y="495" type="line"/>
      <point x="1571" y="493"/>
      <point x="1556" y="492"/>
      <point x="1541" y="492" type="curve" smooth="yes"/>
      <point x="1332" y="492"/>
      <point x="1252" y="700"/>
    </contour>
    <contour>
      <point x="428" y="457" type="line" smooth="yes"/>
      <point x="273" y="416"/>
      <point x="234" y="347"/>
      <point x="234" y="285" type="curve" smooth="yes"/>
      <point x="234" y="218"/>
      <point x="282" y="140"/>
      <point x="451" y="140" type="curve" smooth="yes"/>
      <point x="690" y="140"/>
      <point x="845" y="383"/>
      <point x="845" y="611" type="curve" smooth="yes"/>
      <point x="845" y="783"/>
      <point x="748" y="900"/>
      <point x="585" y="900" type="curve" smooth="yes"/>
      <point x="444" y="900"/>
      <point x="310" y="833"/>
      <point x="238" y="700" type="curve"/>
      <point x="101" y="788" type="line"/>
      <point x="215" y="966"/>
      <point x="415" y="1060"/>
      <point x="614" y="1060" type="curve" smooth="yes"/>
      <point x="860" y="1060"/>
      <point x="1026" y="885"/>
      <point x="1026" y="631" type="curve" smooth="yes"/>
      <point x="1026" y="294"/>
      <point x="757" y="-20"/>
      <point x="423" y="-20" type="curve" smooth="yes"/>
      <point x="170" y="-20"/>
      <point x="52" y="119"/>
      <point x="52" y="263" type="curve" smooth="yes"/>
      <point x="52" y="279"/>
      <point x="53" y="294"/>
      <point x="56" y="310" type="curve" smooth="yes"/>
      <point x="78" y="429"/>
      <point x="176" y="547"/>
      <point x="410" y="610" type="curve" smooth="yes"/>
      <point x="1391" y="875" type="line"/>
      <point x="1369" y="784" type="line"/>
      <point x="1432" y="720" type="line"/>
    </contour>
  </outline>
</glyph>
<glyph name="uni025B" format="2">
  <advance width="1013"/>
  <unicode hex="025B"/>
  <anchor x="539" y="0" name="bottom_right"/>
  <anchor x="374" y="-20" name="bottom_cedilla"/>
  <anchor x="378" y="0" name="bottom_center"/>
  <anchor x="561" y="1040" name="top_center"/>
  <outline>
    <contour>
      <point x="200" y="277" type="curve" smooth="yes"/>
      <point x="200" y="374"/>
      <point x="293" y="471"/>
      <point x="461" y="471" type="curve" smooth="yes"/>
      <point x="526" y="471" type="line"/>
      <point x="552" y="618" type="line"/>
      <point x="487" y="618" type="line" smooth="yes"/>
      <point x="378" y="618"/>
      <point x="324" y="668"/>
      <point x="324" y="737" type="curve" smooth="yes"/>
      <point x="324" y="819"/>
      <point x="390" y="900"/>
      <point x="537" y="900" type="curve" smooth="yes"/>
      <point x="669" y="900"/>
      <point x="723" y="836"/>
      <point x="734" y="720" type="curve"/>
      <point x="906" y="808" type="line"/>
      <point x="893" y="953"/>
      <point x="784" y="1060"/>
      <point x="565" y="1060" type="curve" smooth="yes"/>
      <point x="335" y="1060"/>
      <point x="144" y="912"/>
      <point x="144" y="725" type="curve" smooth="yes"/>
      <point x="144" y="654"/>
      <point x="174" y="591"/>
      <point x="248" y="549" type="curve"/>
      <point x="198" y="528"/>
      <point x="17" y="439"/>
      <point x="17" y="244" type="curve" smooth="yes"/>
      <point x="17" y="93"/>
      <point x="156" y="-20"/>
      <point x="374" y="-20" type="curve" smooth="yes"/>
      <point x="598" y="-20"/>
      <point x="768" y="78"/>
      <point x="827" y="252" type="curve"/>
      <point x="664" y="299" type="line"/>
      <point x="635" y="204"/>
      <point x="547" y="140"/>
      <point x="403" y="140" type="curve" smooth="yes"/>
      <point x="273" y="140"/>
      <point x="200" y="196"/>
    </contour>
  </outline>
</glyph>
<glyph name="uni025F" format="2">
  <advance width="670"/>
  <unicode hex="025F"/>
  <anchor x="82" y="-360" name="bottom_center"/>
  <anchor x="388" y="1040" name="top_center"/>
  <outline>
    <contour>
      <point x="-52" y="440" type="line"/>
      <point x="-24" y="600" type="line"/>
      <point x="646" y="600" type="line"/>
      <point x="618" y="440" type="line"/>
    </contour>
    <contour>
      <point x="298" y="1040" type="line"/>
      <point x="478" y="1040" type="line"/>
      <point x="258" y="-210" type="line" smooth="yes"/>
      <point x="228" y="-380"/>
      <point x="114" y="-460"/>
      <point x="-56" y="-460" type="curve" smooth="yes"/>
      <point x="-88" y="-460"/>
      <point x="-126" y="-449"/>
      <point x="-146" y="-436" type="curve"/>
      <point x="-77" y="-284" type="line"/>
      <point x="-66" y="-291"/>
      <point x="-44" y="-300"/>
      <point x="-28" y="-300" type="curve" smooth="yes"/>
      <point x="32" y="-300"/>
      <point x="67" y="-270"/>
      <point x="78" y="-210" type="curve" smooth="yes"/>
    </contour>
  </outline>
</glyph>
<glyph name="uni0262" format="2">
  <advance width="1211"/>
  <unicode hex="0262"/>
  <outline>
    <contour>
      <point x="52" y="410" type="curve" smooth="yes"/>
      <point x="52" y="757"/>
      <point x="340" y="1075"/>
      <point x="685" y="1075" type="curve" smooth="yes"/>
      <point x="883" y="1075"/>
      <point x="1025" y="974"/>
      <point x="1079" y="789" type="curve"/>
      <point x="915" y="703" type="line"/>
      <point x="887" y="803"/>
      <point x="806" y="914"/>
      <point x="656" y="914" type="curve" smooth="yes"/>
      <point x="399" y="914"/>
      <point x="234" y="667"/>
      <point x="234" y="428" type="curve" smooth="yes"/>
      <point x="234" y="245"/>
      <point x="341" y="125"/>
      <point x="517" y="125" type="curve" smooth="yes"/>
      <point x="667" y="125"/>
      <point x="782" y="236"/>
      <point x="846" y="336" type="curve"/>
      <point x="945" y="256" type="line"/>
      <point x="825" y="71"/>
      <point x="687" y="-36"/>
      <point x="489" y="-36" type="curve" smooth="yes"/>
      <point x="232" y="-36"/>
      <point x="52" y="147"/>
    </contour>
    <contour>
      <point x="798" y="217" type="line"/>
      <point x="824" y="363" type="line"/>
      <point x="521" y="363" type="line"/>
      <point x="549" y="523" type="line"/>
      <point x="1032" y="523" type="line"/>
      <point x="940" y="0" type="line"/>
      <point x="768" y="0" type="line"/>
      <point x="802" y="192" type="line"/>
    </contour>
  </outline>
</glyph>
<glyph name="uni0263" format="2">
  <advance width="1148"/>
  <unicode hex="0263"/>
  <outline>
    <contour>
      <point x="707" y="-156" type="curve" smooth="yes"/>
      <point x="707" y="-329"/>
      <point x="545" y="-460"/>
      <point x="363" y="-460" type="curve" smooth="yes"/>
      <point x="201" y="-460"/>
      <point x="109" y="-361"/>
      <point x="109" y="-246" type="curve" smooth="yes"/>
      <point x="109" y="-173"/>
      <point x="146" y="-115"/>
      <point x="183" y="-65" type="curve" smooth="yes"/>
      <point x="376" y="188" type="line"/>
      <point x="123" y="1040" type="line"/>
      <point x="331" y="1040" type="line"/>
      <point x="511" y="381" type="line"/>
      <point x="923" y="1040" type="line"/>
      <point x="1131" y="1040" type="line"/>
      <point x="578" y="188" type="line"/>
      <point x="690" y="-65" type="line" smooth="yes"/>
      <point x="699" y="-87"/>
      <point x="707" y="-119"/>
    </contour>
    <contour>
      <point x="391" y="-301" type="curve" smooth="yes"/>
      <point x="460" y="-301"/>
      <point x="530" y="-226"/>
      <point x="530" y="-160" type="curve" smooth="yes"/>
      <point x="530" y="-127"/>
      <point x="516" y="-97"/>
      <point x="505" y="-72" type="curve" smooth="yes"/>
      <point x="453" y="50" type="line"/>
      <point x="363" y="-72" type="line" smooth="yes"/>
      <point x="315" y="-137"/>
      <point x="296" y="-167"/>
      <point x="296" y="-198" type="curve" smooth="yes"/>
      <point x="296" y="-252"/>
      <point x="335" y="-301"/>
    </contour>
  </outline>
</glyph>
<glyph name="uni026B" format="2">
  <advance width="806"/>
  <unicode hex="026B"/>
  <outline>
    <contour>
      <point x="183" y="615" type="curve"/>
      <point x="51" y="652" type="line"/>
      <point x="91" y="788"/>
      <point x="197" y="878"/>
      <point x="305" y="878" type="curve" smooth="yes"/>
      <point x="437" y="878"/>
      <point x="447" y="742"/>
      <point x="527" y="742" type="curve" smooth="yes"/>
      <point x="575" y="742"/>
      <point x="608" y="805"/>
      <point x="624" y="865" type="curve"/>
      <point x="756" y="828" type="line"/>
      <point x="716" y="692"/>
      <point x="610" y="602"/>
      <point x="502" y="602" type="curve" smooth="yes"/>
      <point x="370" y="602"/>
      <point x="360" y="738"/>
      <point x="280" y="738" type="curve" smooth="yes"/>
      <point x="232" y="738"/>
      <point x="199" y="675"/>
    </contour>
    <contour>
      <point x="271" y="1480" type="line"/>
      <point x="797" y="1480" type="line"/>
      <point x="767" y="1312" type="line"/>
      <point x="599" y="1312" type="line"/>
      <point x="398" y="168" type="line"/>
      <point x="566" y="168" type="line"/>
      <point x="536" y="0" type="line"/>
      <point x="10" y="0" type="line"/>
      <point x="40" y="168" type="line"/>
      <point x="208" y="168" type="line"/>
      <point x="409" y="1312" type="line"/>
      <point x="241" y="1312" type="line"/>
    </contour>
  </outline>
</glyph>
<glyph name="uni026D" format="2">
  <advance width="514"/>
  <unicode hex="026D"/>
  <outline>
    <contour>
      <point x="271" y="1480" type="line"/>
      <point x="451" y="1480" type="line"/>
      <point x="166" y="-137" type="line"/>
      <point x="164" y="-149"/>
      <point x="163" y="-161"/>
      <point x="163" y="-172" type="curve" smooth="yes"/>
      <point x="163" y="-247"/>
      <point x="209" y="-300"/>
      <point x="287" y="-300" type="curve" smooth="yes"/>
      <point x="303" y="-300"/>
      <point x="318" y="-298"/>
      <point x="332" y="-294" type="curve"/>
      <point x="303" y="-457" type="line"/>
      <point x="289" y="-459"/>
      <point x="274" y="-460"/>
      <point x="259" y="-460" type="curve" smooth="yes"/>
      <point x="100" y="-460"/>
      <point x="-19" y="-346"/>
      <point x="-19" y="-192" type="curve" smooth="yes"/>
      <point x="-19" y="-174"/>
      <point x="-17" y="-156"/>
      <point x="-14" y="-137" type="curve"/>
    </contour>
  </outline>
</glyph>
<glyph name="uni0271" format="2">
  <advance width="1672"/>
  <unicode hex="0271"/>
  <outline>
    <contour>
      <point x="616" y="0" type="line"/>
      <point x="717" y="572" type="line" smooth="yes"/>
      <point x="727" y="626"/>
      <point x="732" y="673"/>
      <point x="732" y="713" type="curve" smooth="yes"/>
      <point x="732" y="838"/>
      <point x="683" y="900"/>
      <point x="562" y="900" type="curve" smooth="yes"/>
      <point x="402" y="900"/>
      <point x="330" y="791"/>
      <point x="291" y="572" type="curve" smooth="yes"/>
      <point x="190" y="0" type="line"/>
      <point x="10" y="0" type="line"/>
      <point x="193" y="1040" type="line"/>
      <point x="361" y="1040" type="line"/>
      <point x="340" y="920" type="line"/>
      <point x="440" y="1005"/>
      <point x="497" y="1060"/>
      <point x="622" y="1060" type="curve" smooth="yes"/>
      <point x="759" y="1060"/>
      <point x="851" y="1007"/>
      <point x="891" y="892" type="curve"/>
      <point x="977" y="1003"/>
      <point x="1094" y="1060"/>
      <point x="1228" y="1060" type="curve" smooth="yes"/>
      <point x="1415" y="1060"/>
      <point x="1520" y="962"/>
      <point x="1520" y="742" type="curve" smooth="yes"/>
      <point x="1520" y="692"/>
      <point x="1514" y="635"/>
      <point x="1503" y="572" type="curve" smooth="yes"/>
      <point x="1402" y="0" type="line" smooth="yes"/>
      <point x="1370" y="-181"/>
      <point x="1193" y="-323"/>
      <point x="1015" y="-323" type="curve" smooth="yes"/>
      <point x="1000" y="-323"/>
      <point x="986" y="-322"/>
      <point x="972" y="-320" type="curve"/>
      <point x="1000" y="-157" type="line"/>
      <point x="1012" y="-161"/>
      <point x="1027" y="-163"/>
      <point x="1043" y="-163" type="curve" smooth="yes"/>
      <point x="1133" y="-163"/>
      <point x="1206" y="-93"/>
      <point x="1222" y="0" type="curve" smooth="yes"/>
      <point x="1323" y="572" type="line" smooth="yes"/>
      <point x="1333" y="626"/>
      <point x="1338" y="673"/>
      <point x="1338" y="713" type="curve" smooth="yes"/>
      <point x="1338" y="838"/>
      <point x="1289" y="900"/>
      <point x="1168" y="900" type="curve" smooth="yes"/>
      <point x="1008" y="900"/>
      <point x="936" y="791"/>
      <point x="897" y="572" type="curve" smooth="yes"/>
      <point x="796" y="0" type="line"/>
    </contour>
  </outline>
</glyph>
<glyph name="uni0276" format="2">
  <advance width="1837"/>
  <unicode hex="0276"/>
  <outline>
    <contour>
      <point x="1607" y="600" type="line"/>
      <point x="1579" y="440" type="line"/>
      <point x="1126" y="440" type="line"/>
      <point x="1076" y="160" type="line"/>
      <point x="1595" y="160" type="line"/>
      <point x="1567" y="0" type="line"/>
      <point x="868" y="0" type="line"/>
      <point x="1051" y="1040" type="line"/>
      <point x="1750" y="1040" type="line"/>
      <point x="1722" y="880" type="line"/>
      <point x="1203" y="880" type="line"/>
      <point x="1154" y="600" type="line"/>
    </contour>
    <contour>
      <point x="93" y="420" type="curve" smooth="yes"/>
      <point x="93" y="750"/>
      <point x="380" y="1060"/>
      <point x="716" y="1060" type="curve" smooth="yes"/>
      <point x="978" y="1060"/>
      <point x="1149" y="869"/>
      <point x="1149" y="620" type="curve" smooth="yes"/>
      <point x="1149" y="290"/>
      <point x="860" y="-20"/>
      <point x="525" y="-20" type="curve" smooth="yes"/>
      <point x="263" y="-20"/>
      <point x="93" y="171"/>
    </contour>
    <contour>
      <point x="688" y="899" type="curve" smooth="yes"/>
      <point x="436" y="899"/>
      <point x="274" y="661"/>
      <point x="274" y="436" type="curve" smooth="yes"/>
      <point x="274" y="267"/>
      <point x="373" y="141"/>
      <point x="554" y="141" type="curve" smooth="yes"/>
      <point x="806" y="141"/>
      <point x="968" y="379"/>
      <point x="968" y="604" type="curve" smooth="yes"/>
      <point x="968" y="773"/>
      <point x="869" y="899"/>
    </contour>
  </outline>
</glyph>
<glyph name="uni0284" format="2">
  <advance width="750"/>
  <unicode hex="0284"/>
  <outline>
    <contour>
      <point x="540" y="0" type="line"/>
      <point x="568" y="160" type="line"/>
      <point x="-102" y="160" type="line"/>
      <point x="-130" y="0" type="line"/>
    </contour>
    <contour>
      <point x="503" y="1180" type="line" smooth="yes"/>
      <point x="521" y="1282"/>
      <point x="589" y="1340"/>
      <point x="691" y="1340" type="curve" smooth="yes"/>
      <point x="734" y="1340"/>
      <point x="782" y="1324"/>
      <point x="805" y="1305" type="curve"/>
      <point x="879" y="1468" type="line"/>
      <point x="837" y="1486"/>
      <point x="775" y="1500"/>
      <point x="719" y="1500" type="curve" smooth="yes"/>
      <point x="519" y="1500"/>
      <point x="358" y="1380"/>
      <point x="323" y="1180" type="curve" smooth="yes"/>
      <point x="91" y="-137" type="line"/>
      <point x="75" y="-230"/>
      <point x="2" y="-300"/>
      <point x="-88" y="-300" type="curve" smooth="yes"/>
      <point x="-104" y="-300"/>
      <point x="-119" y="-298"/>
      <point x="-131" y="-294" type="curve"/>
      <point x="-160" y="-457" type="line"/>
      <point x="-146" y="-459"/>
      <point x="-131" y="-460"/>
      <point x="-116" y="-460" type="curve" smooth="yes"/>
      <point x="62" y="-460"/>
      <point x="239" y="-318"/>
      <point x="271" y="-137" type="curve"/>
    </contour>
  </outline>
</glyph>
<glyph name="uni0286" format="2">
  <advance width="855"/>
  <unicode hex="0286"/>
  <outline>
    <contour>
      <point x="639" y="-8" type="line"/>
      <point x="109" y="-8" type="line"/>
      <point x="80" y="-168" type="line"/>
      <point x="610" y="-168" type="line"/>
    </contour>
    <contour>
      <point x="-175" y="-278" type="curve" smooth="yes"/>
      <point x="-175" y="-393"/>
      <point x="-87" y="-460"/>
      <point x="29" y="-460" type="curve" smooth="yes"/>
      <point x="159" y="-460"/>
      <point x="284" y="-376"/>
      <point x="309" y="-234" type="curve" smooth="yes"/>
      <point x="558" y="1180" type="line" smooth="yes"/>
      <point x="576" y="1282"/>
      <point x="644" y="1340"/>
      <point x="746" y="1340" type="curve" smooth="yes"/>
      <point x="789" y="1340"/>
      <point x="837" y="1324"/>
      <point x="860" y="1305" type="curve"/>
      <point x="934" y="1468" type="line"/>
      <point x="892" y="1486"/>
      <point x="830" y="1500"/>
      <point x="774" y="1500" type="curve" smooth="yes"/>
      <point x="574" y="1500"/>
      <point x="413" y="1380"/>
      <point x="378" y="1180" type="curve" smooth="yes"/>
      <point x="129" y="-234" type="line" smooth="yes"/>
      <point x="123" y="-270"/>
      <point x="93" y="-300"/>
      <point x="57" y="-300" type="curve" smooth="yes"/>
      <point x="26" y="-300"/>
      <point x="8" y="-277"/>
      <point x="8" y="-247" type="curve" smooth="yes"/>
      <point x="8" y="-207"/>
      <point x="39" y="-168"/>
      <point x="80" y="-168" type="curve"/>
      <point x="109" y="-8" type="line"/>
      <point x="-52" y="-8"/>
      <point x="-175" y="-131"/>
    </contour>
  </outline>
</glyph>
<glyph name="uni028A" format="2">
  <advance width="1196"/>
  <unicode hex="028A"/>
  <anchor x="469" y="0" name="bottom_center"/>
  <anchor x="652" y="1040" name="top_center"/>
  <outline>
    <contour>
      <point x="1121" y="880" type="line"/>
      <point x="1149" y="1040" type="line"/>
      <point x="762" y="1040" type="line"/>
      <point x="734" y="880" type="line"/>
    </contour>
    <contour>
      <point x="125" y="880" type="line"/>
      <point x="512" y="880" type="line"/>
      <point x="540" y="1040" type="line"/>
      <point x="153" y="1040" type="line"/>
    </contour>
    <contour>
      <point x="245" y="880" type="line"/>
      <point x="192" y="825"/>
      <point x="52" y="657"/>
      <point x="52" y="409" type="curve" smooth="yes"/>
      <point x="52" y="155"/>
      <point x="218" y="-20"/>
      <point x="464" y="-20" type="curve" smooth="yes"/>
      <point x="799" y="-20"/>
      <point x="1068" y="294"/>
      <point x="1068" y="629" type="curve" smooth="yes"/>
      <point x="1068" y="726"/>
      <point x="1044" y="811"/>
      <point x="1001" y="880" type="curve"/>
      <point x="734" y="880" type="line"/>
      <point x="831" y="840"/>
      <point x="886" y="741"/>
      <point x="886" y="611" type="curve" smooth="yes"/>
      <point x="886" y="386"/>
      <point x="734" y="140"/>
      <point x="493" y="140" type="curve" smooth="yes"/>
      <point x="330" y="140"/>
      <point x="234" y="258"/>
      <point x="234" y="429" type="curve" smooth="yes"/>
      <point x="234" y="597"/>
      <point x="323" y="813"/>
      <point x="512" y="880" type="curve"/>
    </contour>
  </outline>
</glyph>
<glyph name="uni028E" format="2">
  <advance width="1077"/>
  <unicode hex="028E"/>
  <outline>
    <contour>
      <point x="623" y="1295" type="line"/>
      <point x="691" y="1425"/>
      <point x="818" y="1500"/>
      <point x="976" y="1500" type="curve" smooth="yes"/>
      <point x="1032" y="1500"/>
      <point x="1094" y="1486"/>
      <point x="1136" y="1468" type="curve"/>
      <point x="1062" y="1305" type="line"/>
      <point x="1039" y="1324"/>
      <point x="991" y="1340"/>
      <point x="948" y="1340" type="curve" smooth="yes"/>
      <point x="871" y="1340"/>
      <point x="814" y="1307"/>
      <point x="782" y="1246" type="curve"/>
      <point x="672" y="1040" type="line"/>
      <point x="854" y="0" type="line"/>
      <point x="665" y="0" type="line"/>
      <point x="541" y="816" type="line"/>
      <point x="129" y="0" type="line"/>
      <point x="-60" y="0" type="line"/>
      <point x="488" y="1040" type="line"/>
    </contour>
  </outline>
</glyph>
<glyph name="uni0292" format="2">
  <advance width="1222"/>
  <unicode hex="0292"/>
  <anchor x="417" y="-360" name="bottom_center"/>
  <anchor x="663" y="1040" name="top_center"/>
  <outline>
    <contour>
      <point x="563" y="300" type="line"/>
      <point x="456" y="400" type="line"/>
      <point x="887" y="872" type="line"/>
      <point x="1104" y="888" type="line"/>
    </contour>
    <contour>
      <point x="995" y="46" type="curve" smooth="yes"/>
      <point x="995" y="-203"/>
      <point x="744" y="-460"/>
      <point x="399" y="-460" type="curve" smooth="yes"/>
      <point x="129" y="-460"/>
      <point x="-39" y="-296"/>
      <point x="-39" y="-73" type="curve" smooth="yes"/>
      <point x="-39" y="-64"/>
      <point x="-39" y="-54"/>
      <point x="-38" y="-44" type="curve"/>
      <point x="158" y="6" type="line"/>
      <point x="155" y="-11"/>
      <point x="153" y="-28"/>
      <point x="153" y="-45" type="curve" smooth="yes"/>
      <point x="153" y="-179"/>
      <point x="251" y="-292"/>
      <point x="429" y="-292" type="curve" smooth="yes"/>
      <point x="667" y="-292"/>
      <point x="804" y="-128"/>
      <point x="804" y="32" type="curve" smooth="yes"/>
      <point x="804" y="163"/>
      <point x="703" y="256"/>
      <point x="525" y="256" type="curve" smooth="yes"/>
      <point x="430" y="256" type="line"/>
      <point x="456" y="400" type="line"/>
      <point x="456" y="400"/>
      <point x="483" y="416"/>
      <point x="553" y="416" type="curve" smooth="yes"/>
      <point x="810" y="416"/>
      <point x="995" y="255"/>
    </contour>
    <contour>
      <point x="225" y="1040" type="line"/>
      <point x="1130" y="1040" type="line"/>
      <point x="1104" y="888" type="line"/>
      <point x="967" y="872" type="line"/>
      <point x="196" y="872" type="line"/>
    </contour>
  </outline>
</glyph>
<glyph name="uni0295" format="2">
  <advance width="1192"/>
  <unicode hex="0295"/>
  <outline>
    <contour>
      <point x="558" y="0" type="line"/>
      <point x="378" y="0" type="line"/>
      <point x="480" y="580" type="line"/>
      <point x="660" y="580" type="line"/>
    </contour>
    <contour>
      <point x="704" y="1340" type="curve" smooth="yes"/>
      <point x="438" y="1340"/>
      <point x="311" y="1072"/>
      <point x="311" y="869" type="curve" smooth="yes"/>
      <point x="311" y="698"/>
      <point x="407" y="580"/>
      <point x="570" y="580" type="curve"/>
      <point x="542" y="420" type="line"/>
      <point x="295" y="420"/>
      <point x="129" y="595"/>
      <point x="129" y="849" type="curve" smooth="yes"/>
      <point x="129" y="1158"/>
      <point x="358" y="1500"/>
      <point x="732" y="1500" type="curve" smooth="yes"/>
      <point x="989" y="1500"/>
      <point x="1145" y="1324"/>
      <point x="1145" y="1071" type="curve" smooth="yes"/>
      <point x="1145" y="1058"/>
      <point x="1145" y="1045"/>
      <point x="1144" y="1032" type="curve"/>
      <point x="958" y="978" type="line"/>
      <point x="962" y="1006"/>
      <point x="964" y="1032"/>
      <point x="964" y="1058" type="curve" smooth="yes"/>
      <point x="964" y="1226"/>
      <point x="876" y="1340"/>
    </contour>
  </outline>
</glyph>
<glyph name="uni0297" format="2">
  <advance width="1142"/>
  <unicode hex="0297"/>
  <outline>
    <contour>
      <point x="164" y="80" type="line" smooth="yes"/>
      <point x="158" y="48"/>
      <point x="156" y="18"/>
      <point x="156" y="-11" type="curve" smooth="yes"/>
      <point x="156" y="-182"/>
      <point x="252" y="-300"/>
      <point x="415" y="-300" type="curve" smooth="yes"/>
      <point x="556" y="-300"/>
      <point x="669" y="-233"/>
      <point x="741" y="-100" type="curve"/>
      <point x="879" y="-188" type="line"/>
      <point x="765" y="-366"/>
      <point x="586" y="-460"/>
      <point x="387" y="-460" type="curve" smooth="yes"/>
      <point x="142" y="-460"/>
      <point x="-27" y="-302"/>
      <point x="-27" y="-41" type="curve" smooth="yes"/>
      <point x="-27" y="-3"/>
      <point x="-24" y="37"/>
      <point x="-16" y="80" type="curve" smooth="yes"/>
      <point x="62" y="520" type="line" smooth="yes"/>
      <point x="121" y="853"/>
      <point x="374" y="1060"/>
      <point x="655" y="1060" type="curve" smooth="yes"/>
      <point x="854" y="1060"/>
      <point x="999" y="966"/>
      <point x="1051" y="788" type="curve"/>
      <point x="882" y="700" type="line"/>
      <point x="856" y="833"/>
      <point x="768" y="900"/>
      <point x="627" y="900" type="curve" smooth="yes"/>
      <point x="436" y="900"/>
      <point x="281" y="740"/>
      <point x="242" y="520" type="curve" smooth="yes"/>
    </contour>
  </outline>
</glyph>
<glyph name="uni029A" format="2">
  <advance width="1106"/>
  <unicode hex="029A"/>
  <outline>
    <contour>
      <point x="374" y="-20" type="curve" smooth="yes"/>
      <point x="708" y="-20"/>
      <point x="978" y="293"/>
      <point x="978" y="631" type="curve" smooth="yes"/>
      <point x="978" y="885"/>
      <point x="812" y="1060"/>
      <point x="565" y="1060" type="curve" smooth="yes"/>
      <point x="335" y="1060"/>
      <point x="144" y="912"/>
      <point x="144" y="725" type="curve" smooth="yes"/>
      <point x="144" y="654"/>
      <point x="174" y="591"/>
      <point x="248" y="549" type="curve"/>
      <point x="198" y="528"/>
      <point x="17" y="439"/>
      <point x="17" y="244" type="curve" smooth="yes"/>
      <point x="17" y="93"/>
      <point x="156" y="-20"/>
    </contour>
    <contour>
      <point x="319" y="739" type="curve" smooth="yes"/>
      <point x="319" y="824"/>
      <point x="394" y="900"/>
      <point x="537" y="900" type="curve" smooth="yes"/>
      <point x="700" y="900"/>
      <point x="796" y="782"/>
      <point x="796" y="611" type="curve" smooth="yes"/>
      <point x="796" y="384"/>
      <point x="643" y="140"/>
      <point x="403" y="140" type="curve" smooth="yes"/>
      <point x="272" y="140"/>
      <point x="196" y="196"/>
      <point x="196" y="278" type="curve" smooth="yes"/>
      <point x="196" y="376"/>
      <point x="295" y="471"/>
      <point x="461" y="471" type="curve" smooth="yes"/>
      <point x="526" y="471" type="line"/>
      <point x="552" y="618" type="line"/>
      <point x="487" y="618" type="line" smooth="yes"/>
      <point x="378" y="618"/>
      <point x="319" y="669"/>
    </contour>
  </outline>
</glyph>
<glyph name="uni029D" format="2">
  <advance width="830"/>
  <unicode hex="029D"/>
  <outline>
    <contour>
      <point x="699" y="-8" type="line"/>
      <point x="109" y="-8" type="line"/>
      <point x="80" y="-168" type="line"/>
      <point x="670" y="-168" type="line"/>
    </contour>
    <contour>
      <point x="374" y="1372" type="curve" smooth="yes"/>
      <point x="374" y="1444"/>
      <point x="429" y="1500"/>
      <point x="501" y="1500" type="curve" smooth="yes"/>
      <point x="573" y="1500"/>
      <point x="630" y="1444"/>
      <point x="630" y="1372" type="curve" smooth="yes"/>
      <point x="630" y="1300"/>
      <point x="574" y="1244"/>
      <point x="502" y="1244" type="curve" smooth="yes"/>
      <point x="430" y="1244"/>
      <point x="374" y="1300"/>
    </contour>
    <contour>
      <point x="-175" y="-278" type="curve" smooth="yes"/>
      <point x="-175" y="-393"/>
      <point x="-87" y="-460"/>
      <point x="29" y="-460" type="curve" smooth="yes"/>
      <point x="159" y="-460"/>
      <point x="284" y="-376"/>
      <point x="309" y="-234" type="curve" smooth="yes"/>
      <point x="533" y="1040" type="line"/>
      <point x="353" y="1040" type="line"/>
      <point x="129" y="-234" type="line" smooth="yes"/>
      <point x="123" y="-270"/>
      <point x="93" y="-300"/>
      <point x="57" y="-300" type="curve" smooth="yes"/>
      <point x="26" y="-300"/>
      <point x="8" y="-277"/>
      <point x="8" y="-247" type="curve" smooth="yes"/>
      <point x="8" y="-207"/>
      <point x="39" y="-168"/>
      <point x="80" y="-168" type="curve"/>
      <point x="109" y="-8" type="line"/>
      <point x="-52" y="-8"/>
      <point x="-175" y="-131"/>
    </contour>
  </outline>
</glyph>
<glyph name="uni029F" format="2">
  <advance width="979"/>
  <unicode hex="029F"/>
  <outline>
    <contour>
      <point x="373" y="1040" type="line"/>
      <point x="218" y="160" type="line"/>
      <point x="737" y="160" type="line"/>
      <point x="709" y="0" type="line"/>
      <point x="10" y="0" type="line"/>
      <point x="193" y="1040" type="line"/>
    </contour>
  </outline>
</glyph>
<glyph name="uni02A3" format="2">
  <advance width="1928"/>
  <unicode hex="02A3"/>
  <outline>
    <contour>
      <point x="1096" y="1040" type="line"/>
      <point x="1837" y="1040" type="line"/>
      <point x="1812" y="896" type="line"/>
      <point x="1695" y="880" type="line"/>
      <point x="1068" y="880" type="line"/>
    </contour>
    <contour>
      <point x="1682" y="160" type="line"/>
      <point x="1654" y="0" type="line"/>
      <point x="914" y="0" type="line"/>
      <point x="939" y="144" type="line"/>
      <point x="1066" y="160" type="line"/>
    </contour>
    <contour>
      <point x="1146" y="160" type="line"/>
      <point x="939" y="144" type="line"/>
      <point x="1605" y="880" type="line"/>
      <point x="1812" y="896" type="line"/>
    </contour>
    <contour>
      <point x="473" y="140" type="curve" smooth="yes"/>
      <point x="718" y="140"/>
      <point x="848" y="406"/>
      <point x="848" y="623" type="curve" smooth="yes"/>
      <point x="848" y="794"/>
      <point x="758" y="900"/>
      <point x="607" y="900" type="curve" smooth="yes"/>
      <point x="362" y="900"/>
      <point x="232" y="634"/>
      <point x="232" y="417" type="curve" smooth="yes"/>
      <point x="232" y="246"/>
      <point x="322" y="140"/>
    </contour>
    <contour>
      <point x="51" y="399" type="curve" smooth="yes"/>
      <point x="51" y="730"/>
      <point x="292" y="1060"/>
      <point x="635" y="1060" type="curve" smooth="yes"/>
      <point x="760" y="1060"/>
      <point x="826" y="1005"/>
      <point x="896" y="920" type="curve"/>
      <point x="995" y="1480" type="line"/>
      <point x="1175" y="1480" type="line"/>
      <point x="944" y="168" type="line" smooth="yes"/>
      <point x="934" y="114"/>
      <point x="932" y="70"/>
      <point x="932" y="41" type="curve" smooth="yes"/>
      <point x="932" y="15"/>
      <point x="934" y="0"/>
      <point x="934" y="0" type="curve"/>
      <point x="762" y="0" type="line"/>
      <point x="762" y="0"/>
      <point x="760" y="16"/>
      <point x="760" y="40" type="curve" smooth="yes"/>
      <point x="760" y="62"/>
      <point x="762" y="91"/>
      <point x="767" y="120" type="curve"/>
      <point x="667" y="35"/>
      <point x="569" y="-20"/>
      <point x="444" y="-20" type="curve" smooth="yes"/>
      <point x="201" y="-20"/>
      <point x="51" y="151"/>
    </contour>
  </outline>
</glyph>
<glyph name="uni02A7" format="2">
  <advance width="1370"/>
  <unicode hex="02A7"/>
  <outline>
    <contour>
      <point x="470" y="0" type="line" smooth="yes"/>
      <point x="293" y="0"/>
      <point x="177" y="79"/>
      <point x="177" y="235" type="curve" smooth="yes"/>
      <point x="177" y="255"/>
      <point x="179" y="277"/>
      <point x="183" y="300" type="curve" smooth="yes"/>
      <point x="285" y="880" type="line"/>
      <point x="75" y="880" type="line"/>
      <point x="101" y="1028" type="line"/>
      <point x="173" y="1028" type="line" smooth="yes"/>
      <point x="263" y="1028"/>
      <point x="334" y="1092"/>
      <point x="350" y="1182" type="curve" smooth="yes"/>
      <point x="375" y="1320" type="line"/>
      <point x="543" y="1320" type="line"/>
      <point x="493" y="1040" type="line"/>
      <point x="773" y="1040" type="line"/>
      <point x="745" y="880" type="line"/>
      <point x="465" y="880" type="line"/>
      <point x="363" y="300" type="line" smooth="yes"/>
      <point x="361" y="286"/>
      <point x="359" y="274"/>
      <point x="359" y="263" type="curve" smooth="yes"/>
      <point x="359" y="189"/>
      <point x="410" y="160"/>
      <point x="498" y="160" type="curve" smooth="yes"/>
      <point x="747" y="160" type="line"/>
      <point x="719" y="0" type="line"/>
    </contour>
    <contour>
      <point x="848" y="1180" type="line" smooth="yes"/>
      <point x="883" y="1380"/>
      <point x="1044" y="1500"/>
      <point x="1244" y="1500" type="curve" smooth="yes"/>
      <point x="1300" y="1500"/>
      <point x="1357" y="1486"/>
      <point x="1399" y="1468" type="curve"/>
      <point x="1330" y="1305" type="line"/>
      <point x="1307" y="1324"/>
      <point x="1259" y="1340"/>
      <point x="1216" y="1340" type="curve" smooth="yes"/>
      <point x="1114" y="1340"/>
      <point x="1046" y="1282"/>
      <point x="1028" y="1180" type="curve" smooth="yes"/>
      <point x="795" y="-140" type="line" smooth="yes"/>
      <point x="760" y="-340"/>
      <point x="599" y="-460"/>
      <point x="399" y="-460" type="curve" smooth="yes"/>
      <point x="343" y="-460"/>
      <point x="282" y="-446"/>
      <point x="240" y="-428" type="curve"/>
      <point x="313" y="-265" type="line"/>
      <point x="336" y="-284"/>
      <point x="384" y="-300"/>
      <point x="427" y="-300" type="curve" smooth="yes"/>
      <point x="529" y="-300"/>
      <point x="597" y="-242"/>
      <point x="615" y="-140" type="curve" smooth="yes"/>
    </contour>
  </outline>
</glyph>
<glyph name="uni02A8" format="2">
  <advance width="1787"/>
  <unicode hex="02A8"/>
  <outline>
    <contour>
      <point x="1285" y="160" type="line" smooth="yes"/>
      <point x="1326" y="160"/>
      <point x="1358" y="198"/>
      <point x="1358" y="239" type="curve" smooth="yes"/>
      <point x="1358" y="269"/>
      <point x="1340" y="292"/>
      <point x="1308" y="292" type="curve" smooth="yes"/>
      <point x="1008" y="292"/>
      <point x="896" y="-20"/>
      <point x="496" y="-20" type="curve" smooth="yes"/>
      <point x="316" y="-20"/>
      <point x="178" y="78"/>
      <point x="178" y="243" type="curve" smooth="yes"/>
      <point x="178" y="261"/>
      <point x="180" y="280"/>
      <point x="183" y="300" type="curve" smooth="yes"/>
      <point x="285" y="880" type="line"/>
      <point x="75" y="880" type="line"/>
      <point x="101" y="1028" type="line"/>
      <point x="173" y="1028" type="line" smooth="yes"/>
      <point x="263" y="1028"/>
      <point x="334" y="1092"/>
      <point x="350" y="1182" type="curve" smooth="yes"/>
      <point x="375" y="1320" type="line"/>
      <point x="543" y="1320" type="line"/>
      <point x="493" y="1040" type="line"/>
      <point x="773" y="1040" type="line"/>
      <point x="745" y="880" type="line"/>
      <point x="465" y="880" type="line"/>
      <point x="363" y="300" type="line" smooth="yes"/>
      <point x="361" y="290"/>
      <point x="360" y="280"/>
      <point x="360" y="271" type="curve" smooth="yes"/>
      <point x="360" y="187"/>
      <point x="433" y="140"/>
      <point x="525" y="140" type="curve" smooth="yes"/>
      <point x="825" y="140"/>
      <point x="937" y="452"/>
      <point x="1337" y="452" type="curve" smooth="yes"/>
      <point x="1453" y="452"/>
      <point x="1541" y="385"/>
      <point x="1541" y="270" type="curve" smooth="yes"/>
      <point x="1541" y="123"/>
      <point x="1418" y="0"/>
      <point x="1257" y="0" type="curve" smooth="yes"/>
      <point x="1088" y="0" type="line" smooth="yes"/>
      <point x="841" y="0"/>
      <point x="672" y="160"/>
      <point x="672" y="411" type="curve" smooth="yes"/>
      <point x="672" y="742"/>
      <point x="938" y="1060"/>
      <point x="1275" y="1060" type="curve" smooth="yes"/>
      <point x="1474" y="1060"/>
      <point x="1644" y="966"/>
      <point x="1696" y="788" type="curve"/>
      <point x="1527" y="700" type="line"/>
      <point x="1501" y="833"/>
      <point x="1388" y="900"/>
      <point x="1247" y="900" type="curve" smooth="yes"/>
      <point x="1005" y="900"/>
      <point x="854" y="651"/>
      <point x="854" y="431" type="curve" smooth="yes"/>
      <point x="854" y="263"/>
      <point x="952" y="160"/>
      <point x="1116" y="160" type="curve" smooth="yes"/>
    </contour>
  </outline>
</glyph>
<glyph name="uni02AE" format="2">
  <advance width="1201"/>
  <unicode hex="02AE"/>
  <outline>
    <contour>
      <point x="821" y="-440" type="line"/>
      <point x="920" y="120" type="line"/>
      <point x="820" y="35"/>
      <point x="714" y="-20"/>
      <point x="589" y="-20" type="curve" smooth="yes"/>
      <point x="368" y="-20"/>
      <point x="263" y="92"/>
      <point x="263" y="309" type="curve" smooth="yes"/>
      <point x="263" y="357"/>
      <point x="268" y="410"/>
      <point x="278" y="468" type="curve"/>
      <point x="403" y="1180" type="line" smooth="yes"/>
      <point x="405" y="1194"/>
      <point x="407" y="1208"/>
      <point x="407" y="1220" type="curve" smooth="yes"/>
      <point x="407" y="1297"/>
      <point x="359" y="1340"/>
      <point x="271" y="1340" type="curve" smooth="yes"/>
      <point x="228" y="1340"/>
      <point x="174" y="1324"/>
      <point x="145" y="1305" type="curve"/>
      <point x="129" y="1468" type="line"/>
      <point x="177" y="1486"/>
      <point x="243" y="1500"/>
      <point x="299" y="1500" type="curve" smooth="yes"/>
      <point x="476" y="1500"/>
      <point x="589" y="1407"/>
      <point x="589" y="1247" type="curve" smooth="yes"/>
      <point x="589" y="1226"/>
      <point x="587" y="1203"/>
      <point x="583" y="1180" type="curve" smooth="yes"/>
      <point x="458" y="468" type="line" smooth="yes"/>
      <point x="450" y="425"/>
      <point x="447" y="387"/>
      <point x="447" y="353" type="curve" smooth="yes"/>
      <point x="447" y="211"/>
      <point x="513" y="140"/>
      <point x="658" y="140" type="curve" smooth="yes"/>
      <point x="838" y="140"/>
      <point x="935" y="249"/>
      <point x="974" y="468" type="curve" smooth="yes"/>
      <point x="1074" y="1040" type="line"/>
      <point x="1254" y="1040" type="line"/>
      <point x="993" y="-440" type="line"/>
    </contour>
  </outline>
</glyph>
<glyph name="uni02B1" format="2">
  <advance width="739"/>
  <unicode hex="02B1"/>
  <outline>
    <contour>
      <point x="214" y="1468" type="line"/>
      <point x="235" y="1587"/>
      <point x="353" y="1678"/>
      <point x="475" y="1678" type="curve" smooth="yes"/>
      <point x="485" y="1678"/>
      <point x="495" y="1677"/>
      <point x="505" y="1676" type="curve"/>
      <point x="483" y="1554" type="line"/>
      <point x="476" y="1557"/>
      <point x="466" y="1558"/>
      <point x="456" y="1558" type="curve" smooth="yes"/>
      <point x="399" y="1558"/>
      <point x="354" y="1519"/>
      <point x="345" y="1468" type="curve"/>
      <point x="319" y="1319" type="line"/>
      <point x="383" y="1383"/>
      <point x="448" y="1425"/>
      <point x="526" y="1425" type="curve" smooth="yes"/>
      <point x="665" y="1425"/>
      <point x="732" y="1355"/>
      <point x="732" y="1221" type="curve" smooth="yes"/>
      <point x="732" y="1193"/>
      <point x="729" y="1161"/>
      <point x="723" y="1127" type="curve" smooth="yes"/>
      <point x="667" y="810" type="line"/>
      <point x="532" y="810" type="line"/>
      <point x="587" y="1124" type="line" smooth="yes"/>
      <point x="591" y="1147"/>
      <point x="593" y="1167"/>
      <point x="593" y="1185" type="curve" smooth="yes"/>
      <point x="593" y="1265"/>
      <point x="555" y="1305"/>
      <point x="470" y="1305" type="curve" smooth="yes"/>
      <point x="366" y="1305"/>
      <point x="309" y="1245"/>
      <point x="288" y="1124" type="curve" smooth="yes"/>
      <point x="233" y="810" type="line"/>
      <point x="98" y="810" type="line"/>
    </contour>
  </outline>
</glyph>
<glyph name="uni02B7" format="2">
  <advance width="1056"/>
  <unicode hex="02B7"/>
  <outline>
    <contour>
      <point x="609" y="1228" type="line"/>
      <point x="390" y="810" type="line"/>
      <point x="261" y="810" type="line"/>
      <point x="159" y="1413" type="line"/>
      <point x="292" y="1413" type="line"/>
      <point x="365" y="980" type="line"/>
      <point x="587" y="1413" type="line"/>
      <point x="697" y="1413" type="line"/>
      <point x="775" y="980" type="line"/>
      <point x="1002" y="1413" type="line"/>
      <point x="1135" y="1413" type="line"/>
      <point x="819" y="810" type="line"/>
      <point x="690" y="810" type="line"/>
    </contour>
  </outline>
</glyph>
<glyph name="uni02B8" format="2">
  <advance width="726"/>
  <unicode hex="02B8"/>
  <outline>
    <contour>
      <point x="374" y="681" type="line"/>
      <point x="329" y="593"/>
      <point x="230" y="543"/>
      <point x="128" y="543" type="curve" smooth="yes"/>
      <point x="92" y="543"/>
      <point x="54" y="553"/>
      <point x="27" y="567" type="curve"/>
      <point x="73" y="682" type="line"/>
      <point x="86" y="671"/>
      <point x="114" y="663"/>
      <point x="139" y="663" type="curve" smooth="yes"/>
      <point x="184" y="663"/>
      <point x="218" y="679"/>
      <point x="235" y="709" type="curve"/>
      <point x="308" y="829" type="line"/>
      <point x="159" y="1413" type="line"/>
      <point x="304" y="1413" type="line"/>
      <point x="409" y="973" type="line"/>
      <point x="660" y="1413" type="line"/>
      <point x="805" y="1413" type="line"/>
    </contour>
  </outline>
</glyph>
<glyph name="uni02C8" format="2">
  <advance width="318"/>
  <unicode hex="02C8"/>
  <outline>
    <contour>
      <point x="334" y="1224" type="line"/>
      <point x="156" y="1224" type="line"/>
      <point x="201" y="1480" type="line"/>
      <point x="379" y="1480" type="line"/>
    </contour>
  </outline>
</glyph>
<glyph name="uni02CB" format="2">
  <advance width="544"/>
  <unicode hex="02CB"/>
  <outline>
    <contour>
      <point x="382" y="1224" type="line"/>
      <point x="201" y="1480" type="line"/>
      <point x="427" y="1480" type="line"/>
      <point x="560" y="1224" type="line"/>
    </contour>
  </outline>
</glyph>
<glyph name="uni02D1" format="2">
  <advance width="502"/>
  <unicode hex="02D1"/>
  <outline>
    <contour>
      <point x="259" y="780" type="line"/>
      <point x="153" y="1040" type="line"/>
      <point x="455" y="1040" type="line"/>
    </contour>
  </outline>
</glyph>
<glyph name="dotaccent" format="2">
  <advance width="396"/>
  <unicode hex="02D9"/>
  <outline>
    <contour>
      <point x="308" y="1352" type="curve" smooth="yes"/>
      <point x="308" y="1424"/>
      <point x="364" y="1480"/>
      <point x="436" y="1480" type="curve" smooth="yes"/>
      <point x="508" y="1480"/>
      <point x="564" y="1424"/>
      <point x="564" y="1352" type="curve" smooth="yes"/>
      <point x="564" y="1280"/>
      <point x="508" y="1224"/>
      <point x="436" y="1224" type="curve" smooth="yes"/>
      <point x="364" y="1224"/>
      <point x="308" y="1280"/>
    </contour>
  </outline>
</glyph>
<glyph name="ogonek" format="2">
  <advance width="492"/>
  <unicode hex="02DB"/>
  <outline>
    <contour>
      <point x="-99" y="-241" type="curve" smooth="yes"/>
      <point x="-99" y="-207"/>
      <point x="-99" y="-128"/>
      <point x="76" y="0" type="curve"/>
      <point x="267" y="0" type="line"/>
      <point x="104" y="-105"/>
      <point x="30" y="-151"/>
      <point x="30" y="-215" type="curve" smooth="yes"/>
      <point x="30" y="-245"/>
      <point x="52" y="-263"/>
      <point x="84" y="-263" type="curve" smooth="yes"/>
      <point x="120" y="-263"/>
      <point x="156" y="-250"/>
      <point x="194" y="-225" type="curve"/>
      <point x="235" y="-326" type="line"/>
      <point x="173" y="-364"/>
      <point x="127" y="-380"/>
      <point x="63" y="-380" type="curve" smooth="yes"/>
      <point x="-26" y="-380"/>
      <point x="-99" y="-336"/>
    </contour>
  </outline>
</glyph>
<glyph name="tilde" format="2">
  <advance width="814"/>
  <unicode hex="02DC"/>
  <outline>
    <contour>
      <point x="317" y="1227" type="curve"/>
      <point x="179" y="1264" type="line"/>
      <point x="195" y="1400"/>
      <point x="285" y="1490"/>
      <point x="393" y="1490" type="curve" smooth="yes"/>
      <point x="525" y="1490"/>
      <point x="559" y="1354"/>
      <point x="639" y="1354" type="curve" smooth="yes"/>
      <point x="687" y="1354"/>
      <point x="708" y="1417"/>
      <point x="713" y="1477" type="curve"/>
      <point x="852" y="1440" type="line"/>
      <point x="836" y="1304"/>
      <point x="746" y="1214"/>
      <point x="638" y="1214" type="curve" smooth="yes"/>
      <point x="506" y="1214"/>
      <point x="472" y="1350"/>
      <point x="392" y="1350" type="curve" smooth="yes"/>
      <point x="344" y="1350"/>
      <point x="322" y="1287"/>
    </contour>
  </outline>
</glyph>
<glyph name="uni02E1" format="2">
  <advance width="338"/>
  <unicode hex="02E1"/>
  <outline>
    <contour>
      <point x="249" y="1668" type="line"/>
      <point x="384" y="1668" type="line"/>
      <point x="261" y="968" type="line" smooth="yes"/>
      <point x="260" y="963"/>
      <point x="260" y="958"/>
      <point x="260" y="954" type="curve" smooth="yes"/>
      <point x="260" y="929"/>
      <point x="275" y="918"/>
      <point x="305" y="918" type="curve" smooth="yes"/>
      <point x="314" y="918"/>
      <point x="328" y="923"/>
      <point x="336" y="927" type="curve"/>
      <point x="347" y="816" type="line"/>
      <point x="330" y="806"/>
      <point x="297" y="798"/>
      <point x="276" y="798" type="curve" smooth="yes"/>
      <point x="176" y="798"/>
      <point x="118" y="834"/>
      <point x="118" y="911" type="curve" smooth="yes"/>
      <point x="118" y="921"/>
      <point x="119" y="932"/>
      <point x="121" y="943" type="curve" smooth="yes"/>
    </contour>
  </outline>
</glyph>
<glyph name="acutecomb" format="2">
  <advance width="0"/>
  <unicode hex="0301"/>
  <anchor x="825" y="1040" name="_mkmk_top_center"/>
  <anchor x="885" y="1376" name="mkmk_top_center"/>
  <anchor x="825" y="1040" name="_top_center"/>
  <outline>
    <contour>
      <point x="937" y="1224" type="line"/>
      <point x="759" y="1224" type="line"/>
      <point x="982" y="1480" type="line"/>
      <point x="1208" y="1480" type="line"/>
    </contour>
  </outline>
</glyph>
<glyph name="tildecomb" format="2">
  <advance width="0"/>
  <unicode hex="0303"/>
  <anchor x="825" y="1040" name="_mkmk_top_center"/>
  <anchor x="882" y="1376" name="mkmk_top_center"/>
  <anchor x="825" y="1040" name="_top_center"/>
  <outline>
    <contour>
      <point x="680" y="1237" type="curve"/>
      <point x="541" y="1274" type="line"/>
      <point x="557" y="1410"/>
      <point x="647" y="1500"/>
      <point x="755" y="1500" type="curve" smooth="yes"/>
      <point x="887" y="1500"/>
      <point x="921" y="1364"/>
      <point x="1001" y="1364" type="curve" smooth="yes"/>
      <point x="1049" y="1364"/>
      <point x="1071" y="1427"/>
      <point x="1076" y="1487" type="curve"/>
      <point x="1215" y="1450" type="line"/>
      <point x="1199" y="1314"/>
      <point x="1109" y="1224"/>
      <point x="1001" y="1224" type="curve" smooth="yes"/>
      <point x="869" y="1224"/>
      <point x="835" y="1360"/>
      <point x="755" y="1360" type="curve" smooth="yes"/>
      <point x="707" y="1360"/>
      <point x="685" y="1297"/>
    </contour>
  </outline>
</glyph>
<glyph name="hookabovecomb" format="2">
  <advance width="0"/>
  <unicode hex="0309"/>
  <anchor x="825" y="1040" name="_mkmk_top_center"/>
  <anchor x="895" y="1434" name="mkmk_top_center"/>
  <anchor x="825" y="1040" name="_top_center"/>
  <outline>
    <contour>
      <point x="817" y="1354" type="line"/>
      <point x="881" y="1354" type="line"/>
      <point x="937" y="1308" type="line"/>
      <point x="917" y="1196" type="line"/>
      <point x="789" y="1196" type="line"/>
    </contour>
    <contour>
      <point x="761" y="1405" type="curve"/>
      <point x="748" y="1523" type="line"/>
      <point x="748" y="1523"/>
      <point x="829" y="1558"/>
      <point x="903" y="1558" type="curve" smooth="yes"/>
      <point x="1015" y="1558"/>
      <point x="1084" y="1508"/>
      <point x="1084" y="1425" type="curve" smooth="yes"/>
      <point x="1084" y="1319"/>
      <point x="988" y="1257"/>
      <point x="864" y="1257" type="curve"/>
      <point x="881" y="1354" type="line"/>
      <point x="908" y="1354"/>
      <point x="955" y="1360"/>
      <point x="955" y="1400" type="curve" smooth="yes"/>
      <point x="955" y="1419"/>
      <point x="932" y="1437"/>
      <point x="881" y="1437" type="curve" smooth="yes"/>
      <point x="811" y="1437"/>
      <point x="761" y="1405"/>
    </contour>
  </outline>
</glyph>
<glyph name="uni030B" format="2">
  <advance width="0"/>
  <unicode hex="030B"/>
  <anchor x="885" y="1376" name="mkmk_top_center"/>
  <anchor x="825" y="1040" name="_mkmk_top_center"/>
  <anchor x="825" y="1040" name="_top_center"/>
  <outline>
    <contour>
      <point x="1099" y="1224" type="line"/>
      <point x="921" y="1224" type="line"/>
      <point x="1144" y="1480" type="line"/>
      <point x="1370" y="1480" type="line"/>
    </contour>
    <contour>
      <point x="695" y="1224" type="line"/>
      <point x="517" y="1224" type="line"/>
      <point x="740" y="1480" type="line"/>
      <point x="966" y="1480" type="line"/>
    </contour>
  </outline>
</glyph>
<glyph name="uni030C" format="2">
  <advance width="0"/>
  <unicode hex="030C"/>
  <anchor x="885" y="1376" name="mkmk_top_center"/>
  <anchor x="825" y="1040" name="_mkmk_top_center"/>
  <anchor x="825" y="1040" name="_top_center"/>
  <outline>
    <contour>
      <point x="790" y="1480" type="line"/>
      <point x="953" y="1224" type="line"/>
      <point x="763" y="1224" type="line"/>
      <point x="612" y="1480" type="line"/>
    </contour>
    <contour>
      <point x="1016" y="1480" type="line"/>
      <point x="1194" y="1480" type="line"/>
      <point x="953" y="1224" type="line"/>
      <point x="763" y="1224" type="line"/>
    </contour>
  </outline>
</glyph>
<glyph name="uni0314" format="2">
  <advance width="0"/>
  <unicode hex="0314"/>
  <anchor x="898" y="1450" name="mkmk_top_center"/>
  <anchor x="825" y="1040" name="_mkmk_top_center"/>
  <anchor x="825" y="1040" name="_top_center"/>
  <outline>
    <contour>
      <point x="816" y="1461" type="curve" smooth="yes"/>
      <point x="816" y="1519"/>
      <point x="860" y="1563"/>
      <point x="918" y="1563" type="curve" smooth="yes"/>
      <point x="974" y="1563"/>
      <point x="1020" y="1519"/>
      <point x="1020" y="1461" type="curve" smooth="yes"/>
      <point x="1020" y="1403"/>
      <point x="976" y="1359"/>
      <point x="918" y="1359" type="curve" smooth="yes"/>
      <point x="860" y="1359"/>
      <point x="816" y="1403"/>
    </contour>
    <contour>
      <point x="898" y="1460" type="line"/>
      <point x="875" y="1430"/>
      <point x="855" y="1403"/>
      <point x="855" y="1360" type="curve" smooth="yes"/>
      <point x="855" y="1286"/>
      <point x="911" y="1254"/>
      <point x="950" y="1245" type="curve"/>
      <point x="909" y="1153" type="line"/>
      <point x="855" y="1167"/>
      <point x="754" y="1232"/>
      <point x="754" y="1351" type="curve" smooth="yes"/>
      <point x="754" y="1436"/>
      <point x="805" y="1563"/>
      <point x="918" y="1563" type="curve"/>
    </contour>
  </outline>
</glyph>
<glyph name="uni0315" format="2">
  <advance width="0"/>
  <unicode hex="0315"/>
  <anchor x="898" y="1450" name="mkmk_top_center"/>
  <anchor x="825" y="1040" name="_mkmk_top_center"/>
  <anchor x="825" y="1040" name="_top_center"/>
  <outline>
    <contour>
      <point x="816" y="1461" type="curve" smooth="yes"/>
      <point x="816" y="1519"/>
      <point x="860" y="1563"/>
      <point x="918" y="1563" type="curve" smooth="yes"/>
      <point x="974" y="1563"/>
      <point x="1020" y="1519"/>
      <point x="1020" y="1461" type="curve" smooth="yes"/>
      <point x="1020" y="1403"/>
      <point x="976" y="1359"/>
      <point x="918" y="1359" type="curve" smooth="yes"/>
      <point x="860" y="1359"/>
      <point x="816" y="1403"/>
    </contour>
    <contour>
      <point x="774" y="1245" type="line"/>
      <point x="878" y="1267"/>
      <point x="917" y="1361"/>
      <point x="917" y="1397" type="curve" smooth="yes"/>
      <point x="917" y="1421"/>
      <point x="900" y="1460"/>
      <point x="900" y="1460" type="curve"/>
      <point x="918" y="1563" type="line"/>
      <point x="966" y="1563"/>
      <point x="1022" y="1536"/>
      <point x="1022" y="1443" type="curve" smooth="yes"/>
      <point x="1022" y="1251"/>
      <point x="840" y="1167"/>
      <point x="781" y="1153" type="curve"/>
    </contour>
  </outline>
</glyph>
<glyph name="uni0328" format="2">
  <advance width="0"/>
  <unicode hex="0328"/>
  <anchor x="642" y="0" name="_mkmk_bottom_center"/>
  <anchor x="583" y="-336" name="mkmk_bottom_center"/>
  <anchor x="779" y="0" name="_bottom_right"/>
  <outline>
    <contour>
      <point x="713" y="80" type="curve"/>
      <point x="779" y="0" type="line"/>
      <point x="612" y="-107"/>
      <point x="542" y="-152"/>
      <point x="542" y="-216" type="curve" smooth="yes"/>
      <point x="542" y="-245"/>
      <point x="564" y="-263"/>
      <point x="596" y="-263" type="curve" smooth="yes"/>
      <point x="632" y="-263"/>
      <point x="668" y="-250"/>
      <point x="706" y="-225" type="curve"/>
      <point x="747" y="-326" type="line"/>
      <point x="685" y="-364"/>
      <point x="639" y="-380"/>
      <point x="575" y="-380" type="curve" smooth="yes"/>
      <point x="486" y="-380"/>
      <point x="413" y="-336"/>
      <point x="413" y="-241" type="curve" smooth="yes"/>
      <point x="413" y="-96"/>
      <point x="625" y="28"/>
    </contour>
  </outline>
</glyph>
<glyph name="uni0329" format="2">
  <advance width="0"/>
  <unicode hex="0329"/>
  <anchor x="512" y="0" name="_bottom_center"/>
  <anchor x="473" y="-220" name="mkmk_bottom_center"/>
  <anchor x="512" y="0" name="_mkmk_bottom_center"/>
  <outline>
    <contour>
      <point x="523" y="-440" type="line"/>
      <point x="345" y="-440" type="line"/>
      <point x="391" y="-184" type="line"/>
      <point x="569" y="-184" type="line"/>
    </contour>
  </outline>
</glyph>
<glyph name="uni032F" format="2">
  <advance width="0"/>
  <unicode hex="032F"/>
  <anchor x="642" y="0" name="_mkmk_bottom_center"/>
  <anchor x="583" y="-336" name="mkmk_bottom_center"/>
  <anchor x="642" y="0" name="_bottom_center"/>
  <outline>
    <contour>
      <point x="612" y="-174" type="curve" smooth="yes"/>
      <point x="462" y="-174"/>
      <point x="310" y="-300"/>
      <point x="285" y="-440" type="curve"/>
      <point x="445" y="-440" type="line"/>
      <point x="457" y="-374"/>
      <point x="522" y="-314"/>
      <point x="588" y="-314" type="curve" smooth="yes"/>
      <point x="647" y="-314"/>
      <point x="687" y="-362"/>
      <point x="687" y="-419" type="curve" smooth="yes"/>
      <point x="687" y="-426"/>
      <point x="686" y="-433"/>
      <point x="685" y="-440" type="curve"/>
      <point x="845" y="-440" type="line"/>
      <point x="847" y="-427"/>
      <point x="849" y="-413"/>
      <point x="849" y="-400" type="curve" smooth="yes"/>
      <point x="849" y="-277"/>
      <point x="748" y="-174"/>
    </contour>
  </outline>
</glyph>
<glyph name="uni0330" format="2">
  <advance width="0"/>
  <unicode hex="0330"/>
  <anchor x="642" y="0" name="_mkmk_bottom_center"/>
  <anchor x="583" y="-336" name="mkmk_bottom_center"/>
  <anchor x="642" y="0" name="_bottom_center"/>
  <outline>
    <contour>
      <point x="387" y="-447" type="curve"/>
      <point x="248" y="-410" type="line"/>
      <point x="264" y="-274"/>
      <point x="354" y="-184"/>
      <point x="462" y="-184" type="curve" smooth="yes"/>
      <point x="594" y="-184"/>
      <point x="628" y="-320"/>
      <point x="708" y="-320" type="curve" smooth="yes"/>
      <point x="756" y="-320"/>
      <point x="778" y="-257"/>
      <point x="783" y="-197" type="curve"/>
      <point x="922" y="-234" type="line"/>
      <point x="906" y="-370"/>
      <point x="816" y="-460"/>
      <point x="708" y="-460" type="curve" smooth="yes"/>
      <point x="576" y="-460"/>
      <point x="542" y="-324"/>
      <point x="462" y="-324" type="curve" smooth="yes"/>
      <point x="414" y="-324"/>
      <point x="392" y="-387"/>
    </contour>
  </outline>
</glyph>
<glyph name="uni0332" format="2">
  <advance width="0"/>
  <unicode hex="0332"/>
  <anchor x="512" y="0" name="_mkmk_bottom_center"/>
  <anchor x="473" y="-220" name="mkmk_bottom_center"/>
  <anchor x="512" y="0" name="_bottom_center"/>
  <outline>
    <contour>
      <point x="-3" y="-324" type="line"/>
      <point x="22" y="-184" type="line"/>
      <point x="938" y="-184" type="line"/>
      <point x="913" y="-324" type="line"/>
    </contour>
  </outline>
</glyph>
<glyph name="uni0345" format="2">
  <advance width="0"/>
  <unicode hex="0345"/>
  <anchor x="642" y="0" name="_mkmk_bottom_center"/>
  <anchor x="564" y="-440" name="mkmk_bottom_center"/>
  <anchor x="626" y="-90" name="_bottom_ypogegrammeni"/>
  <outline>
    <contour>
      <point x="659" y="-286" type="line" smooth="yes"/>
      <point x="658" y="-291"/>
      <point x="657" y="-296"/>
      <point x="657" y="-300" type="curve" smooth="yes"/>
      <point x="657" y="-326"/>
      <point x="673" y="-340"/>
      <point x="706" y="-340" type="curve" smooth="yes"/>
      <point x="716" y="-340"/>
      <point x="731" y="-335"/>
      <point x="740" y="-331" type="curve"/>
      <point x="747" y="-442" type="line"/>
      <point x="730" y="-452"/>
      <point x="701" y="-460"/>
      <point x="679" y="-460" type="curve" smooth="yes"/>
      <point x="576" y="-460"/>
      <point x="518" y="-421"/>
      <point x="518" y="-340" type="curve" smooth="yes"/>
      <point x="518" y="-329"/>
      <point x="519" y="-317"/>
      <point x="521" y="-304" type="curve" smooth="yes"/>
      <point x="559" y="-90" type="line"/>
      <point x="693" y="-90" type="line"/>
    </contour>
  </outline>
</glyph>
<glyph name="uni0377" format="2">
  <advance width="1208"/>
  <unicode hex="0377"/>
  <outline>
    <contour>
      <point x="930" y="230" type="curve" smooth="yes"/>
      <point x="1072" y="1040" type="line"/>
      <point x="892" y="1040" type="line"/>
      <point x="240" y="282" type="line"/>
      <point x="373" y="1040" type="line"/>
      <point x="193" y="1040" type="line"/>
      <point x="10" y="0" type="line"/>
      <point x="190" y="0" type="line"/>
      <point x="843" y="758" type="line"/>
      <point x="750" y="230" type="line" smooth="yes"/>
      <point x="746" y="207"/>
      <point x="744" y="186"/>
      <point x="744" y="167" type="curve" smooth="yes"/>
      <point x="744" y="40"/>
      <point x="828" y="-20"/>
      <point x="975" y="-20" type="curve" smooth="yes"/>
      <point x="1007" y="-20"/>
      <point x="1050" y="-9"/>
      <point x="1074" y="4" type="curve"/>
      <point x="1059" y="156" type="line"/>
      <point x="1046" y="149"/>
      <point x="1020" y="140"/>
      <point x="1004" y="140" type="curve" smooth="yes"/>
      <point x="953" y="140"/>
      <point x="927" y="162"/>
      <point x="927" y="205" type="curve" smooth="yes"/>
      <point x="927" y="213"/>
      <point x="928" y="221"/>
    </contour>
  </outline>
</glyph>
<glyph name="uni037A" format="2">
  <advance width="390"/>
  <unicode hex="037A"/>
  <outline>
    <contour>
      <point x="-60" y="0" type="line"/>
      <point x="74" y="0" type="line"/>
      <point x="24" y="-286" type="line" smooth="yes"/>
      <point x="23" y="-291"/>
      <point x="22" y="-296"/>
      <point x="22" y="-300" type="curve" smooth="yes"/>
      <point x="22" y="-326"/>
      <point x="38" y="-340"/>
      <point x="71" y="-340" type="curve" smooth="yes"/>
      <point x="81" y="-340"/>
      <point x="96" y="-335"/>
      <point x="105" y="-331" type="curve"/>
      <point x="112" y="-442" type="line"/>
      <point x="95" y="-452"/>
      <point x="66" y="-460"/>
      <point x="44" y="-460" type="curve" smooth="yes"/>
      <point x="-59" y="-460"/>
      <point x="-117" y="-421"/>
      <point x="-117" y="-340" type="curve" smooth="yes"/>
      <point x="-117" y="-329"/>
      <point x="-116" y="-317"/>
      <point x="-114" y="-304" type="curve" smooth="yes"/>
    </contour>
  </outline>
</glyph>
<glyph name="uni037D" format="2">
  <advance width="1142"/>
  <unicode hex="037D"/>
  <outline>
    <contour>
      <point x="381" y="520" type="curve" smooth="yes"/>
      <point x="381" y="592"/>
      <point x="433" y="649"/>
      <point x="505" y="649" type="curve" smooth="yes"/>
      <point x="577" y="649"/>
      <point x="633" y="592"/>
      <point x="633" y="520" type="curve" smooth="yes"/>
      <point x="633" y="448"/>
      <point x="578" y="393"/>
      <point x="506" y="393" type="curve" smooth="yes"/>
      <point x="434" y="393"/>
      <point x="381" y="448"/>
    </contour>
    <contour>
      <point x="832" y="611" type="curve" smooth="yes"/>
      <point x="832" y="384"/>
      <point x="679" y="140"/>
      <point x="439" y="140" type="curve" smooth="yes"/>
      <point x="298" y="140"/>
      <point x="209" y="207"/>
      <point x="183" y="340" type="curve"/>
      <point x="14" y="252" type="line"/>
      <point x="66" y="74"/>
      <point x="211" y="-20"/>
      <point x="410" y="-20" type="curve" smooth="yes"/>
      <point x="744" y="-20"/>
      <point x="1014" y="293"/>
      <point x="1014" y="631" type="curve" smooth="yes"/>
      <point x="1014" y="885"/>
      <point x="848" y="1060"/>
      <point x="601" y="1060" type="curve" smooth="yes"/>
      <point x="402" y="1060"/>
      <point x="223" y="966"/>
      <point x="109" y="788" type="curve"/>
      <point x="246" y="700" type="line"/>
      <point x="318" y="833"/>
      <point x="432" y="900"/>
      <point x="573" y="900" type="curve" smooth="yes"/>
      <point x="736" y="900"/>
      <point x="832" y="782"/>
    </contour>
  </outline>
</glyph>
<glyph name="uni0394" format="2">
  <advance width="1496"/>
  <unicode hex="0394"/>
  <anchor x="861" y="1380" name="top_center"/>
  <anchor x="618" y="0" name="bottom_center"/>
  <outline>
    <contour>
      <point x="10" y="0" type="line"/>
      <point x="1226" y="0" type="line"/>
      <point x="1253" y="152" type="line"/>
      <point x="1100" y="168" type="line"/>
      <point x="196" y="168" type="line"/>
      <point x="37" y="152" type="line"/>
    </contour>
    <contour>
      <point x="835" y="1230" type="line"/>
      <point x="1060" y="168" type="line"/>
      <point x="1253" y="152" type="line"/>
      <point x="977" y="1480" type="line"/>
      <point x="781" y="1480" type="line"/>
      <point x="37" y="152" type="line"/>
      <point x="236" y="168" type="line"/>
    </contour>
  </outline>
</glyph>
<glyph name="Sigma" format="2">
  <advance width="1208"/>
  <unicode hex="03A3"/>
  <anchor x="717" y="1380" name="top_center"/>
  <anchor x="474" y="0" name="bottom_center"/>
  <outline>
    <contour>
      <point x="783" y="740" type="line"/>
      <point x="252" y="168" type="line"/>
      <point x="968" y="168" type="line"/>
      <point x="938" y="0" type="line"/>
      <point x="10" y="0" type="line"/>
      <point x="40" y="168" type="line"/>
      <point x="571" y="740" type="line"/>
      <point x="241" y="1312" type="line"/>
      <point x="271" y="1480" type="line"/>
      <point x="1199" y="1480" type="line"/>
      <point x="1169" y="1312" type="line"/>
      <point x="453" y="1312" type="line"/>
    </contour>
  </outline>
</glyph>
<glyph name="Psi" format="2">
  <advance width="1398"/>
  <unicode hex="03A8"/>
  <anchor x="812" y="1380" name="top_center"/>
  <anchor x="569" y="0" name="bottom_center"/>
  <outline>
    <contour>
      <point x="473" y="0" type="line"/>
      <point x="734" y="1480" type="line"/>
      <point x="924" y="1480" type="line"/>
      <point x="663" y="0" type="line"/>
    </contour>
    <contour>
      <point x="461" y="1480" type="line"/>
      <point x="383" y="1040" type="line" smooth="yes"/>
      <point x="376" y="998"/>
      <point x="372" y="957"/>
      <point x="372" y="919" type="curve" smooth="yes"/>
      <point x="372" y="728"/>
      <point x="465" y="588"/>
      <point x="673" y="588" type="curve" smooth="yes"/>
      <point x="923" y="588"/>
      <point x="1077" y="790"/>
      <point x="1121" y="1040" type="curve" smooth="yes"/>
      <point x="1199" y="1480" type="line"/>
      <point x="1389" y="1480" type="line"/>
      <point x="1311" y="1040" type="line" smooth="yes"/>
      <point x="1248" y="680"/>
      <point x="1003" y="420"/>
      <point x="643" y="420" type="curve" smooth="yes"/>
      <point x="336" y="420"/>
      <point x="179" y="610"/>
      <point x="179" y="889" type="curve" smooth="yes"/>
      <point x="179" y="937"/>
      <point x="184" y="987"/>
      <point x="193" y="1040" type="curve" smooth="yes"/>
      <point x="271" y="1480" type="line"/>
    </contour>
  </outline>
</glyph>
<glyph name="zeta" format="2">
  <advance width="1071"/>
  <unicode hex="03B6"/>
  <anchor x="382" y="0" name="bottom_center"/>
  <anchor x="625" y="1380" name="top_center"/>
  <outline>
    <contour>
      <point x="231" y="1480" type="line"/>
      <point x="1056" y="1480" type="line"/>
      <point x="1031" y="1336" type="line"/>
      <point x="781" y="1320" type="line"/>
      <point x="203" y="1320" type="line"/>
    </contour>
    <contour>
      <point x="222" y="376" type="curve" smooth="yes"/>
      <point x="222" y="200"/>
      <point x="380" y="160"/>
      <point x="552" y="159" type="curve" smooth="yes"/>
      <point x="689" y="159" type="line" smooth="yes"/>
      <point x="796" y="159"/>
      <point x="900" y="95"/>
      <point x="900" y="-39" type="curve" smooth="yes"/>
      <point x="900" y="-44"/>
      <point x="899" y="-130"/>
      <point x="853" y="-190" type="curve"/>
      <point x="690" y="-143" type="line"/>
      <point x="701" y="-128"/>
      <point x="717" y="-101"/>
      <point x="717" y="-69" type="curve" smooth="yes"/>
      <point x="717" y="-24"/>
      <point x="687" y="0"/>
      <point x="641" y="0" type="curve" smooth="yes"/>
      <point x="524" y="0" type="line" smooth="yes"/>
      <point x="207" y="0"/>
      <point x="38" y="108"/>
      <point x="38" y="338" type="curve" smooth="yes"/>
      <point x="38" y="762"/>
      <point x="665" y="1236"/>
      <point x="781" y="1320" type="curve"/>
      <point x="1031" y="1336" type="line"/>
      <point x="943" y="1271"/>
      <point x="222" y="729"/>
    </contour>
  </outline>
</glyph>
<glyph name="iota" format="2">
  <advance width="509"/>
  <unicode hex="03B9"/>
  <anchor x="283" y="1040" name="greek_t"/>
  <anchor x="283" y="1040" name="greek_k"/>
  <anchor x="283" y="1040" name="greek_kt"/>
  <anchor x="283" y="1040" name="greek_v"/>
  <anchor x="160" y="0" name="bottom_center"/>
  <anchor x="283" y="1040" name="top_center"/>
  <outline>
    <contour>
      <point x="193" y="1040" type="line"/>
      <point x="373" y="1040" type="line"/>
      <point x="231" y="230" type="line" smooth="yes"/>
      <point x="229" y="221"/>
      <point x="228" y="213"/>
      <point x="228" y="205" type="curve" smooth="yes"/>
      <point x="228" y="162"/>
      <point x="254" y="140"/>
      <point x="305" y="140" type="curve" smooth="yes"/>
      <point x="321" y="140"/>
      <point x="347" y="149"/>
      <point x="360" y="156" type="curve"/>
      <point x="375" y="4" type="line"/>
      <point x="351" y="-9"/>
      <point x="308" y="-20"/>
      <point x="276" y="-20" type="curve" smooth="yes"/>
      <point x="129" y="-20"/>
      <point x="45" y="40"/>
      <point x="45" y="167" type="curve" smooth="yes"/>
      <point x="45" y="186"/>
      <point x="47" y="207"/>
      <point x="51" y="230" type="curve" smooth="yes"/>
    </contour>
  </outline>
</glyph>
